{"glyphs":{"0":{"ha":833,"x_min":0,"x_max":0,"o":"m 594 926 b 710 753 644 886 683 828 b 750 486 736 678 750 589 b 710 219 750 383 736 294 b 594 47 683 144 644 88 b 417 -14 544 7 485 -14 b 239 47 349 -14 289 7 b 124 219 189 88 150 144 b 83 486 97 294 83 383 b 124 753 83 589 97 678 b 239 926 150 828 189 886 b 417 986 289 967 349 986 b 594 926 485 986 544 967 m 518 850 b 417 882 489 871 456 882 b 257 781 347 882 294 849 b 201 486 219 713 201 615 b 244 218 201 375 215 286 m 576 192 b 632 486 614 260 632 357 b 590 753 632 599 618 688 l 314 124 b 417 90 343 101 376 90 b 576 192 486 90 539 124 "},"1":{"ha":833,"x_min":0,"x_max":0,"o":"m 139 104 l 375 104 l 375 743 l 188 743 l 188 847 l 319 847 b 361 863 338 847 351 853 b 375 903 371 872 375 885 l 375 972 l 493 972 l 493 104 l 729 104 l 729 0 l 139 0 "},"2":{"ha":833,"x_min":0,"x_max":0,"o":"m 107 104 l 503 528 b 586 708 558 588 586 649 b 542 838 586 764 571 807 b 413 882 511 867 468 882 b 288 835 363 882 321 867 b 225 715 253 803 232 763 l 107 715 b 210 913 121 797 156 863 b 413 986 264 961 331 986 b 564 950 469 986 519 974 b 668 851 608 926 643 893 b 704 708 692 808 704 761 b 668 571 704 660 692 614 b 576 447 643 528 613 486 l 256 104 l 718 104 l 718 0 l 107 0 "},"3":{"ha":833,"x_min":0,"x_max":0,"o":"m 192 60 b 90 257 133 108 100 175 l 208 257 b 276 138 215 208 239 168 b 410 90 314 106 358 90 b 560 138 475 90 525 106 b 611 264 594 168 611 210 b 560 392 611 318 594 360 b 410 438 525 422 475 438 l 340 438 l 340 535 l 410 535 b 547 582 468 535 514 550 b 597 708 581 614 597 656 b 547 835 597 761 581 803 b 410 882 514 867 468 882 b 286 836 361 882 321 867 b 222 715 251 804 229 764 l 104 715 b 207 915 118 801 153 868 b 410 986 261 963 329 986 b 635 911 506 986 581 961 b 715 708 689 860 715 793 b 569 493 715 600 667 528 b 688 407 621 475 660 447 b 729 264 715 367 729 319 b 644 60 729 176 701 108 b 410 -14 588 11 510 -14 b 192 60 322 -14 249 11 "},"4":{"ha":833,"x_min":0,"x_max":0,"o":"m 500 0 l 500 229 l 76 229 l 76 333 l 451 972 l 618 972 l 618 333 l 743 333 l 743 229 l 618 229 l 618 0 m 201 333 l 500 333 l 500 833 l 493 833 "},"5":{"ha":833,"x_min":0,"x_max":0,"o":"m 211 56 b 97 257 151 101 114 168 l 215 257 b 290 133 228 203 253 163 b 417 90 328 104 369 90 b 568 150 479 90 531 110 b 625 313 606 190 625 244 b 568 479 625 382 606 438 b 417 542 531 521 479 542 b 229 438 336 542 274 507 l 118 438 l 167 972 l 688 972 l 688 868 l 269 868 l 243 576 l 250 576 b 438 646 303 622 365 646 b 594 604 494 646 547 632 b 704 488 640 576 678 538 b 743 313 731 436 743 378 b 656 74 743 211 714 132 b 417 -14 597 15 518 -14 b 211 56 339 -14 271 10 "},"6":{"ha":833,"x_min":0,"x_max":0,"o":"m 174 76 b 83 326 114 136 83 219 b 178 625 83 425 115 524 l 396 972 l 528 972 l 271 576 l 278 576 b 346 613 296 592 318 603 b 431 625 372 621 401 625 b 596 585 492 625 547 611 b 710 472 644 558 682 521 b 750 306 736 424 750 368 b 708 140 750 243 736 189 b 592 26 681 92 642 53 b 417 -14 540 0 482 -14 b 174 76 315 -14 233 17 m 572 151 b 632 306 613 192 632 243 b 572 461 632 368 613 421 b 417 521 532 501 479 521 b 263 461 354 521 303 501 b 201 306 222 421 201 368 b 263 151 201 243 222 192 b 417 90 303 111 354 90 b 572 151 479 90 532 111 "},"7":{"ha":833,"x_min":0,"x_max":0,"o":"m 215 0 l 597 868 l 97 868 l 97 972 l 722 972 l 722 868 l 340 0 "},"8":{"ha":833,"x_min":0,"x_max":0,"o":"m 250 24 b 138 126 201 49 164 83 b 97 271 111 169 97 218 b 146 414 97 322 114 369 b 257 500 178 457 214 486 b 158 586 218 519 185 549 b 118 715 132 624 118 667 b 156 854 118 767 131 813 b 261 951 181 894 215 928 b 417 986 306 975 357 986 b 574 951 476 986 528 975 b 678 854 618 928 653 894 b 715 715 703 813 715 767 b 675 586 715 667 701 624 b 576 500 649 549 615 519 b 689 414 619 486 657 457 b 736 271 721 369 736 322 b 697 126 736 218 724 169 b 585 24 671 83 633 49 b 417 -14 536 -1 479 -14 b 250 24 354 -14 299 -1 m 549 596 b 597 715 581 626 597 667 b 549 836 597 764 581 804 b 417 882 515 867 471 882 b 286 836 363 882 318 867 b 236 715 253 804 236 764 b 286 596 236 667 253 626 b 417 549 318 564 363 549 b 549 596 471 549 515 564 m 564 142 b 618 271 600 175 618 218 b 564 401 618 324 600 367 b 417 451 526 435 478 451 b 271 401 356 451 307 435 b 215 271 233 367 215 324 b 271 142 215 218 233 175 b 417 90 307 107 356 90 b 564 142 478 90 526 107 "},"9":{"ha":833,"x_min":0,"x_max":0,"o":"m 563 396 l 556 396 b 485 360 536 379 513 367 b 403 347 457 351 429 347 b 239 388 342 347 288 361 b 125 500 190 414 151 451 b 83 667 97 549 83 604 b 125 833 83 729 97 785 b 243 946 153 882 192 919 b 417 986 293 972 351 986 b 660 896 518 986 600 956 b 750 646 719 836 750 753 b 656 347 750 547 718 449 l 438 0 l 306 0 m 572 513 b 632 667 613 553 632 604 b 572 822 632 729 613 782 b 417 882 532 863 479 882 b 263 822 354 882 303 863 b 201 667 222 782 201 729 b 263 513 201 604 222 553 b 417 451 303 472 354 451 b 572 513 479 451 532 472 "},"\u0000":{"ha":0,"x_min":0,"x_max":0,"o":""},"\r":{"ha":833,"x_min":0,"x_max":0,"o":""}," ":{"ha":833,"x_min":0,"x_max":0,"o":""},"!":{"ha":833,"x_min":0,"x_max":0,"o":"m 375 278 l 354 903 l 354 972 l 479 972 l 479 903 l 458 278 m 364 17 b 340 69 349 32 340 49 b 364 124 340 90 349 108 b 417 146 379 139 396 146 b 471 124 438 146 456 139 b 493 69 486 108 493 90 b 471 17 493 49 486 32 b 417 -7 456 1 438 -7 b 364 17 396 -7 379 1 "},"\"":{"ha":833,"x_min":0,"x_max":0,"o":"m 257 667 l 257 972 l 361 972 l 361 667 m 472 667 l 472 972 l 576 972 l 576 667 "},"#":{"ha":833,"x_min":0,"x_max":0,"o":"m 743 583 l 607 583 l 567 389 l 701 389 l 681 292 l 546 292 l 483 0 l 379 0 l 442 292 l 310 292 l 247 0 l 143 0 l 206 292 l 69 292 l 90 389 l 226 389 l 267 583 l 132 583 l 153 681 l 288 681 l 350 972 l 454 972 l 392 681 l 524 681 l 586 972 l 690 972 l 628 681 l 764 681 m 463 389 l 503 583 l 371 583 l 331 389 "},"$":{"ha":833,"x_min":0,"x_max":0,"o":"m 718 133 b 622 33 697 93 665 60 b 465 -12 579 7 526 -8 l 465 -153 l 361 -153 l 361 -10 b 169 79 282 1 218 31 b 83 264 121 126 92 188 l 201 264 b 278 135 211 207 238 164 b 431 90 318 106 369 90 b 579 136 494 90 544 106 b 632 264 614 165 632 208 b 603 349 632 299 622 328 b 532 399 583 369 560 386 b 411 436 503 410 463 422 b 256 488 347 453 296 469 b 154 571 215 506 182 533 b 111 722 125 608 111 658 b 178 896 111 790 133 847 b 361 983 222 944 283 974 l 361 1125 l 465 1125 l 465 983 b 649 908 542 976 603 951 b 729 736 694 865 721 807 l 611 736 b 549 843 604 781 583 817 b 417 882 514 869 469 882 b 278 838 357 882 310 867 b 229 722 246 808 229 769 b 260 631 229 685 239 654 b 335 578 281 607 306 590 b 460 538 364 565 406 553 b 611 488 522 521 572 504 b 710 408 650 469 683 443 b 750 264 736 372 750 324 b 718 133 750 217 739 174 "},"%":{"ha":833,"x_min":0,"x_max":0,"o":"m 129 682 b 81 806 97 715 81 757 b 129 929 81 854 97 896 b 247 979 161 963 200 979 b 367 929 296 979 335 963 b 414 806 399 896 414 854 b 367 682 414 757 399 715 b 247 632 335 649 296 632 b 129 682 200 632 161 649 m 444 556 l 632 972 l 771 972 l 500 556 m 308 735 b 331 806 324 751 331 775 b 308 878 331 836 324 860 b 247 903 293 894 272 903 b 188 878 222 903 203 894 b 164 806 172 860 164 836 b 188 735 164 775 172 751 b 247 708 203 717 222 708 b 308 735 272 708 293 717 m 63 0 l 333 417 l 389 417 l 201 0 m 468 43 b 419 167 436 76 419 118 b 468 290 419 215 436 257 b 586 340 500 324 539 340 b 706 290 635 340 674 324 b 753 167 738 257 753 215 b 706 43 753 118 738 76 b 586 -7 674 10 635 -7 b 468 43 539 -7 500 10 m 647 96 b 669 167 663 113 669 136 b 647 239 669 197 663 221 b 586 264 632 256 611 264 b 526 239 561 264 542 256 b 503 167 511 221 503 197 b 526 96 503 136 511 113 b 586 69 542 78 561 69 b 647 96 611 69 632 78 "},"&":{"ha":833,"x_min":0,"x_max":0,"o":"m 639 185 l 786 0 l 644 0 l 564 101 b 440 14 521 61 481 32 b 318 -14 400 -4 360 -14 b 189 15 269 -14 226 -4 b 101 97 151 35 122 63 b 69 215 81 132 69 171 b 106 342 69 258 82 301 b 226 476 129 382 169 428 l 251 497 l 233 519 b 156 643 197 565 171 607 b 132 750 140 678 132 714 b 163 875 132 797 142 839 b 246 957 183 910 211 938 b 361 986 281 976 318 986 b 521 928 425 986 478 967 b 583 771 563 888 583 836 b 546 638 583 722 571 678 b 419 504 521 597 479 553 l 399 488 l 576 264 l 676 403 l 806 403 m 279 847 b 250 757 260 824 250 794 b 269 669 250 726 257 697 b 335 567 282 640 303 607 l 383 610 b 446 686 413 635 433 660 b 465 771 458 713 465 740 b 439 853 465 806 457 833 b 361 882 421 872 396 882 b 279 847 325 882 297 871 m 315 417 l 304 407 b 213 308 258 369 228 338 b 188 215 196 279 188 249 b 226 126 188 179 200 150 b 325 90 253 103 285 90 b 504 178 385 90 444 119 "},"'":{"ha":833,"x_min":0,"x_max":0,"o":"m 365 667 l 365 972 l 469 972 l 469 667 "},"(":{"ha":833,"x_min":0,"x_max":0,"o":"m 493 -278 b 361 13 436 -196 393 -100 b 313 368 329 124 313 242 b 361 725 313 494 329 613 b 493 1014 393 836 436 932 l 604 1014 b 472 725 547 932 504 836 b 424 368 440 613 424 494 b 472 13 424 242 440 124 b 604 -278 504 -100 547 -196 l 493 -278 "},")":{"ha":833,"x_min":0,"x_max":0,"o":"m 229 -278 b 363 13 286 -196 331 -100 b 410 368 394 124 410 242 b 363 725 410 494 394 613 b 229 1014 331 836 286 932 l 340 1014 b 474 725 397 932 442 836 b 521 368 506 613 521 494 b 474 13 521 242 506 124 b 340 -278 442 -100 397 -196 l 229 -278 "},"*":{"ha":833,"x_min":0,"x_max":0,"o":"m 306 458 l 215 521 l 354 681 l 146 736 l 181 840 l 375 764 l 361 972 l 472 972 l 458 764 l 653 840 l 688 736 l 479 681 l 618 521 l 528 458 l 417 632 "},"+":{"ha":833,"x_min":0,"x_max":0,"o":"m 750 476 l 750 385 l 463 385 l 463 97 l 371 97 l 371 385 l 83 385 l 83 476 l 371 476 l 371 764 l 463 764 l 463 476 "},",":{"ha":833,"x_min":0,"x_max":0,"o":"m 319 -139 l 375 139 l 486 139 l 403 -139 "},"-":{"ha":833,"x_min":0,"x_max":0,"o":"m 208 313 l 208 410 l 625 410 l 625 313 "},".":{"ha":833,"x_min":0,"x_max":0,"o":"m 364 17 b 340 69 349 32 340 49 b 364 124 340 90 349 108 b 417 146 379 139 396 146 b 471 124 438 146 456 139 b 493 69 486 108 493 90 b 471 17 493 49 486 32 b 417 -7 456 1 438 -7 b 364 17 396 -7 379 1 "},"/":{"ha":833,"x_min":0,"x_max":0,"o":"m 125 -278 l 528 1014 l 639 1014 l 236 -278 "},":":{"ha":833,"x_min":0,"x_max":0,"o":"m 364 593 b 340 646 349 608 340 625 b 364 700 340 667 349 685 b 417 722 379 715 396 722 b 471 700 438 722 456 715 b 493 646 486 685 493 667 b 471 593 493 625 486 608 b 417 569 456 578 438 569 b 364 593 396 569 379 578 m 364 17 b 340 69 349 32 340 49 b 364 124 340 90 349 108 b 417 146 379 139 396 146 b 471 124 438 146 456 139 b 493 69 486 108 493 90 b 471 17 493 49 486 32 b 417 -7 456 1 438 -7 b 364 17 396 -7 379 1 "},";":{"ha":833,"x_min":0,"x_max":0,"o":"m 371 593 b 347 646 356 608 347 625 b 371 700 347 667 356 685 b 424 722 386 715 403 722 b 478 700 444 722 463 715 b 500 646 493 685 500 667 b 478 593 500 625 493 608 b 424 569 463 578 444 569 b 371 593 403 569 386 578 m 319 -139 l 375 139 l 486 139 l 403 -139 "},"<":{"ha":833,"x_min":0,"x_max":0,"o":"m 708 97 l 125 382 l 125 479 l 708 764 l 708 660 l 231 431 l 708 201 "},"=":{"ha":833,"x_min":0,"x_max":0,"o":"m 90 519 l 90 611 l 743 611 l 743 519 m 90 243 l 90 335 l 743 335 l 743 243 "},">":{"ha":833,"x_min":0,"x_max":0,"o":"m 125 97 l 125 201 l 603 431 l 125 660 l 125 764 l 708 479 l 708 382 "},"?":{"ha":833,"x_min":0,"x_max":0,"o":"m 347 347 b 364 439 347 383 353 414 b 404 501 375 464 389 485 b 468 557 419 517 442 536 b 526 607 493 576 513 593 b 563 660 540 621 553 639 b 576 736 572 681 576 707 b 531 847 576 782 561 819 b 403 889 500 875 457 889 b 307 865 365 889 333 881 b 249 806 281 850 261 829 b 229 729 236 781 229 756 l 118 729 b 151 854 118 774 129 815 b 249 950 174 893 206 925 b 403 986 292 974 343 986 b 613 917 492 986 561 963 b 688 736 663 871 688 810 b 671 638 688 697 682 664 b 628 571 658 610 644 588 b 561 513 611 553 589 533 b 483 438 526 485 500 460 b 458 347 467 415 458 385 l 458 278 l 347 278 l 347 347 m 350 17 b 326 69 335 32 326 49 b 350 124 326 90 335 108 b 403 146 365 139 382 146 b 457 124 424 146 442 139 b 479 69 472 108 479 90 b 457 17 479 49 472 32 b 403 -7 442 1 424 -7 b 350 17 382 -7 365 1 "},"@":{"ha":833,"x_min":0,"x_max":0,"o":"m 451 -146 b 221 -83 363 -146 286 -125 b 72 100 156 -40 107 21 b 21 382 38 179 21 272 b 71 660 21 488 38 581 b 210 844 103 739 150 801 b 417 910 269 888 338 910 b 625 846 496 910 565 889 b 764 663 685 803 731 742 b 813 389 796 583 813 493 b 767 169 813 294 797 221 b 647 90 736 117 696 90 b 569 117 615 90 589 99 b 535 174 550 133 539 153 l 528 174 b 467 114 513 150 493 129 b 389 90 440 99 414 90 b 251 164 329 90 283 115 b 201 368 218 213 201 281 b 250 572 201 454 218 522 b 382 646 282 621 326 646 b 514 583 433 646 478 625 l 521 583 l 535 653 l 597 653 l 597 265 b 647 174 597 204 614 174 b 722 389 697 174 722 246 b 685 621 722 476 710 554 b 578 774 660 686 624 738 b 417 826 532 808 478 826 b 256 772 356 826 301 808 b 149 617 210 735 174 683 b 111 382 124 550 111 472 b 200 53 111 239 140 129 b 451 -62 258 -24 342 -62 l 542 -62 l 542 -146 l 451 -146 m 514 368 b 403 569 514 503 476 569 b 292 368 329 569 292 503 b 403 167 292 233 329 167 b 514 368 476 167 514 233 "},"A":{"ha":833,"x_min":0,"x_max":0,"o":"m 671 0 l 594 243 l 239 243 l 163 0 l 42 0 l 354 972 l 479 972 l 792 0 m 272 347 l 561 347 l 446 715 l 424 854 l 410 854 l 388 715 "},"B":{"ha":833,"x_min":0,"x_max":0,"o":"m 718 407 b 757 271 744 365 757 319 b 681 75 757 189 732 124 b 472 0 629 25 560 0 l 118 0 l 118 972 l 458 972 b 610 939 515 972 567 961 b 708 843 653 915 685 883 b 743 701 732 801 743 754 b 710 579 743 658 732 617 b 619 494 686 540 657 513 b 718 407 658 478 692 449 m 236 535 l 451 535 b 578 581 504 535 546 550 b 625 701 610 611 625 651 b 578 822 625 751 610 792 b 451 868 546 853 504 868 l 236 868 m 465 104 b 592 150 518 104 560 119 b 639 271 624 181 639 221 b 592 392 639 321 624 361 b 465 438 560 422 518 438 l 236 438 l 236 104 l 465 104 "},"C":{"ha":833,"x_min":0,"x_max":0,"o":"m 240 40 b 115 207 188 76 146 132 b 69 486 85 281 69 374 b 115 767 69 599 85 692 b 240 932 146 840 188 896 b 424 986 293 968 354 986 b 631 917 506 986 575 963 b 751 715 686 871 726 803 l 633 715 b 553 839 615 769 588 810 b 424 882 518 868 475 882 b 253 788 353 882 296 850 b 188 486 210 725 188 624 b 253 185 188 349 210 247 b 424 90 296 122 353 90 b 564 143 478 90 525 108 b 646 306 601 178 629 232 l 764 306 b 640 65 740 197 699 117 b 424 -14 582 13 510 -14 b 240 40 354 -14 293 4 "},"D":{"ha":833,"x_min":0,"x_max":0,"o":"m 118 972 l 333 972 b 564 915 421 972 499 953 b 717 750 629 878 681 822 b 771 486 753 676 771 589 b 717 224 771 383 753 296 b 564 57 681 150 629 94 b 333 0 499 19 421 0 l 118 0 m 333 104 b 500 149 396 104 451 119 b 613 278 549 178 586 221 b 653 486 639 335 653 404 b 613 694 653 568 639 638 b 500 825 586 751 549 796 b 333 868 451 854 396 868 l 236 868 l 236 104 l 333 104 "},"E":{"ha":833,"x_min":0,"x_max":0,"o":"m 250 104 l 729 104 l 729 0 l 132 0 l 132 972 l 715 972 l 715 868 l 250 868 l 250 542 l 688 542 l 688 438 l 250 438 "},"F":{"ha":833,"x_min":0,"x_max":0,"o":"m 736 868 l 271 868 l 271 528 l 701 528 l 701 424 l 271 424 l 271 0 l 153 0 l 153 972 l 736 972 "},"G":{"ha":833,"x_min":0,"x_max":0,"o":"m 233 40 b 108 207 181 76 139 132 b 63 486 78 281 63 374 b 108 767 63 599 78 692 b 233 932 139 840 181 896 b 417 986 286 968 347 986 b 624 917 499 986 568 963 b 744 715 679 871 719 803 l 626 715 b 546 839 608 769 581 810 b 417 882 511 868 468 882 b 246 788 346 882 289 850 b 181 486 203 725 181 624 b 246 185 181 349 203 247 b 417 90 289 122 346 90 b 579 174 485 90 539 118 b 647 389 619 229 643 301 l 444 389 l 444 493 l 771 493 l 771 472 b 733 229 771 383 758 303 b 617 53 708 156 669 97 b 417 -14 563 8 496 -14 b 233 40 347 -14 286 4 "},"H":{"ha":833,"x_min":0,"x_max":0,"o":"m 597 972 l 715 972 l 715 0 l 597 0 l 597 438 l 236 438 l 236 0 l 118 0 l 118 972 l 236 972 l 236 542 l 597 542 "},"I":{"ha":833,"x_min":0,"x_max":0,"o":"m 146 0 l 146 104 l 358 104 l 358 868 l 146 868 l 146 972 l 688 972 l 688 868 l 476 868 l 476 104 l 688 104 l 688 0 "},"J":{"ha":833,"x_min":0,"x_max":0,"o":"m 158 58 b 63 271 104 106 72 176 l 181 271 b 242 138 188 214 207 169 b 368 90 276 106 318 90 b 511 154 429 90 476 111 b 563 333 546 196 563 256 l 563 868 l 215 868 l 215 972 l 681 972 l 681 333 b 596 76 681 222 653 136 b 368 -14 539 17 464 -14 b 158 58 282 -14 213 10 "},"K":{"ha":833,"x_min":0,"x_max":0,"o":"m 799 0 l 656 0 l 250 481 l 250 0 l 132 0 l 132 972 l 250 972 l 250 507 l 639 972 l 778 972 l 376 494 "},"L":{"ha":833,"x_min":0,"x_max":0,"o":"m 153 0 l 153 972 l 271 972 l 271 104 l 757 104 l 757 0 "},"M":{"ha":833,"x_min":0,"x_max":0,"o":"m 90 0 l 90 972 l 247 972 l 414 514 l 421 514 l 586 972 l 743 972 l 743 0 l 625 0 l 625 583 l 653 826 l 639 826 l 460 333 l 374 333 l 194 826 l 181 826 l 208 583 l 208 0 "},"N":{"ha":833,"x_min":0,"x_max":0,"o":"m 118 0 l 118 972 l 286 972 l 618 125 l 632 125 l 597 361 l 597 972 l 715 972 l 715 0 l 547 0 l 215 847 l 201 847 l 236 611 l 236 0 "},"O":{"ha":833,"x_min":0,"x_max":0,"o":"m 233 40 b 108 207 181 76 139 132 b 63 486 78 281 63 374 b 108 767 63 599 78 692 b 233 932 139 840 181 896 b 417 986 286 968 347 986 b 600 932 486 986 547 968 b 725 767 653 896 694 840 b 771 486 756 692 771 599 b 725 207 771 374 756 281 b 600 40 694 132 653 76 b 417 -14 547 4 486 -14 b 233 40 347 -14 286 4 m 593 192 b 653 486 633 260 653 357 b 593 781 653 615 633 713 b 417 882 553 849 493 882 b 242 781 340 882 282 849 b 181 486 201 713 181 615 b 242 192 181 357 201 260 b 417 90 282 124 340 90 b 593 192 493 90 553 124 "},"P":{"ha":833,"x_min":0,"x_max":0,"o":"m 125 972 l 451 972 b 617 933 514 972 569 960 b 726 824 664 907 700 869 b 764 667 751 778 764 725 b 726 510 764 608 751 556 b 617 401 700 464 664 428 b 451 361 569 375 514 361 l 243 361 l 243 0 l 125 0 m 444 465 b 593 519 507 465 557 483 b 646 667 628 556 646 604 b 593 815 646 729 628 779 b 444 868 557 850 507 868 l 243 868 l 243 465 l 444 465 "},"Q":{"ha":833,"x_min":0,"x_max":0,"o":"m 731 221 b 618 54 704 149 667 93 l 722 -139 l 604 -139 l 528 4 b 417 -14 494 -8 457 -14 b 233 40 347 -14 286 4 b 108 207 181 76 139 132 b 63 486 78 281 63 374 b 108 767 63 599 78 692 b 233 932 139 840 181 896 b 417 986 286 968 347 986 b 600 932 486 986 547 968 b 725 767 653 896 694 840 b 771 486 756 692 771 599 b 731 221 771 382 757 293 m 361 313 l 479 313 l 564 154 b 653 486 624 219 653 329 b 593 781 653 615 633 713 b 417 882 553 849 493 882 b 242 781 340 882 282 849 b 181 486 201 713 181 615 b 242 192 181 357 201 260 b 417 90 282 124 340 90 b 476 99 439 90 458 93 "},"R":{"ha":833,"x_min":0,"x_max":0,"o":"m 639 0 l 369 389 l 236 389 l 236 0 l 118 0 l 118 972 l 458 972 b 621 936 521 972 575 960 b 726 833 667 911 701 876 b 764 681 751 789 764 738 b 694 483 764 601 740 535 b 504 392 649 432 585 401 l 778 0 m 236 493 l 451 493 b 596 543 514 493 561 510 b 646 681 629 575 646 621 b 596 819 646 740 629 786 b 451 868 561 851 514 868 l 236 868 "},"S":{"ha":833,"x_min":0,"x_max":0,"o":"m 190 60 b 83 264 128 108 93 176 l 201 264 b 276 136 211 208 236 165 b 431 90 317 106 368 90 b 579 136 494 90 544 106 b 632 264 614 165 632 208 b 603 349 632 299 622 328 b 532 399 583 369 560 386 b 411 436 503 410 463 422 b 256 488 347 453 296 469 b 154 571 215 506 182 533 b 111 722 125 608 111 658 b 150 860 111 774 124 819 b 257 953 175 900 211 931 b 417 986 303 975 357 986 b 632 921 504 986 576 964 b 729 736 688 876 719 815 l 611 736 b 549 843 604 781 583 817 b 417 882 514 869 469 882 b 281 839 360 882 314 868 b 229 722 246 810 229 771 b 260 631 229 685 239 654 b 335 578 281 607 306 590 b 460 538 364 565 406 553 b 611 488 522 521 572 504 b 710 408 650 469 683 443 b 750 264 736 372 750 324 b 711 119 750 210 738 161 b 599 21 685 76 647 44 b 431 -14 550 -3 493 -14 b 190 60 332 -14 251 11 "},"T":{"ha":833,"x_min":0,"x_max":0,"o":"m 358 0 l 358 868 l 167 868 l 167 701 l 63 701 l 63 972 l 771 972 l 771 701 l 667 701 l 667 868 l 476 868 l 476 0 "},"U":{"ha":833,"x_min":0,"x_max":0,"o":"m 186 79 b 104 361 132 142 104 235 l 104 972 l 222 972 l 222 361 b 417 90 222 181 288 90 b 611 361 546 90 611 181 l 611 972 l 729 972 l 729 361 b 649 79 729 235 703 142 b 417 -14 594 17 517 -14 b 186 79 317 -14 240 17 "},"V":{"ha":833,"x_min":0,"x_max":0,"o":"m 340 0 l 56 972 l 181 972 l 378 271 l 406 118 l 426 118 l 456 271 l 653 972 l 778 972 l 493 0 "},"W":{"ha":833,"x_min":0,"x_max":0,"o":"m 163 0 l 49 972 l 161 972 l 217 444 l 225 160 l 239 160 l 339 722 l 494 722 l 594 160 l 608 160 l 617 444 l 672 972 l 785 972 l 671 0 l 525 0 l 421 604 l 414 604 l 308 0 "},"X":{"ha":833,"x_min":0,"x_max":0,"o":"m 42 0 l 347 500 l 56 972 l 188 972 l 368 674 l 410 576 l 424 576 l 465 674 l 646 972 l 778 972 l 486 500 l 792 0 l 660 0 l 465 326 l 424 424 l 410 424 l 368 326 l 174 0 "},"Y":{"ha":833,"x_min":0,"x_max":0,"o":"m 358 0 l 358 375 l 60 972 l 185 972 l 375 569 l 411 458 l 425 458 l 461 569 l 650 972 l 775 972 l 476 375 l 476 0 "},"Z":{"ha":833,"x_min":0,"x_max":0,"o":"m 83 0 l 83 83 l 597 868 l 97 868 l 97 972 l 743 972 l 743 889 l 229 104 l 750 104 l 750 0 "},"[":{"ha":833,"x_min":0,"x_max":0,"o":"m 313 -278 l 313 1014 l 590 1014 l 590 910 l 424 910 l 424 -174 l 590 -174 l 590 -278 "},"\\":{"ha":833,"x_min":0,"x_max":0,"o":"m 597 -278 l 194 1014 l 306 1014 l 708 -278 "},"]":{"ha":833,"x_min":0,"x_max":0,"o":"m 243 -278 l 243 -174 l 410 -174 l 410 910 l 243 910 l 243 1014 l 521 1014 l 521 -278 "},"^":{"ha":833,"x_min":0,"x_max":0,"o":"m 157 528 l 365 972 l 469 972 l 678 528 l 576 528 l 421 868 l 414 868 l 258 528 "},"_":{"ha":833,"x_min":0,"x_max":0,"o":"m 125 -201 l 125 -104 l 708 -104 l 708 -201 "},"`":{"ha":833,"x_min":0,"x_max":0,"o":"m 447 833 l 288 1028 l 419 1028 l 544 833 "},"a":{"ha":833,"x_min":0,"x_max":0,"o":"m 239 15 b 156 96 203 35 175 61 b 125 208 135 129 125 167 b 157 322 125 250 136 288 b 246 401 178 356 207 382 b 382 431 285 421 331 431 l 569 431 l 569 479 b 526 596 569 528 556 567 b 410 639 497 625 458 639 b 313 614 372 639 339 631 b 257 535 286 597 267 571 l 153 535 b 239 683 163 597 192 647 b 410 736 285 718 342 736 b 601 665 489 736 553 713 b 674 479 650 618 674 556 l 674 0 l 590 0 l 576 90 l 569 90 b 490 18 551 64 525 39 b 361 -14 454 -3 411 -14 b 239 15 315 -14 275 -4 m 514 140 b 569 285 551 178 569 226 l 569 333 l 382 333 b 268 300 331 333 293 322 b 229 208 242 278 229 247 b 267 117 229 169 242 139 b 375 83 292 94 328 83 b 514 140 431 83 476 103 "},"b":{"ha":833,"x_min":0,"x_max":0,"o":"m 236 97 l 222 0 l 139 0 l 139 972 l 243 972 l 243 632 l 250 632 b 451 736 304 701 371 736 b 599 694 506 736 556 722 b 700 568 642 665 675 624 b 736 361 724 511 736 443 b 700 156 736 279 724 211 b 599 29 675 99 642 57 b 451 -14 556 0 506 -14 b 243 97 364 -14 294 24 m 536 115 b 606 208 565 136 588 167 b 632 361 624 250 632 301 b 606 514 632 421 624 472 b 536 608 588 556 565 588 b 438 639 507 629 474 639 b 340 608 401 639 369 629 b 269 514 311 588 288 556 b 243 361 251 472 243 421 b 269 208 243 301 251 250 b 340 115 288 167 311 136 b 438 83 369 94 401 83 b 536 115 474 83 507 94 "},"c":{"ha":833,"x_min":0,"x_max":0,"o":"m 275 32 b 160 161 226 61 188 104 b 118 361 132 218 118 285 b 160 561 118 438 132 504 b 275 692 188 618 226 661 b 438 736 324 721 378 736 b 615 679 507 736 567 717 b 715 535 664 642 697 593 l 611 535 b 544 610 599 565 576 590 b 438 639 511 629 475 639 b 329 607 397 639 361 628 b 251 511 296 585 269 553 b 222 361 232 469 222 419 b 251 211 222 303 232 253 b 329 117 269 169 296 138 b 438 83 361 94 397 83 b 543 113 475 83 511 93 b 611 188 575 132 599 157 l 715 188 b 615 43 697 129 664 81 b 438 -14 567 6 507 -14 b 275 32 378 -14 324 1 "},"d":{"ha":833,"x_min":0,"x_max":0,"o":"m 236 29 b 135 156 193 57 158 99 b 97 361 110 211 97 279 b 135 568 97 443 110 511 b 236 694 158 624 193 665 b 382 736 279 722 328 736 b 583 632 463 736 529 701 l 590 632 l 590 972 l 694 972 l 694 0 l 611 0 l 597 97 l 590 97 b 382 -14 539 24 469 -14 b 236 29 328 -14 279 0 m 494 115 b 564 208 524 136 546 167 b 590 361 582 250 590 301 b 564 514 590 421 582 472 b 494 608 546 556 524 588 b 396 639 465 629 432 639 b 299 608 360 639 328 629 b 228 514 269 588 246 556 b 201 361 210 472 201 421 b 228 208 201 301 210 250 b 299 115 246 167 269 136 b 396 83 328 94 360 83 b 494 115 432 83 465 94 "},"e":{"ha":833,"x_min":0,"x_max":0,"o":"m 203 333 b 268 149 207 254 228 192 b 417 83 307 106 357 83 b 518 111 454 83 488 93 b 594 188 549 129 574 156 l 706 188 b 593 40 682 125 644 76 b 417 -14 542 4 482 -14 b 251 32 354 -14 300 1 b 139 161 203 61 165 104 b 97 361 111 218 97 285 b 139 561 97 438 111 504 b 254 692 167 618 206 661 b 417 736 303 721 357 736 b 579 693 476 736 531 722 b 694 572 628 664 665 624 b 736 403 722 521 736 465 b 729 333 736 382 733 360 m 632 424 b 565 578 626 486 604 538 b 417 639 525 618 476 639 b 276 585 361 639 314 621 b 206 424 238 547 214 494 l 632 424 "},"f":{"ha":833,"x_min":0,"x_max":0,"o":"m 514 875 b 454 851 490 875 469 867 b 431 792 439 836 431 815 l 431 722 l 674 722 l 674 625 l 431 625 l 431 97 l 611 97 l 611 0 l 160 0 l 160 97 l 326 97 l 326 625 l 146 625 l 146 722 l 326 722 l 326 792 b 378 921 326 843 343 886 b 507 972 413 956 456 972 l 715 972 l 715 875 l 514 875 "},"g":{"ha":833,"x_min":0,"x_max":0,"o":"m 218 -222 b 111 -62 164 -185 128 -132 l 219 -62 b 292 -150 232 -100 257 -129 b 403 -181 326 -171 363 -181 b 540 -129 460 -181 506 -164 b 590 14 574 -94 590 -46 l 590 139 l 583 139 b 496 67 560 107 531 83 b 382 42 461 50 424 42 b 239 83 329 42 282 56 b 136 204 196 111 161 151 b 97 389 110 257 97 318 b 136 574 97 460 110 521 b 239 694 161 626 196 667 b 382 736 282 722 329 736 b 499 708 422 736 461 726 b 590 632 535 690 565 664 l 597 632 l 611 722 l 694 722 l 694 14 b 615 -199 694 -75 668 -146 b 403 -278 563 -251 492 -278 b 218 -222 333 -278 272 -260 m 493 169 b 564 256 522 189 546 218 b 590 389 582 293 590 338 b 564 524 590 440 582 486 b 493 610 546 561 522 589 b 396 639 464 629 431 639 b 257 574 340 639 294 617 b 201 389 219 529 201 468 b 257 206 201 310 219 249 b 396 139 294 161 340 139 b 493 169 431 139 464 149 "},"h":{"ha":833,"x_min":0,"x_max":0,"o":"m 139 972 l 243 972 l 243 625 l 250 625 b 329 710 269 664 296 692 b 438 736 363 728 399 736 b 569 701 486 736 531 725 b 661 600 608 678 639 643 b 694 444 683 556 694 504 l 694 0 l 590 0 l 590 444 b 544 588 590 506 575 553 b 424 639 514 622 474 639 b 332 613 389 639 358 631 b 267 542 304 594 282 571 b 243 444 251 511 243 479 l 243 0 l 139 0 "},"i":{"ha":833,"x_min":0,"x_max":0,"o":"m 160 0 l 160 97 l 375 97 l 375 625 l 215 625 l 215 722 l 479 722 l 479 97 l 681 97 l 681 0 m 376 876 b 354 926 361 890 354 907 b 376 979 354 947 361 964 b 428 1000 390 993 407 1000 b 479 979 449 1000 465 993 b 500 926 493 964 500 947 b 479 876 500 907 493 890 b 428 854 465 861 449 854 b 376 876 407 854 390 861 "},"j":{"ha":833,"x_min":0,"x_max":0,"o":"m 164 -219 b 97 -69 124 -181 101 -131 l 201 -69 b 239 -150 206 -101 218 -129 b 326 -181 260 -171 289 -181 b 418 -147 364 -181 394 -169 b 451 -56 440 -124 451 -93 l 451 625 l 233 625 l 233 722 l 556 722 l 556 -56 b 493 -217 556 -122 535 -176 b 326 -278 451 -257 396 -278 b 164 -219 258 -278 204 -258 m 453 876 b 431 926 438 890 431 907 b 453 979 431 947 438 964 b 504 1000 467 993 483 1000 b 556 979 525 1000 542 993 b 576 926 569 964 576 947 b 556 876 576 907 569 890 b 504 854 542 861 525 854 b 453 876 483 854 467 861 "},"k":{"ha":833,"x_min":0,"x_max":0,"o":"m 764 0 l 632 0 l 271 354 l 271 0 l 167 0 l 167 972 l 271 972 l 271 382 l 611 722 l 743 722 l 388 368 "},"l":{"ha":833,"x_min":0,"x_max":0,"o":"m 160 0 l 160 97 l 375 97 l 375 875 l 222 875 l 222 972 l 479 972 l 479 97 l 681 97 l 681 0 "},"m":{"ha":833,"x_min":0,"x_max":0,"o":"m 83 722 l 167 722 l 181 639 l 188 639 b 319 736 217 704 260 736 b 392 715 343 736 368 729 b 444 639 415 701 432 676 l 451 639 b 510 711 465 669 485 693 b 590 736 535 728 561 736 b 714 679 643 736 685 717 b 757 514 743 642 757 586 l 757 0 l 653 0 l 653 528 b 628 613 653 567 644 594 b 563 639 611 631 589 639 b 493 610 533 639 511 629 b 465 528 475 589 465 563 l 465 0 l 375 0 l 375 528 b 350 613 375 567 367 594 b 285 639 333 631 311 639 b 215 610 256 639 233 629 b 188 528 197 589 188 563 l 188 0 l 83 0 "},"n":{"ha":833,"x_min":0,"x_max":0,"o":"m 139 722 l 222 722 l 236 625 l 243 625 b 329 710 267 664 294 692 b 438 736 364 728 400 736 b 569 701 486 736 531 725 b 661 600 608 678 639 643 b 694 444 683 556 694 504 l 694 0 l 590 0 l 590 444 b 544 588 590 506 575 553 b 424 639 514 622 474 639 b 332 613 389 639 358 631 b 267 542 304 594 282 571 b 243 444 251 511 243 479 l 243 0 l 139 0 "},"o":{"ha":833,"x_min":0,"x_max":0,"o":"m 254 32 b 139 161 206 61 167 104 b 97 361 111 218 97 285 b 139 561 97 438 111 504 b 254 692 167 618 206 661 b 417 736 303 721 357 736 b 581 692 476 736 532 721 b 694 561 629 661 667 618 b 736 361 722 504 736 438 b 694 161 736 285 722 218 b 581 32 667 104 629 61 b 417 -14 532 1 476 -14 b 254 32 357 -14 303 1 m 526 117 b 604 211 558 138 585 169 b 632 361 622 253 632 303 b 604 511 632 419 622 469 b 526 607 585 553 558 585 b 417 639 493 628 457 639 b 308 607 376 639 340 628 b 231 511 275 585 249 553 b 201 361 211 469 201 419 b 231 211 201 303 211 253 b 308 117 249 169 275 138 b 417 83 340 94 376 83 b 526 117 457 83 493 94 "},"p":{"ha":833,"x_min":0,"x_max":0,"o":"m 139 722 l 222 722 l 236 625 l 243 625 b 451 736 294 699 364 736 b 599 694 506 736 556 722 b 700 568 642 665 675 624 b 736 361 724 511 736 443 b 700 156 736 279 724 211 b 599 29 675 99 642 57 b 451 -14 556 0 506 -14 b 250 90 371 -14 304 21 l 243 90 l 243 -278 l 139 -278 m 536 115 b 606 208 565 136 588 167 b 632 361 624 250 632 301 b 606 514 632 421 624 472 b 536 608 588 556 565 588 b 438 639 507 629 474 639 b 340 608 401 639 369 629 b 269 514 311 588 288 556 b 243 361 251 472 243 421 b 269 208 243 301 251 250 b 340 115 288 167 311 136 b 438 83 369 94 401 83 b 536 115 474 83 507 94 "},"q":{"ha":833,"x_min":0,"x_max":0,"o":"m 590 90 l 583 90 b 382 -14 531 21 464 -14 b 236 29 328 -14 279 0 b 135 156 193 57 158 99 b 97 361 110 211 97 279 b 135 568 97 443 110 511 b 236 694 158 624 193 665 b 382 736 279 722 328 736 b 590 625 469 736 539 699 l 597 625 l 611 722 l 694 722 l 694 -278 l 590 -278 m 494 115 b 564 208 524 136 546 167 b 590 361 582 250 590 301 b 564 514 590 421 582 472 b 494 608 546 556 524 588 b 396 639 465 629 432 639 b 299 608 360 639 328 629 b 228 514 269 588 246 556 b 201 361 210 472 201 421 b 228 208 201 301 210 250 b 299 115 246 167 269 136 b 396 83 328 94 360 83 b 494 115 432 83 465 94 "},"r":{"ha":833,"x_min":0,"x_max":0,"o":"m 132 97 l 306 97 l 306 625 l 160 625 l 160 722 l 389 722 l 403 625 l 410 625 b 488 700 431 660 456 685 b 604 722 519 715 558 722 l 708 722 l 708 625 l 604 625 b 467 575 550 625 504 608 b 410 443 429 540 410 497 l 410 97 l 632 97 l 632 0 l 132 0 "},"s":{"ha":833,"x_min":0,"x_max":0,"o":"m 218 44 b 125 208 163 83 132 138 l 229 208 b 293 117 236 168 257 138 b 424 83 329 94 372 83 b 561 114 486 83 532 93 b 604 194 590 135 604 161 b 579 254 604 219 596 239 b 517 289 563 269 542 281 b 415 314 492 296 458 304 b 276 351 358 326 311 339 b 185 415 240 364 210 386 b 146 535 158 444 146 483 b 176 635 146 571 156 604 b 267 708 197 665 226 690 b 410 736 307 726 354 736 b 599 686 483 736 547 719 b 688 535 650 653 679 603 l 583 535 b 528 611 576 567 557 592 b 410 639 497 629 458 639 b 292 611 358 639 319 629 b 250 535 264 592 250 567 b 276 471 250 508 258 486 b 340 435 293 456 314 443 b 446 406 365 425 400 415 b 583 368 503 393 549 381 b 672 307 618 356 647 335 b 708 194 696 279 708 242 b 635 44 708 133 683 83 b 424 -14 585 6 514 -14 b 218 44 342 -14 272 6 "},"t":{"ha":833,"x_min":0,"x_max":0,"o":"m 335 47 b 271 201 292 88 271 139 l 271 625 l 90 625 l 90 722 l 271 722 l 285 917 l 375 917 l 375 722 l 646 722 l 646 625 l 375 625 l 375 208 b 410 118 375 171 386 140 b 500 83 432 94 463 83 b 588 113 536 83 565 93 b 625 181 608 131 621 154 l 729 181 b 663 43 725 126 703 81 b 500 -14 621 6 567 -14 b 335 47 432 -14 376 7 "},"u":{"ha":833,"x_min":0,"x_max":0,"o":"m 264 22 b 172 124 225 46 194 79 b 139 278 150 167 139 218 l 139 722 l 243 722 l 243 278 b 289 135 243 217 258 169 b 410 83 319 100 360 83 b 503 110 444 83 475 92 b 567 182 529 128 551 151 b 590 278 582 211 590 243 l 590 722 l 694 722 l 694 0 l 611 0 l 597 97 l 590 97 b 506 13 567 58 539 31 b 396 -14 471 -6 435 -14 b 264 22 347 -14 303 -3 "},"v":{"ha":833,"x_min":0,"x_max":0,"o":"m 354 0 l 90 722 l 201 722 l 382 215 l 410 111 l 424 111 l 453 215 l 632 722 l 743 722 l 479 0 "},"w":{"ha":833,"x_min":0,"x_max":0,"o":"m 160 0 l 35 722 l 135 722 l 218 222 l 215 111 l 229 111 l 357 569 l 476 569 l 604 111 l 618 111 l 615 222 l 699 722 l 799 722 l 674 0 l 544 0 l 424 438 l 410 438 l 289 0 "},"x":{"ha":833,"x_min":0,"x_max":0,"o":"m 97 0 l 354 375 l 111 722 l 233 722 l 382 500 l 414 438 l 421 438 l 451 500 l 600 722 l 722 722 l 479 375 l 736 0 l 614 0 l 461 229 l 421 314 l 414 314 l 372 229 l 219 0 "},"y":{"ha":833,"x_min":0,"x_max":0,"o":"m 254 -278 l 365 0 l 74 722 l 186 722 l 417 139 l 424 139 l 651 722 l 761 722 l 365 -278 "},"z":{"ha":833,"x_min":0,"x_max":0,"o":"m 139 0 l 139 83 l 556 625 l 153 625 l 153 722 l 688 722 l 688 639 l 271 97 l 694 97 l 694 0 "},"{":{"ha":833,"x_min":0,"x_max":0,"o":"m 514 -278 b 400 -232 468 -278 431 -262 b 354 -118 369 -201 354 -164 l 354 222 b 328 288 354 249 346 271 b 264 313 310 304 289 313 l 264 424 b 328 449 289 424 310 432 b 354 514 346 465 354 488 l 354 854 b 400 968 354 900 369 938 b 514 1014 431 999 468 1014 l 590 1014 l 590 910 l 521 910 b 481 896 503 910 490 906 b 465 854 471 886 465 872 l 465 514 b 432 415 465 474 454 442 b 347 376 410 389 382 376 l 347 360 b 432 321 382 360 410 347 b 465 222 454 294 465 263 l 465 -118 b 481 -160 465 -136 471 -150 b 521 -174 490 -169 503 -174 l 590 -174 l 590 -278 l 514 -278 "},"|":{"ha":833,"x_min":0,"x_max":0,"o":"m 361 -278 l 361 1014 l 472 1014 l 472 -278 "},"}":{"ha":833,"x_min":0,"x_max":0,"o":"m 243 -174 l 313 -174 b 354 -160 331 -174 344 -169 b 368 -118 364 -150 368 -136 l 368 222 b 401 321 368 263 379 294 b 486 360 424 347 451 360 l 486 376 b 401 415 451 376 424 389 b 368 514 379 442 368 474 l 368 854 b 354 896 368 872 364 886 b 313 910 344 906 331 910 l 243 910 l 243 1014 l 319 1014 b 433 968 365 1014 403 999 b 479 854 464 938 479 900 l 479 514 b 506 449 479 488 488 465 b 569 424 524 432 544 424 l 569 313 b 506 288 544 313 524 304 b 479 222 488 271 479 249 l 479 -118 b 433 -232 479 -164 464 -201 b 319 -278 403 -262 365 -278 l 243 -278 "},"~":{"ha":833,"x_min":0,"x_max":0,"o":"m 108 333 b 158 474 108 390 125 436 b 282 528 190 510 232 528 b 368 511 317 528 346 522 b 443 460 390 499 415 482 b 494 422 463 443 479 431 b 546 410 510 414 526 410 b 611 440 572 410 594 419 b 636 521 628 461 636 488 l 726 521 b 678 382 726 464 710 418 b 553 326 644 344 603 326 b 467 344 518 326 489 332 b 392 394 444 356 419 372 b 340 432 372 411 356 424 b 289 444 325 440 308 444 b 224 414 263 444 240 435 b 199 333 207 393 199 367 l 108 333 "}," ":{"ha":833,"x_min":0,"x_max":0,"o":""},"¡":{"ha":833,"x_min":0,"x_max":0,"o":"m 363 592 b 340 646 347 607 340 625 b 363 700 340 667 347 685 b 417 722 378 715 396 722 b 471 700 438 722 456 715 b 493 646 486 685 493 667 b 471 593 493 625 486 608 b 417 569 456 578 438 569 b 363 592 396 569 378 576 m 354 -278 l 354 -208 l 375 438 l 458 438 l 479 -208 l 479 -278 "},"¢":{"ha":833,"x_min":0,"x_max":0,"o":"m 543 113 b 611 188 575 132 599 157 l 715 188 b 632 57 700 136 672 93 b 488 -10 592 21 544 -1 l 488 -153 l 390 -153 l 390 -11 b 250 49 338 -4 290 17 b 153 176 208 81 176 122 b 118 361 129 229 118 290 b 153 547 118 432 129 493 b 250 675 176 600 208 643 b 390 733 290 707 338 726 l 390 875 l 488 875 l 488 732 b 632 665 544 724 592 701 b 715 535 672 629 700 586 l 611 535 b 543 610 599 565 575 590 b 438 639 511 629 475 639 b 329 607 397 639 361 628 b 251 511 296 585 269 553 b 222 361 232 469 222 419 b 251 211 222 303 232 253 b 329 117 269 169 296 138 b 438 83 361 94 397 83 b 543 113 475 83 511 93 "},"£":{"ha":833,"x_min":0,"x_max":0,"o":"m 743 0 l 97 0 l 97 104 l 118 104 b 194 201 169 104 194 136 l 194 417 l 97 417 l 97 521 l 194 521 l 194 681 b 229 844 194 743 206 799 b 322 950 251 890 282 926 b 458 986 363 974 407 986 b 635 924 528 986 586 965 b 722 736 683 882 713 819 l 604 736 b 557 844 597 782 581 818 b 458 882 532 869 499 882 b 353 831 414 882 379 865 b 313 674 326 796 313 743 l 313 521 l 556 521 l 556 417 l 313 417 l 313 201 b 278 104 313 156 301 124 l 743 104 "},"¤":{"ha":833,"x_min":0,"x_max":0,"o":"m 743 229 l 675 160 l 590 246 b 417 192 539 210 482 192 b 243 246 351 192 294 210 l 158 160 l 90 229 l 175 314 b 122 486 140 364 122 421 b 175 658 122 551 140 608 l 90 743 l 158 813 l 243 726 b 417 781 294 763 351 781 b 590 726 482 781 539 763 l 675 813 l 743 743 l 658 658 b 711 486 693 608 711 551 b 658 314 711 421 693 364 m 558 344 b 614 486 596 382 614 429 b 558 628 614 543 596 590 b 417 683 521 665 474 683 b 275 628 360 683 313 665 b 219 486 238 590 219 543 b 275 344 219 429 238 382 b 417 289 313 307 360 289 b 558 344 474 289 521 307 "},"¥":{"ha":833,"x_min":0,"x_max":0,"o":"m 775 972 l 536 493 l 685 493 l 685 389 l 483 389 l 476 375 l 476 292 l 685 292 l 685 188 l 476 188 l 476 0 l 358 0 l 358 188 l 150 188 l 150 292 l 358 292 l 358 375 l 351 389 l 150 389 l 150 493 l 300 493 l 60 972 l 185 972 l 375 569 l 411 458 l 425 458 l 461 569 l 650 972 "},"¦":{"ha":833,"x_min":0,"x_max":0,"o":"m 361 500 l 361 1014 l 472 1014 l 472 500 m 361 -278 l 361 236 l 472 236 l 472 -278 "},"§":{"ha":833,"x_min":0,"x_max":0,"o":"m 694 57 b 664 -50 694 19 685 -15 b 572 -135 643 -85 613 -112 b 424 -167 532 -156 482 -167 b 235 -106 349 -167 286 -146 b 132 63 183 -64 150 -8 l 250 63 b 424 -62 286 -21 344 -62 b 536 -26 471 -62 508 -50 b 576 69 563 -1 576 31 b 551 138 576 99 568 121 b 488 174 533 154 513 167 b 382 196 463 181 428 188 b 242 229 324 206 276 217 b 150 293 206 242 175 263 b 111 424 124 324 111 367 b 135 522 111 458 119 490 b 201 603 150 553 172 579 b 139 763 160 640 139 693 b 169 869 139 800 149 835 b 261 954 190 904 221 932 b 410 986 301 975 351 986 b 599 925 485 986 547 965 b 701 757 650 883 683 828 l 583 757 b 410 882 547 840 489 882 b 299 846 363 882 325 869 b 257 750 271 821 257 789 b 283 682 257 721 265 699 b 346 647 300 665 321 654 b 451 624 371 640 406 632 b 593 590 510 614 557 603 b 685 526 628 578 658 557 b 722 396 710 496 722 453 b 699 299 722 361 714 329 b 632 217 683 267 661 240 b 694 57 674 179 694 126 m 256 353 b 319 315 272 335 293 322 b 425 292 346 307 381 299 b 540 265 469 285 508 275 b 604 397 583 292 604 336 b 579 468 604 426 596 450 b 514 506 561 485 540 497 b 408 528 488 513 453 521 b 293 554 364 535 325 544 b 229 422 250 528 229 483 b 256 353 229 393 238 369 "},"¨":{"ha":833,"x_min":0,"x_max":0,"o":"m 244 876 b 222 926 229 890 222 907 b 244 979 222 947 229 964 b 296 1000 258 993 275 1000 b 347 979 317 1000 333 993 b 368 926 361 964 368 947 b 347 876 368 907 361 890 b 296 854 333 861 317 854 b 244 876 275 854 258 861 m 488 876 b 465 926 472 890 465 907 b 488 979 465 947 472 964 b 539 1000 501 993 518 1000 b 590 979 560 1000 576 993 b 611 926 604 964 611 947 b 590 876 611 907 604 890 b 539 854 576 861 560 854 b 488 876 518 854 501 861 "},"©":{"ha":833,"x_min":0,"x_max":0,"o":"m 221 50 b 85 186 163 82 117 128 b 35 382 51 243 35 308 b 85 579 35 456 51 521 b 221 715 117 636 163 682 b 417 764 278 747 343 764 b 614 715 490 764 556 747 b 750 579 671 682 717 636 b 799 382 782 521 799 456 b 750 186 799 308 782 243 b 614 50 717 128 671 82 b 417 0 556 17 490 0 b 221 50 343 0 278 17 m 571 115 b 678 224 617 142 651 178 b 715 382 703 269 715 322 b 678 540 715 442 703 494 b 571 649 651 586 617 622 b 417 688 525 675 474 688 b 263 649 360 688 308 675 b 157 540 217 622 182 586 b 118 382 131 494 118 442 b 157 224 118 322 131 269 b 263 115 182 178 217 142 b 417 76 308 89 360 76 b 571 115 474 76 525 89 m 286 229 b 236 382 253 267 236 317 b 286 535 236 447 253 497 b 417 590 319 572 363 590 b 522 553 457 590 493 578 b 583 444 551 526 571 490 l 500 444 b 468 496 493 467 482 483 b 417 514 453 508 436 514 b 347 481 388 514 365 503 b 319 382 329 458 319 425 b 347 283 319 339 329 306 b 417 250 365 261 388 250 b 468 268 436 250 453 256 b 500 319 482 281 493 297 l 583 319 b 522 213 571 274 551 238 b 417 174 493 186 457 174 b 286 229 363 174 319 192 "},"ª":{"ha":833,"x_min":0,"x_max":0,"o":"m 254 593 b 215 688 228 617 215 649 b 257 783 215 726 229 758 b 368 819 283 807 321 819 l 493 819 l 493 833 b 472 888 493 854 486 872 b 417 910 458 903 440 910 b 333 854 371 910 343 892 l 250 854 b 303 951 254 894 272 928 b 410 986 332 975 368 986 b 532 944 461 986 503 972 b 576 833 561 915 576 879 l 576 563 l 500 563 l 493 625 l 486 625 b 436 575 476 604 460 588 b 354 556 413 563 385 556 b 254 593 313 556 279 568 m 458 661 b 493 729 482 679 493 703 l 493 750 l 375 750 b 319 736 351 750 332 746 b 299 694 306 726 299 713 b 319 650 299 676 306 663 b 375 632 333 638 351 632 b 458 661 407 632 435 642 "},"«":{"ha":833,"x_min":0,"x_max":0,"o":"m 326 35 l 118 361 l 326 688 l 458 688 l 250 365 l 250 357 l 458 35 m 563 35 l 354 361 l 563 688 l 694 688 l 486 365 l 486 357 l 694 35 "},"¬":{"ha":833,"x_min":0,"x_max":0,"o":"m 625 257 l 625 436 l 118 436 l 118 528 l 708 528 l 708 257 "},"­":{"ha":833,"x_min":0,"x_max":0,"o":"m 208 313 l 208 410 l 625 410 l 625 313 "},"®":{"ha":833,"x_min":0,"x_max":0,"o":"m 614 715 b 750 579 671 682 717 636 b 799 382 782 521 799 456 b 750 186 799 308 782 243 b 614 50 717 128 671 82 b 417 0 556 17 490 0 b 221 50 343 0 278 17 b 85 186 163 82 117 128 b 35 382 51 243 35 308 b 85 579 35 456 51 521 b 221 715 117 636 163 682 b 417 764 278 747 343 764 b 614 715 490 764 556 747 m 571 115 b 678 224 617 142 651 178 b 715 382 703 269 715 322 b 678 540 715 442 703 494 b 571 649 651 586 617 622 b 417 688 525 675 474 688 b 263 649 360 688 308 675 b 157 540 217 622 182 586 b 118 382 131 494 118 442 b 157 224 118 322 131 269 b 263 115 182 178 217 142 b 417 76 308 89 360 76 b 571 115 474 76 525 89 m 563 374 b 504 324 549 350 529 333 l 588 181 l 494 181 l 417 313 l 361 313 l 361 181 l 278 181 l 278 583 l 436 583 b 544 547 482 583 518 571 b 583 451 571 522 583 490 b 563 374 583 422 576 396 m 361 382 l 431 382 b 481 400 451 382 468 388 b 500 444 493 413 500 426 b 481 489 500 463 493 476 b 431 507 468 501 451 507 l 361 507 "},"¯":{"ha":833,"x_min":0,"x_max":0,"o":"m 222 875 l 222 965 l 611 965 l 611 875 "},"°":{"ha":833,"x_min":0,"x_max":0,"o":"m 282 657 b 229 792 247 692 229 736 b 282 928 229 847 247 893 b 417 979 317 963 361 979 b 553 928 472 979 518 963 b 604 792 588 893 604 847 b 553 657 604 736 588 692 b 417 604 518 622 472 604 b 282 657 361 604 317 622 m 493 711 b 521 792 511 731 521 757 b 493 874 521 826 511 853 b 417 903 474 893 449 903 b 342 874 385 903 360 893 b 313 792 322 853 313 826 b 342 711 313 757 322 731 b 417 681 360 690 385 681 b 493 711 449 681 474 690 "},"±":{"ha":833,"x_min":0,"x_max":0,"o":"m 463 511 l 750 511 l 750 419 l 463 419 l 463 167 l 371 167 l 371 419 l 83 419 l 83 511 l 371 511 l 371 764 l 463 764 m 83 0 l 83 92 l 750 92 l 750 0 "},"²":{"ha":833,"x_min":0,"x_max":0,"o":"m 222 729 l 426 879 b 492 936 458 903 481 922 b 507 986 501 949 507 965 b 482 1047 507 1011 499 1032 b 410 1069 464 1063 440 1069 b 340 1042 381 1069 358 1060 b 313 972 322 1024 313 1000 l 229 972 b 282 1099 233 1024 250 1067 b 417 1146 313 1131 357 1146 b 542 1100 468 1146 510 1131 b 590 986 574 1069 590 1032 b 510 843 590 931 564 883 l 354 729 l 590 729 l 590 653 l 222 653 "},"³":{"ha":833,"x_min":0,"x_max":0,"o":"m 296 683 b 236 792 263 708 243 744 l 319 792 b 351 742 324 771 333 754 b 417 722 368 729 390 722 b 485 742 447 722 469 729 b 507 792 500 754 507 771 b 410 861 507 838 475 861 l 382 861 l 382 931 l 410 931 b 478 950 440 931 463 938 b 500 1000 493 963 500 979 b 478 1051 500 1021 493 1039 b 410 1069 463 1064 440 1069 b 319 993 357 1069 326 1044 l 236 993 b 286 1103 240 1038 257 1074 b 410 1146 315 1132 357 1146 b 538 1107 464 1146 506 1133 b 583 1007 568 1081 583 1047 b 564 942 583 981 576 960 b 508 903 550 924 532 911 b 569 861 535 893 556 879 b 590 792 583 842 590 818 b 544 688 590 749 575 714 b 417 646 514 660 471 646 b 296 683 369 646 329 658 "},"´":{"ha":833,"x_min":0,"x_max":0,"o":"m 288 833 l 413 1028 l 544 1028 l 385 833 "},"µ":{"ha":833,"x_min":0,"x_max":0,"o":"m 139 722 l 243 722 l 243 278 b 289 135 243 217 258 169 b 410 83 319 100 360 83 b 503 110 444 83 475 92 b 567 182 529 128 551 151 b 590 278 582 211 590 243 l 590 722 l 694 722 l 694 0 l 611 0 l 597 97 l 590 97 b 508 15 569 63 542 35 b 396 -14 475 -4 438 -14 b 306 8 364 -14 333 -7 b 243 64 276 22 256 40 l 243 -250 l 139 -250 "},"¶":{"ha":833,"x_min":0,"x_max":0,"o":"m 285 458 b 172 493 244 458 207 469 b 92 586 138 515 111 546 b 63 715 72 625 63 668 b 92 846 63 763 72 806 b 172 939 111 885 138 915 b 285 972 207 961 244 972 l 681 972 l 681 -153 l 576 -153 l 576 875 l 389 875 l 389 -153 l 285 -153 l 285 458 "},"·":{"ha":833,"x_min":0,"x_max":0,"o":"m 364 308 b 340 361 349 324 340 340 b 364 415 340 382 349 400 b 417 438 379 431 396 438 b 471 415 438 438 456 431 b 493 361 486 400 493 382 b 471 308 493 340 486 324 b 417 285 456 293 438 285 b 364 308 396 285 379 293 "},"¸":{"ha":833,"x_min":0,"x_max":0,"o":"m 415 -50 b 493 -86 449 -54 475 -65 b 521 -160 511 -106 521 -131 b 485 -250 521 -197 508 -226 b 396 -285 461 -274 431 -285 l 313 -285 l 313 -215 l 382 -215 b 424 -201 400 -215 414 -211 b 438 -160 433 -192 438 -178 b 422 -125 438 -146 432 -135 b 382 -111 413 -115 399 -111 l 326 -111 l 326 -62 l 371 38 l 438 0 l 415 -50 "},"¹":{"ha":833,"x_min":0,"x_max":0,"o":"m 250 729 l 396 729 l 396 972 l 271 972 l 271 1049 l 361 1049 b 386 1058 371 1049 379 1051 b 396 1083 393 1065 396 1074 l 396 1139 l 479 1139 l 479 729 l 618 729 l 618 653 l 250 653 "},"º":{"ha":833,"x_min":0,"x_max":0,"o":"m 281 613 b 229 771 246 650 229 703 b 281 931 229 839 246 893 b 417 986 315 968 360 986 b 553 931 474 986 518 968 b 604 771 588 893 604 839 b 553 613 604 703 588 650 b 417 556 518 575 474 556 b 281 613 360 556 315 575 m 493 667 b 521 771 511 689 521 724 b 493 876 521 818 511 853 b 417 910 475 899 449 910 b 340 876 385 910 358 899 b 313 771 322 853 313 818 b 340 667 313 724 322 689 b 417 632 358 643 385 632 b 493 667 449 632 475 643 "},"»":{"ha":833,"x_min":0,"x_max":0,"o":"m 139 35 l 347 357 l 347 365 l 139 688 l 271 688 l 479 361 l 271 35 m 375 35 l 583 357 l 583 365 l 375 688 l 507 688 l 715 361 l 507 35 "},"¼":{"ha":833,"x_min":0,"x_max":0,"o":"m 14 563 l 160 563 l 160 806 l 35 806 l 35 882 l 125 882 b 150 892 135 882 143 885 b 160 917 157 899 160 907 l 160 972 l 243 972 l 243 563 l 382 563 l 382 486 l 14 486 m 444 556 l 632 972 l 771 972 l 500 556 m 646 0 l 646 97 l 396 97 l 396 174 l 611 486 l 729 486 l 729 174 l 806 174 l 806 97 l 729 97 l 729 0 m 63 0 l 333 417 l 389 417 l 201 0 m 490 174 l 646 174 l 646 389 l 639 389 "},"½":{"ha":833,"x_min":0,"x_max":0,"o":"m 14 563 l 160 563 l 160 806 l 35 806 l 35 882 l 125 882 b 150 892 135 882 143 885 b 160 917 157 899 160 907 l 160 972 l 243 972 l 243 563 l 382 563 l 382 486 l 14 486 m 444 556 l 632 972 l 771 972 l 500 556 m 444 76 l 649 226 b 714 283 681 250 703 269 b 729 333 724 296 729 313 b 704 394 729 358 721 379 b 632 417 686 410 663 417 b 558 386 597 417 574 407 b 535 319 543 365 535 343 l 451 319 b 504 446 456 371 472 414 b 639 493 535 478 579 493 b 764 447 690 493 732 478 b 813 333 796 417 813 379 b 732 190 813 278 786 231 l 576 76 l 813 76 l 813 0 l 444 0 m 63 0 l 333 417 l 389 417 l 201 0 "},"¾":{"ha":833,"x_min":0,"x_max":0,"o":"m 88 517 b 28 625 54 542 35 578 l 111 625 b 143 575 115 604 125 588 b 208 556 160 563 182 556 b 276 575 239 556 261 563 b 299 625 292 588 299 604 b 201 694 299 671 267 694 l 174 694 l 174 764 l 201 764 b 269 783 232 764 254 771 b 292 833 285 796 292 813 b 269 885 292 854 285 872 b 201 903 254 897 232 903 b 111 826 149 903 118 878 l 28 826 b 78 936 32 871 49 907 b 201 979 107 965 149 979 b 329 940 256 979 297 967 b 375 840 360 914 375 881 b 356 775 375 814 368 793 b 300 736 342 757 324 744 b 361 694 326 726 347 713 b 382 625 375 675 382 651 b 336 521 382 582 367 547 b 208 479 306 493 263 479 b 88 517 161 479 121 492 m 444 556 l 632 972 l 771 972 l 500 556 m 646 0 l 646 97 l 396 97 l 396 174 l 611 486 l 729 486 l 729 174 l 806 174 l 806 97 l 729 97 l 729 0 m 63 0 l 333 417 l 389 417 l 201 0 m 490 174 l 646 174 l 646 389 l 639 389 "},"¿":{"ha":833,"x_min":0,"x_max":0,"o":"m 378 593 b 354 646 363 608 354 625 b 378 700 354 667 363 685 b 431 722 393 715 410 722 b 485 700 451 722 469 715 b 507 646 500 685 507 667 b 485 593 507 625 500 608 b 431 569 469 578 451 569 b 378 593 410 569 393 578 m 222 -208 b 146 -28 171 -162 146 -101 b 164 72 146 11 151 44 b 206 139 175 99 189 121 b 271 196 222 157 244 175 b 328 246 294 215 314 232 b 361 296 340 258 351 275 b 375 368 371 317 375 340 l 375 438 l 486 438 l 486 368 b 469 274 486 331 481 300 b 429 208 458 247 444 225 b 364 151 413 192 390 172 b 307 100 339 131 319 114 b 272 47 293 86 282 68 b 257 -28 263 26 257 1 b 303 -139 257 -74 272 -111 b 431 -181 333 -167 376 -181 b 528 -157 468 -181 501 -172 b 586 -97 554 -142 574 -121 b 604 -21 599 -72 604 -47 l 715 -21 b 682 -146 715 -65 704 -107 b 585 -242 660 -185 628 -217 b 431 -278 542 -265 490 -278 b 222 -208 342 -278 272 -254 "},"À":{"ha":833,"x_min":0,"x_max":0,"o":"m 671 0 l 594 243 l 239 243 l 163 0 l 42 0 l 354 972 l 479 972 l 792 0 m 272 347 l 561 347 l 446 715 l 424 854 l 410 854 l 388 715 m 375 1069 l 215 1264 l 347 1264 l 472 1069 "},"Á":{"ha":833,"x_min":0,"x_max":0,"o":"m 671 0 l 594 243 l 239 243 l 163 0 l 42 0 l 354 972 l 479 972 l 792 0 m 272 347 l 561 347 l 446 715 l 424 854 l 410 854 l 388 715 m 361 1069 l 486 1264 l 618 1264 l 458 1069 "},"Â":{"ha":833,"x_min":0,"x_max":0,"o":"m 671 0 l 594 243 l 239 243 l 163 0 l 42 0 l 354 972 l 479 972 l 792 0 m 272 347 l 561 347 l 446 715 l 424 854 l 410 854 l 388 715 m 190 1069 l 371 1271 l 461 1271 l 642 1069 l 531 1069 l 419 1194 l 413 1194 l 301 1069 "},"Ã":{"ha":833,"x_min":0,"x_max":0,"o":"m 671 0 l 594 243 l 239 243 l 163 0 l 42 0 l 354 972 l 479 972 l 792 0 m 272 347 l 561 347 l 446 715 l 424 854 l 410 854 l 388 715 m 201 1090 b 235 1197 201 1136 213 1171 b 326 1236 257 1224 288 1236 b 379 1226 346 1236 364 1233 b 439 1193 394 1219 415 1208 b 472 1175 450 1186 461 1181 b 500 1167 482 1169 492 1167 b 531 1185 513 1167 522 1172 b 542 1229 538 1196 542 1211 l 632 1229 b 599 1122 632 1183 621 1149 b 507 1083 576 1096 546 1083 b 454 1094 488 1083 469 1088 b 394 1126 439 1101 418 1111 b 363 1144 383 1133 372 1139 b 333 1153 351 1150 342 1153 b 303 1136 321 1153 310 1147 b 292 1090 296 1125 292 1110 l 201 1090 "},"Ä":{"ha":833,"x_min":0,"x_max":0,"o":"m 671 0 l 594 243 l 239 243 l 163 0 l 42 0 l 354 972 l 479 972 l 792 0 m 272 347 l 561 347 l 446 715 l 424 854 l 410 854 l 388 715 m 244 1113 b 222 1163 229 1126 222 1143 b 244 1215 222 1183 229 1200 b 296 1236 258 1229 275 1236 b 347 1215 317 1236 333 1229 b 368 1163 361 1200 368 1183 b 347 1113 368 1143 361 1126 b 296 1090 333 1097 317 1090 b 244 1113 275 1090 258 1097 m 488 1113 b 465 1163 472 1126 465 1143 b 488 1215 465 1183 472 1200 b 539 1236 501 1229 518 1236 b 590 1215 560 1236 576 1229 b 611 1163 604 1200 611 1183 b 590 1113 611 1143 604 1126 b 539 1090 576 1097 560 1090 b 488 1113 518 1090 501 1097 "},"Å":{"ha":833,"x_min":0,"x_max":0,"o":"m 671 0 l 594 243 l 239 243 l 163 0 l 42 0 l 354 972 l 479 972 l 792 0 m 272 347 l 561 347 l 446 715 l 424 854 l 410 854 l 388 715 m 319 1072 b 282 1169 294 1097 282 1129 b 319 1268 282 1210 294 1242 b 417 1306 344 1293 376 1306 b 515 1268 457 1306 489 1293 b 553 1169 540 1243 553 1210 b 515 1072 553 1129 540 1097 b 417 1035 489 1047 457 1035 b 319 1072 376 1035 344 1047 m 467 1122 b 483 1169 478 1133 483 1149 b 467 1219 483 1190 478 1207 b 417 1236 454 1231 438 1236 b 369 1219 396 1236 381 1231 b 351 1169 357 1207 351 1190 b 369 1122 351 1149 357 1133 b 417 1104 381 1110 396 1104 b 467 1122 438 1104 454 1110 "},"Æ":{"ha":833,"x_min":0,"x_max":0,"o":"m 479 104 l 778 104 l 778 0 l 361 0 l 361 222 l 175 222 l 118 0 l 0 0 l 257 972 l 764 972 l 764 868 l 479 868 l 479 542 l 736 542 l 736 438 l 479 438 m 201 326 l 361 326 l 361 868 l 340 868 "},"Ç":{"ha":833,"x_min":0,"x_max":0,"o":"m 764 306 b 656 79 743 207 707 131 b 467 -11 604 26 542 -4 l 450 -50 b 528 -86 483 -54 510 -65 b 556 -160 546 -106 556 -131 b 519 -250 556 -197 543 -226 b 431 -285 496 -274 465 -285 l 347 -285 l 347 -215 l 417 -215 b 458 -201 435 -215 449 -211 b 472 -160 468 -192 472 -178 b 457 -125 472 -146 467 -135 b 417 -111 447 -115 433 -111 l 361 -111 l 361 -62 l 383 -11 b 156 128 288 -1 213 44 b 69 486 99 211 69 331 b 115 767 69 599 85 692 b 240 932 146 840 188 896 b 424 986 293 968 354 986 b 631 917 506 986 575 963 b 751 715 686 871 726 803 l 633 715 b 553 839 615 769 588 810 b 424 882 518 868 475 882 b 253 788 353 882 296 850 b 188 486 210 725 188 624 b 253 185 188 349 210 247 b 424 90 296 122 353 90 b 564 143 478 90 525 108 b 646 306 601 178 629 232 l 764 306 "},"È":{"ha":833,"x_min":0,"x_max":0,"o":"m 250 104 l 729 104 l 729 0 l 132 0 l 132 972 l 715 972 l 715 868 l 250 868 l 250 542 l 688 542 l 688 438 l 250 438 m 382 1069 l 222 1264 l 354 1264 l 479 1069 "},"É":{"ha":833,"x_min":0,"x_max":0,"o":"m 250 104 l 729 104 l 729 0 l 132 0 l 132 972 l 715 972 l 715 868 l 250 868 l 250 542 l 688 542 l 688 438 l 250 438 m 368 1069 l 493 1264 l 625 1264 l 465 1069 "},"Ê":{"ha":833,"x_min":0,"x_max":0,"o":"m 250 104 l 729 104 l 729 0 l 132 0 l 132 972 l 715 972 l 715 868 l 250 868 l 250 542 l 688 542 l 688 438 l 250 438 m 197 1069 l 378 1271 l 468 1271 l 649 1069 l 538 1069 l 426 1194 l 419 1194 l 308 1069 "},"Ë":{"ha":833,"x_min":0,"x_max":0,"o":"m 250 104 l 729 104 l 729 0 l 132 0 l 132 972 l 715 972 l 715 868 l 250 868 l 250 542 l 688 542 l 688 438 l 250 438 m 251 1113 b 229 1163 236 1126 229 1143 b 251 1215 229 1183 236 1200 b 303 1236 265 1229 282 1236 b 354 1215 324 1236 340 1229 b 375 1163 368 1200 375 1183 b 354 1113 375 1143 368 1126 b 303 1090 340 1097 324 1090 b 251 1113 282 1090 265 1097 m 494 1113 b 472 1163 479 1126 472 1143 b 494 1215 472 1183 479 1200 b 546 1236 508 1229 525 1236 b 597 1215 567 1236 583 1229 b 618 1163 611 1200 618 1183 b 597 1113 618 1143 611 1126 b 546 1090 583 1097 567 1090 b 494 1113 525 1090 508 1097 "},"Ì":{"ha":833,"x_min":0,"x_max":0,"o":"m 146 0 l 146 104 l 358 104 l 358 868 l 146 868 l 146 972 l 688 972 l 688 868 l 476 868 l 476 104 l 688 104 l 688 0 m 375 1069 l 215 1264 l 347 1264 l 472 1069 "},"Í":{"ha":833,"x_min":0,"x_max":0,"o":"m 146 0 l 146 104 l 358 104 l 358 868 l 146 868 l 146 972 l 688 972 l 688 868 l 476 868 l 476 104 l 688 104 l 688 0 m 361 1069 l 486 1264 l 618 1264 l 458 1069 "},"Î":{"ha":833,"x_min":0,"x_max":0,"o":"m 146 0 l 146 104 l 358 104 l 358 868 l 146 868 l 146 972 l 688 972 l 688 868 l 476 868 l 476 104 l 688 104 l 688 0 m 190 1069 l 371 1271 l 461 1271 l 642 1069 l 531 1069 l 419 1194 l 413 1194 l 301 1069 "},"Ï":{"ha":833,"x_min":0,"x_max":0,"o":"m 146 0 l 146 104 l 358 104 l 358 868 l 146 868 l 146 972 l 688 972 l 688 868 l 476 868 l 476 104 l 688 104 l 688 0 m 244 1113 b 222 1163 229 1126 222 1143 b 244 1215 222 1183 229 1200 b 296 1236 258 1229 275 1236 b 347 1215 317 1236 333 1229 b 368 1163 361 1200 368 1183 b 347 1113 368 1143 361 1126 b 296 1090 333 1097 317 1090 b 244 1113 275 1090 258 1097 m 488 1113 b 465 1163 472 1126 465 1143 b 488 1215 465 1183 472 1200 b 539 1236 501 1229 518 1236 b 590 1215 560 1236 576 1229 b 611 1163 604 1200 611 1183 b 590 1113 611 1143 604 1126 b 539 1090 576 1097 560 1090 b 488 1113 518 1090 501 1097 "},"Ð":{"ha":833,"x_min":0,"x_max":0,"o":"m 333 972 b 564 915 421 972 499 953 b 717 750 629 878 681 822 b 771 486 753 676 771 589 b 717 224 771 383 753 296 b 564 57 681 150 629 94 b 333 0 499 19 421 0 l 118 0 l 118 438 l 21 438 l 21 542 l 118 542 l 118 972 l 333 972 m 333 104 b 500 149 396 104 451 119 b 613 278 549 178 586 221 b 653 486 639 335 653 404 b 613 694 653 568 639 638 b 500 825 586 751 549 796 b 333 868 451 854 396 868 l 236 868 l 236 542 l 417 542 l 417 438 l 236 438 l 236 104 l 333 104 "},"Ñ":{"ha":833,"x_min":0,"x_max":0,"o":"m 118 0 l 118 972 l 286 972 l 618 125 l 632 125 l 597 361 l 597 972 l 715 972 l 715 0 l 547 0 l 215 847 l 201 847 l 236 611 l 236 0 m 201 1090 b 235 1197 201 1136 213 1171 b 326 1236 257 1224 288 1236 b 379 1226 346 1236 364 1233 b 439 1193 394 1219 415 1208 b 472 1175 450 1186 461 1181 b 500 1167 482 1169 492 1167 b 531 1185 513 1167 522 1172 b 542 1229 538 1196 542 1211 l 632 1229 b 599 1122 632 1183 621 1149 b 507 1083 576 1096 546 1083 b 454 1094 488 1083 469 1088 b 394 1126 439 1101 418 1111 b 363 1144 383 1133 372 1139 b 333 1153 351 1150 342 1153 b 303 1136 321 1153 310 1147 b 292 1090 296 1125 292 1110 l 201 1090 "},"Ò":{"ha":833,"x_min":0,"x_max":0,"o":"m 233 40 b 108 207 181 76 139 132 b 63 486 78 281 63 374 b 108 767 63 599 78 692 b 233 932 139 840 181 896 b 417 986 286 968 347 986 b 600 932 486 986 547 968 b 725 767 653 896 694 840 b 771 486 756 692 771 599 b 725 207 771 374 756 281 b 600 40 694 132 653 76 b 417 -14 547 4 486 -14 b 233 40 347 -14 286 4 m 593 192 b 653 486 633 260 653 357 b 593 781 653 615 633 713 b 417 882 553 849 493 882 b 242 781 340 882 282 849 b 181 486 201 713 181 615 b 242 192 181 357 201 260 b 417 90 282 124 340 90 b 593 192 493 90 553 124 m 375 1069 l 215 1264 l 347 1264 l 472 1069 "},"Ó":{"ha":833,"x_min":0,"x_max":0,"o":"m 233 40 b 108 207 181 76 139 132 b 63 486 78 281 63 374 b 108 767 63 599 78 692 b 233 932 139 840 181 896 b 417 986 286 968 347 986 b 600 932 486 986 547 968 b 725 767 653 896 694 840 b 771 486 756 692 771 599 b 725 207 771 374 756 281 b 600 40 694 132 653 76 b 417 -14 547 4 486 -14 b 233 40 347 -14 286 4 m 593 192 b 653 486 633 260 653 357 b 593 781 653 615 633 713 b 417 882 553 849 493 882 b 242 781 340 882 282 849 b 181 486 201 713 181 615 b 242 192 181 357 201 260 b 417 90 282 124 340 90 b 593 192 493 90 553 124 m 361 1069 l 486 1264 l 618 1264 l 458 1069 "},"Ô":{"ha":833,"x_min":0,"x_max":0,"o":"m 233 40 b 108 207 181 76 139 132 b 63 486 78 281 63 374 b 108 767 63 599 78 692 b 233 932 139 840 181 896 b 417 986 286 968 347 986 b 600 932 486 986 547 968 b 725 767 653 896 694 840 b 771 486 756 692 771 599 b 725 207 771 374 756 281 b 600 40 694 132 653 76 b 417 -14 547 4 486 -14 b 233 40 347 -14 286 4 m 593 192 b 653 486 633 260 653 357 b 593 781 653 615 633 713 b 417 882 553 849 493 882 b 242 781 340 882 282 849 b 181 486 201 713 181 615 b 242 192 181 357 201 260 b 417 90 282 124 340 90 b 593 192 493 90 553 124 m 190 1069 l 371 1271 l 461 1271 l 642 1069 l 531 1069 l 419 1194 l 413 1194 l 301 1069 "},"Õ":{"ha":833,"x_min":0,"x_max":0,"o":"m 233 40 b 108 207 181 76 139 132 b 63 486 78 281 63 374 b 108 767 63 599 78 692 b 233 932 139 840 181 896 b 417 986 286 968 347 986 b 600 932 486 986 547 968 b 725 767 653 896 694 840 b 771 486 756 692 771 599 b 725 207 771 374 756 281 b 600 40 694 132 653 76 b 417 -14 547 4 486 -14 b 233 40 347 -14 286 4 m 593 192 b 653 486 633 260 653 357 b 593 781 653 615 633 713 b 417 882 553 849 493 882 b 242 781 340 882 282 849 b 181 486 201 713 181 615 b 242 192 181 357 201 260 b 417 90 282 124 340 90 b 593 192 493 90 553 124 m 201 1090 b 235 1197 201 1136 213 1171 b 326 1236 257 1224 288 1236 b 379 1226 346 1236 364 1233 b 439 1193 394 1219 415 1208 b 472 1175 450 1186 461 1181 b 500 1167 482 1169 492 1167 b 531 1185 513 1167 522 1172 b 542 1229 538 1196 542 1211 l 632 1229 b 599 1122 632 1183 621 1149 b 507 1083 576 1096 546 1083 b 454 1094 488 1083 469 1088 b 394 1126 439 1101 418 1111 b 363 1144 383 1133 372 1139 b 333 1153 351 1150 342 1153 b 303 1136 321 1153 310 1147 b 292 1090 296 1125 292 1110 l 201 1090 "},"Ö":{"ha":833,"x_min":0,"x_max":0,"o":"m 233 40 b 108 207 181 76 139 132 b 63 486 78 281 63 374 b 108 767 63 599 78 692 b 233 932 139 840 181 896 b 417 986 286 968 347 986 b 600 932 486 986 547 968 b 725 767 653 896 694 840 b 771 486 756 692 771 599 b 725 207 771 374 756 281 b 600 40 694 132 653 76 b 417 -14 547 4 486 -14 b 233 40 347 -14 286 4 m 593 192 b 653 486 633 260 653 357 b 593 781 653 615 633 713 b 417 882 553 849 493 882 b 242 781 340 882 282 849 b 181 486 201 713 181 615 b 242 192 181 357 201 260 b 417 90 282 124 340 90 b 593 192 493 90 553 124 m 244 1113 b 222 1163 229 1126 222 1143 b 244 1215 222 1183 229 1200 b 296 1236 258 1229 275 1236 b 347 1215 317 1236 333 1229 b 368 1163 361 1200 368 1183 b 347 1113 368 1143 361 1126 b 296 1090 333 1097 317 1090 b 244 1113 275 1090 258 1097 m 488 1113 b 465 1163 472 1126 465 1143 b 488 1215 465 1183 472 1200 b 539 1236 501 1229 518 1236 b 590 1215 560 1236 576 1229 b 611 1163 604 1200 611 1183 b 590 1113 611 1143 604 1126 b 539 1090 576 1097 560 1090 b 488 1113 518 1090 501 1097 "},"×":{"ha":833,"x_min":0,"x_max":0,"o":"m 181 132 l 117 196 l 351 432 l 117 667 l 181 732 l 417 496 l 653 732 l 717 668 l 481 432 l 717 197 l 651 132 l 415 368 "},"Ø":{"ha":833,"x_min":0,"x_max":0,"o":"m 681 850 b 771 486 740 763 771 642 b 725 207 771 374 756 281 b 600 40 694 132 653 76 b 417 -14 547 4 486 -14 b 221 49 342 -14 276 7 l 174 -35 l 63 -35 l 153 122 b 63 486 93 210 63 331 b 108 767 63 599 78 692 b 233 932 139 840 181 896 b 417 986 286 968 347 986 b 613 924 492 986 557 965 l 660 1007 l 771 1007 m 557 826 b 417 882 518 864 471 882 b 242 781 340 882 282 849 b 181 486 201 713 181 615 b 219 238 181 383 193 300 m 276 146 b 417 90 315 108 363 90 b 593 192 493 90 553 124 b 653 486 633 260 653 357 b 614 735 653 589 640 672 "},"Ù":{"ha":833,"x_min":0,"x_max":0,"o":"m 186 79 b 104 361 132 142 104 235 l 104 972 l 222 972 l 222 361 b 417 90 222 181 288 90 b 611 361 546 90 611 181 l 611 972 l 729 972 l 729 361 b 649 79 729 235 703 142 b 417 -14 594 17 517 -14 b 186 79 317 -14 240 17 m 375 1069 l 215 1264 l 347 1264 l 472 1069 "},"Ú":{"ha":833,"x_min":0,"x_max":0,"o":"m 186 79 b 104 361 132 142 104 235 l 104 972 l 222 972 l 222 361 b 417 90 222 181 288 90 b 611 361 546 90 611 181 l 611 972 l 729 972 l 729 361 b 649 79 729 235 703 142 b 417 -14 594 17 517 -14 b 186 79 317 -14 240 17 m 361 1069 l 486 1264 l 618 1264 l 458 1069 "},"Û":{"ha":833,"x_min":0,"x_max":0,"o":"m 186 79 b 104 361 132 142 104 235 l 104 972 l 222 972 l 222 361 b 417 90 222 181 288 90 b 611 361 546 90 611 181 l 611 972 l 729 972 l 729 361 b 649 79 729 235 703 142 b 417 -14 594 17 517 -14 b 186 79 317 -14 240 17 m 190 1069 l 371 1271 l 461 1271 l 642 1069 l 531 1069 l 419 1194 l 413 1194 l 301 1069 "},"Ü":{"ha":833,"x_min":0,"x_max":0,"o":"m 186 79 b 104 361 132 142 104 235 l 104 972 l 222 972 l 222 361 b 417 90 222 181 288 90 b 611 361 546 90 611 181 l 611 972 l 729 972 l 729 361 b 649 79 729 235 703 142 b 417 -14 594 17 517 -14 b 186 79 317 -14 240 17 m 244 1113 b 222 1163 229 1126 222 1143 b 244 1215 222 1183 229 1200 b 296 1236 258 1229 275 1236 b 347 1215 317 1236 333 1229 b 368 1163 361 1200 368 1183 b 347 1113 368 1143 361 1126 b 296 1090 333 1097 317 1090 b 244 1113 275 1090 258 1097 m 488 1113 b 465 1163 472 1126 465 1143 b 488 1215 465 1183 472 1200 b 539 1236 501 1229 518 1236 b 590 1215 560 1236 576 1229 b 611 1163 604 1200 611 1183 b 590 1113 611 1143 604 1126 b 539 1090 576 1097 560 1090 b 488 1113 518 1090 501 1097 "},"Ý":{"ha":833,"x_min":0,"x_max":0,"o":"m 358 0 l 358 375 l 60 972 l 185 972 l 375 569 l 411 458 l 425 458 l 461 569 l 650 972 l 775 972 l 476 375 l 476 0 m 363 1069 l 488 1264 l 619 1264 l 460 1069 "},"Þ":{"ha":833,"x_min":0,"x_max":0,"o":"m 118 972 l 236 972 l 236 743 l 493 743 b 699 675 581 743 650 721 b 771 486 747 629 771 565 b 699 299 771 407 747 344 b 493 229 650 253 581 229 l 236 229 l 236 0 l 118 0 m 486 333 b 653 486 597 333 653 385 b 486 639 653 588 597 639 l 236 639 l 236 333 l 486 333 "},"ß":{"ha":833,"x_min":0,"x_max":0,"o":"m 146 708 b 222 910 146 792 171 858 b 424 986 274 961 340 986 b 574 950 481 986 531 974 b 669 854 615 925 647 893 b 701 729 690 814 701 772 b 667 593 701 678 690 632 b 571 507 643 553 611 525 b 692 417 621 493 661 463 b 736 264 721 371 736 319 b 658 72 736 185 710 121 b 444 0 607 24 535 0 l 368 0 l 368 97 l 444 97 b 583 144 504 97 551 113 b 632 271 615 175 632 217 b 444 444 632 386 569 444 l 389 444 l 389 542 l 424 542 b 550 588 476 542 518 557 b 597 715 582 618 597 661 b 550 842 597 767 582 810 b 424 889 518 874 475 889 b 297 840 371 889 329 872 b 250 708 265 808 250 764 l 250 0 l 146 0 l 146 708 "},"à":{"ha":833,"x_min":0,"x_max":0,"o":"m 239 15 b 156 96 203 35 175 61 b 125 208 135 129 125 167 b 157 322 125 250 136 288 b 246 401 178 356 207 382 b 382 431 285 421 331 431 l 569 431 l 569 479 b 526 596 569 528 556 567 b 410 639 497 625 458 639 b 313 614 372 639 339 631 b 257 535 286 597 267 571 l 153 535 b 239 683 163 597 192 647 b 410 736 285 718 342 736 b 601 665 489 736 553 713 b 674 479 650 618 674 556 l 674 0 l 590 0 l 576 90 l 569 90 b 490 18 551 64 525 39 b 361 -14 454 -3 411 -14 b 239 15 315 -14 275 -4 m 514 140 b 569 285 551 178 569 226 l 569 333 l 382 333 b 268 300 331 333 293 322 b 229 208 242 278 229 247 b 267 117 229 169 242 139 b 375 83 292 94 328 83 b 514 140 431 83 476 103 m 375 833 l 215 1028 l 347 1028 l 472 833 "},"á":{"ha":833,"x_min":0,"x_max":0,"o":"m 239 15 b 156 96 203 35 175 61 b 125 208 135 129 125 167 b 157 322 125 250 136 288 b 246 401 178 356 207 382 b 382 431 285 421 331 431 l 569 431 l 569 479 b 526 596 569 528 556 567 b 410 639 497 625 458 639 b 313 614 372 639 339 631 b 257 535 286 597 267 571 l 153 535 b 239 683 163 597 192 647 b 410 736 285 718 342 736 b 601 665 489 736 553 713 b 674 479 650 618 674 556 l 674 0 l 590 0 l 576 90 l 569 90 b 490 18 551 64 525 39 b 361 -14 454 -3 411 -14 b 239 15 315 -14 275 -4 m 514 140 b 569 285 551 178 569 226 l 569 333 l 382 333 b 268 300 331 333 293 322 b 229 208 242 278 229 247 b 267 117 229 169 242 139 b 375 83 292 94 328 83 b 514 140 431 83 476 103 m 361 833 l 486 1028 l 618 1028 l 458 833 "},"â":{"ha":833,"x_min":0,"x_max":0,"o":"m 239 15 b 156 96 203 35 175 61 b 125 208 135 129 125 167 b 157 322 125 250 136 288 b 246 401 178 356 207 382 b 382 431 285 421 331 431 l 569 431 l 569 479 b 526 596 569 528 556 567 b 410 639 497 625 458 639 b 313 614 372 639 339 631 b 257 535 286 597 267 571 l 153 535 b 239 683 163 597 192 647 b 410 736 285 718 342 736 b 601 665 489 736 553 713 b 674 479 650 618 674 556 l 674 0 l 590 0 l 576 90 l 569 90 b 490 18 551 64 525 39 b 361 -14 454 -3 411 -14 b 239 15 315 -14 275 -4 m 514 140 b 569 285 551 178 569 226 l 569 333 l 382 333 b 268 300 331 333 293 322 b 229 208 242 278 229 247 b 267 117 229 169 242 139 b 375 83 292 94 328 83 b 514 140 431 83 476 103 m 190 833 l 371 1035 l 461 1035 l 642 833 l 531 833 l 419 958 l 413 958 l 301 833 "},"ã":{"ha":833,"x_min":0,"x_max":0,"o":"m 239 15 b 156 96 203 35 175 61 b 125 208 135 129 125 167 b 157 322 125 250 136 288 b 246 401 178 356 207 382 b 382 431 285 421 331 431 l 569 431 l 569 479 b 526 596 569 528 556 567 b 410 639 497 625 458 639 b 313 614 372 639 339 631 b 257 535 286 597 267 571 l 153 535 b 239 683 163 597 192 647 b 410 736 285 718 342 736 b 601 665 489 736 553 713 b 674 479 650 618 674 556 l 674 0 l 590 0 l 576 90 l 569 90 b 490 18 551 64 525 39 b 361 -14 454 -3 411 -14 b 239 15 315 -14 275 -4 m 514 140 b 569 285 551 178 569 226 l 569 333 l 382 333 b 268 300 331 333 293 322 b 229 208 242 278 229 247 b 267 117 229 169 242 139 b 375 83 292 94 328 83 b 514 140 431 83 476 103 m 201 854 b 235 961 201 900 213 935 b 326 1000 257 988 288 1000 b 379 990 346 1000 364 997 b 439 957 394 983 415 972 b 472 939 450 950 461 944 b 500 931 482 933 492 931 b 531 949 513 931 522 936 b 542 993 538 960 542 975 l 632 993 b 599 886 632 947 621 913 b 507 847 576 860 546 847 b 454 858 488 847 469 851 b 394 890 439 865 418 875 b 363 908 383 897 372 903 b 333 917 351 914 342 917 b 303 900 321 917 310 911 b 292 854 296 889 292 874 l 201 854 "},"ä":{"ha":833,"x_min":0,"x_max":0,"o":"m 239 15 b 156 96 203 35 175 61 b 125 208 135 129 125 167 b 157 322 125 250 136 288 b 246 401 178 356 207 382 b 382 431 285 421 331 431 l 569 431 l 569 479 b 526 596 569 528 556 567 b 410 639 497 625 458 639 b 313 614 372 639 339 631 b 257 535 286 597 267 571 l 153 535 b 239 683 163 597 192 647 b 410 736 285 718 342 736 b 601 665 489 736 553 713 b 674 479 650 618 674 556 l 674 0 l 590 0 l 576 90 l 569 90 b 490 18 551 64 525 39 b 361 -14 454 -3 411 -14 b 239 15 315 -14 275 -4 m 514 140 b 569 285 551 178 569 226 l 569 333 l 382 333 b 268 300 331 333 293 322 b 229 208 242 278 229 247 b 267 117 229 169 242 139 b 375 83 292 94 328 83 b 514 140 431 83 476 103 m 244 876 b 222 926 229 890 222 907 b 244 979 222 947 229 964 b 296 1000 258 993 275 1000 b 347 979 317 1000 333 993 b 368 926 361 964 368 947 b 347 876 368 907 361 890 b 296 854 333 861 317 854 b 244 876 275 854 258 861 m 488 876 b 465 926 472 890 465 907 b 488 979 465 947 472 964 b 539 1000 501 993 518 1000 b 590 979 560 1000 576 993 b 611 926 604 964 611 947 b 590 876 611 907 604 890 b 539 854 576 861 560 854 b 488 876 518 854 501 861 "},"å":{"ha":833,"x_min":0,"x_max":0,"o":"m 239 15 b 156 96 203 35 175 61 b 125 208 135 129 125 167 b 157 322 125 250 136 288 b 246 401 178 356 207 382 b 382 431 285 421 331 431 l 569 431 l 569 479 b 526 596 569 528 556 567 b 410 639 497 625 458 639 b 313 614 372 639 339 631 b 257 535 286 597 267 571 l 153 535 b 239 683 163 597 192 647 b 410 736 285 718 342 736 b 601 665 489 736 553 713 b 674 479 650 618 674 556 l 674 0 l 590 0 l 576 90 l 569 90 b 490 18 551 64 525 39 b 361 -14 454 -3 411 -14 b 239 15 315 -14 275 -4 m 514 140 b 569 285 551 178 569 226 l 569 333 l 382 333 b 268 300 331 333 293 322 b 229 208 242 278 229 247 b 267 117 229 169 242 139 b 375 83 292 94 328 83 b 514 140 431 83 476 103 m 319 836 b 282 933 294 861 282 893 b 319 1032 282 974 294 1006 b 417 1069 344 1057 376 1069 b 515 1032 457 1069 489 1057 b 553 933 540 1007 553 974 b 515 836 553 893 540 861 b 417 799 489 811 457 799 b 319 836 376 799 344 811 m 467 886 b 483 933 478 899 483 914 b 467 982 483 954 478 969 b 417 1000 456 994 439 1000 b 368 982 396 1000 379 994 b 351 933 357 969 351 954 b 368 886 351 914 357 899 b 417 868 379 874 396 868 b 467 886 439 868 456 874 "},"æ":{"ha":833,"x_min":0,"x_max":0,"o":"m 465 333 b 499 140 468 243 479 178 b 583 83 518 103 546 83 b 674 188 629 83 660 118 l 785 188 b 714 35 772 118 749 67 b 590 -14 679 3 639 -14 b 481 18 544 -14 507 -3 b 417 111 453 39 432 71 b 343 18 399 71 374 39 b 222 -14 313 -3 272 -14 b 76 46 163 -14 114 6 b 21 208 39 86 21 140 b 82 365 21 274 42 325 b 243 424 122 404 175 424 l 354 424 l 354 479 b 250 639 354 586 319 639 b 182 610 221 639 197 629 b 153 535 167 590 157 565 l 49 535 b 117 688 58 603 82 654 b 250 736 151 719 196 736 b 351 708 288 736 321 726 b 417 625 382 689 404 661 b 481 704 428 656 449 682 b 590 736 511 725 547 736 b 747 656 656 736 708 710 b 806 403 786 601 806 517 b 799 333 806 382 803 360 m 701 424 b 668 589 697 500 686 554 b 583 639 649 622 621 639 b 499 588 546 639 517 622 b 467 424 481 553 469 499 l 701 424 m 243 333 b 157 300 207 333 178 322 b 125 208 136 278 125 247 b 153 115 125 168 135 136 b 229 83 171 94 197 83 b 319 132 267 83 296 100 b 354 285 343 164 354 215 l 354 333 "},"ç":{"ha":833,"x_min":0,"x_max":0,"o":"m 543 113 b 611 188 575 132 599 157 l 715 188 b 626 51 699 133 669 89 b 471 -12 583 14 532 -7 l 454 -50 b 532 -86 488 -54 514 -65 b 560 -160 550 -106 560 -131 b 524 -250 560 -197 547 -226 b 435 -285 500 -274 469 -285 l 351 -285 l 351 -215 l 421 -215 b 463 -201 439 -215 453 -211 b 476 -160 472 -192 476 -178 b 461 -125 476 -146 471 -135 b 421 -111 451 -115 438 -111 l 365 -111 l 365 -62 l 389 -10 b 193 106 308 1 243 40 b 118 361 143 171 118 257 b 160 561 118 438 132 504 b 275 692 188 618 226 661 b 438 736 324 721 378 736 b 615 679 507 736 567 717 b 715 535 664 642 697 593 l 611 535 b 544 610 599 565 576 590 b 438 639 511 629 475 639 b 329 607 397 639 361 628 b 251 511 296 585 269 553 b 222 361 232 469 222 419 b 251 211 222 303 232 253 b 329 117 269 169 296 138 b 438 83 361 94 397 83 b 543 113 475 83 511 93 "},"è":{"ha":833,"x_min":0,"x_max":0,"o":"m 203 333 b 268 149 207 254 228 192 b 417 83 307 106 357 83 b 518 111 454 83 488 93 b 594 188 549 129 574 156 l 706 188 b 593 40 682 125 644 76 b 417 -14 542 4 482 -14 b 251 32 354 -14 300 1 b 139 161 203 61 165 104 b 97 361 111 218 97 285 b 139 561 97 438 111 504 b 254 692 167 618 206 661 b 417 736 303 721 357 736 b 579 693 476 736 531 722 b 694 572 628 664 665 624 b 736 403 722 521 736 465 b 729 333 736 382 733 360 m 632 424 b 565 578 626 486 604 538 b 417 639 525 618 476 639 b 276 585 361 639 314 621 b 206 424 238 547 214 494 l 632 424 m 375 833 l 215 1028 l 347 1028 l 472 833 "},"é":{"ha":833,"x_min":0,"x_max":0,"o":"m 203 333 b 268 149 207 254 228 192 b 417 83 307 106 357 83 b 518 111 454 83 488 93 b 594 188 549 129 574 156 l 706 188 b 593 40 682 125 644 76 b 417 -14 542 4 482 -14 b 251 32 354 -14 300 1 b 139 161 203 61 165 104 b 97 361 111 218 97 285 b 139 561 97 438 111 504 b 254 692 167 618 206 661 b 417 736 303 721 357 736 b 579 693 476 736 531 722 b 694 572 628 664 665 624 b 736 403 722 521 736 465 b 729 333 736 382 733 360 m 632 424 b 565 578 626 486 604 538 b 417 639 525 618 476 639 b 276 585 361 639 314 621 b 206 424 238 547 214 494 l 632 424 m 361 833 l 486 1028 l 618 1028 l 458 833 "},"ê":{"ha":833,"x_min":0,"x_max":0,"o":"m 203 333 b 268 149 207 254 228 192 b 417 83 307 106 357 83 b 518 111 454 83 488 93 b 594 188 549 129 574 156 l 706 188 b 593 40 682 125 644 76 b 417 -14 542 4 482 -14 b 251 32 354 -14 300 1 b 139 161 203 61 165 104 b 97 361 111 218 97 285 b 139 561 97 438 111 504 b 254 692 167 618 206 661 b 417 736 303 721 357 736 b 579 693 476 736 531 722 b 694 572 628 664 665 624 b 736 403 722 521 736 465 b 729 333 736 382 733 360 m 632 424 b 565 578 626 486 604 538 b 417 639 525 618 476 639 b 276 585 361 639 314 621 b 206 424 238 547 214 494 l 632 424 m 190 833 l 371 1035 l 461 1035 l 642 833 l 531 833 l 419 958 l 413 958 l 301 833 "},"ë":{"ha":833,"x_min":0,"x_max":0,"o":"m 203 333 b 268 149 207 254 228 192 b 417 83 307 106 357 83 b 518 111 454 83 488 93 b 594 188 549 129 574 156 l 706 188 b 593 40 682 125 644 76 b 417 -14 542 4 482 -14 b 251 32 354 -14 300 1 b 139 161 203 61 165 104 b 97 361 111 218 97 285 b 139 561 97 438 111 504 b 254 692 167 618 206 661 b 417 736 303 721 357 736 b 579 693 476 736 531 722 b 694 572 628 664 665 624 b 736 403 722 521 736 465 b 729 333 736 382 733 360 m 632 424 b 565 578 626 486 604 538 b 417 639 525 618 476 639 b 276 585 361 639 314 621 b 206 424 238 547 214 494 l 632 424 m 244 876 b 222 926 229 890 222 907 b 244 979 222 947 229 964 b 296 1000 258 993 275 1000 b 347 979 317 1000 333 993 b 368 926 361 964 368 947 b 347 876 368 907 361 890 b 296 854 333 861 317 854 b 244 876 275 854 258 861 m 488 876 b 465 926 472 890 465 907 b 488 979 465 947 472 964 b 539 1000 501 993 518 1000 b 590 979 560 1000 576 993 b 611 926 604 964 611 947 b 590 876 611 907 604 890 b 539 854 576 861 560 854 b 488 876 518 854 501 861 "},"ì":{"ha":833,"x_min":0,"x_max":0,"o":"m 160 0 l 160 97 l 375 97 l 375 625 l 215 625 l 215 722 l 479 722 l 479 97 l 681 97 l 681 0 m 386 833 l 226 1028 l 358 1028 l 483 833 "},"í":{"ha":833,"x_min":0,"x_max":0,"o":"m 160 0 l 160 97 l 375 97 l 375 625 l 215 625 l 215 722 l 479 722 l 479 97 l 681 97 l 681 0 m 372 833 l 497 1028 l 629 1028 l 469 833 "},"î":{"ha":833,"x_min":0,"x_max":0,"o":"m 160 0 l 160 97 l 375 97 l 375 625 l 215 625 l 215 722 l 479 722 l 479 97 l 681 97 l 681 0 m 201 833 l 382 1035 l 472 1035 l 653 833 l 542 833 l 431 958 l 424 958 l 313 833 "},"ï":{"ha":833,"x_min":0,"x_max":0,"o":"m 160 0 l 160 97 l 375 97 l 375 625 l 215 625 l 215 722 l 479 722 l 479 97 l 681 97 l 681 0 m 256 876 b 233 926 240 890 233 907 b 256 979 233 947 240 964 b 307 1000 269 993 286 1000 b 358 979 328 1000 344 993 b 379 926 372 964 379 947 b 358 876 379 907 372 890 b 307 854 344 861 328 854 b 256 876 286 854 269 861 m 499 876 b 476 926 483 890 476 907 b 499 979 476 947 483 964 b 550 1000 513 993 529 1000 b 601 979 571 1000 588 993 b 622 926 615 964 622 947 b 601 876 622 907 615 890 b 550 854 588 861 571 854 b 499 876 529 854 513 861 "},"ð":{"ha":833,"x_min":0,"x_max":0,"o":"m 546 832 b 683 611 606 767 651 693 b 729 347 714 529 729 442 b 690 161 729 276 717 215 b 578 33 664 107 626 64 b 403 -14 529 1 471 -14 b 243 26 343 -14 289 0 b 136 144 197 53 161 93 b 97 326 110 196 97 256 b 135 506 97 394 110 454 b 239 625 158 557 193 596 b 396 667 285 653 336 667 b 499 649 431 667 464 661 b 576 604 533 636 558 622 l 583 604 b 456 792 556 668 513 731 l 285 714 l 243 797 l 382 860 b 188 986 328 906 263 949 l 354 986 b 474 901 394 963 435 933 l 614 965 l 656 882 l 546 832 m 563 147 b 618 326 600 189 618 249 b 563 507 618 404 600 464 b 410 569 525 549 474 569 b 258 507 346 569 296 549 b 201 326 221 464 201 404 b 258 147 201 249 221 189 b 410 83 296 104 346 83 b 563 147 474 83 525 104 "},"ñ":{"ha":833,"x_min":0,"x_max":0,"o":"m 139 722 l 222 722 l 236 625 l 243 625 b 329 710 267 664 294 692 b 438 736 364 728 400 736 b 569 701 486 736 531 725 b 661 600 608 678 639 643 b 694 444 683 556 694 504 l 694 0 l 590 0 l 590 444 b 544 588 590 506 575 553 b 424 639 514 622 474 639 b 332 613 389 639 358 631 b 267 542 304 594 282 571 b 243 444 251 511 243 479 l 243 0 l 139 0 m 201 854 b 235 961 201 900 213 935 b 326 1000 257 988 288 1000 b 379 990 346 1000 364 997 b 439 957 394 983 415 972 b 472 939 450 950 461 944 b 500 931 482 933 492 931 b 531 949 513 931 522 936 b 542 993 538 960 542 975 l 632 993 b 599 886 632 947 621 913 b 507 847 576 860 546 847 b 454 858 488 847 469 851 b 394 890 439 865 418 875 b 363 908 383 897 372 903 b 333 917 351 914 342 917 b 303 900 321 917 310 911 b 292 854 296 889 292 874 l 201 854 "},"ò":{"ha":833,"x_min":0,"x_max":0,"o":"m 254 32 b 139 161 206 61 167 104 b 97 361 111 218 97 285 b 139 561 97 438 111 504 b 254 692 167 618 206 661 b 417 736 303 721 357 736 b 581 692 476 736 532 721 b 694 561 629 661 667 618 b 736 361 722 504 736 438 b 694 161 736 285 722 218 b 581 32 667 104 629 61 b 417 -14 532 1 476 -14 b 254 32 357 -14 303 1 m 526 117 b 604 211 558 138 585 169 b 632 361 622 253 632 303 b 604 511 632 419 622 469 b 526 607 585 553 558 585 b 417 639 493 628 457 639 b 308 607 376 639 340 628 b 231 511 275 585 249 553 b 201 361 211 469 201 419 b 231 211 201 303 211 253 b 308 117 249 169 275 138 b 417 83 340 94 376 83 b 526 117 457 83 493 94 m 375 833 l 215 1028 l 347 1028 l 472 833 "},"ó":{"ha":833,"x_min":0,"x_max":0,"o":"m 254 32 b 139 161 206 61 167 104 b 97 361 111 218 97 285 b 139 561 97 438 111 504 b 254 692 167 618 206 661 b 417 736 303 721 357 736 b 581 692 476 736 532 721 b 694 561 629 661 667 618 b 736 361 722 504 736 438 b 694 161 736 285 722 218 b 581 32 667 104 629 61 b 417 -14 532 1 476 -14 b 254 32 357 -14 303 1 m 526 117 b 604 211 558 138 585 169 b 632 361 622 253 632 303 b 604 511 632 419 622 469 b 526 607 585 553 558 585 b 417 639 493 628 457 639 b 308 607 376 639 340 628 b 231 511 275 585 249 553 b 201 361 211 469 201 419 b 231 211 201 303 211 253 b 308 117 249 169 275 138 b 417 83 340 94 376 83 b 526 117 457 83 493 94 m 361 833 l 486 1028 l 618 1028 l 458 833 "},"ô":{"ha":833,"x_min":0,"x_max":0,"o":"m 254 32 b 139 161 206 61 167 104 b 97 361 111 218 97 285 b 139 561 97 438 111 504 b 254 692 167 618 206 661 b 417 736 303 721 357 736 b 581 692 476 736 532 721 b 694 561 629 661 667 618 b 736 361 722 504 736 438 b 694 161 736 285 722 218 b 581 32 667 104 629 61 b 417 -14 532 1 476 -14 b 254 32 357 -14 303 1 m 526 117 b 604 211 558 138 585 169 b 632 361 622 253 632 303 b 604 511 632 419 622 469 b 526 607 585 553 558 585 b 417 639 493 628 457 639 b 308 607 376 639 340 628 b 231 511 275 585 249 553 b 201 361 211 469 201 419 b 231 211 201 303 211 253 b 308 117 249 169 275 138 b 417 83 340 94 376 83 b 526 117 457 83 493 94 m 190 833 l 371 1035 l 461 1035 l 642 833 l 531 833 l 419 958 l 413 958 l 301 833 "},"õ":{"ha":833,"x_min":0,"x_max":0,"o":"m 254 32 b 139 161 206 61 167 104 b 97 361 111 218 97 285 b 139 561 97 438 111 504 b 254 692 167 618 206 661 b 417 736 303 721 357 736 b 581 692 476 736 532 721 b 694 561 629 661 667 618 b 736 361 722 504 736 438 b 694 161 736 285 722 218 b 581 32 667 104 629 61 b 417 -14 532 1 476 -14 b 254 32 357 -14 303 1 m 526 117 b 604 211 558 138 585 169 b 632 361 622 253 632 303 b 604 511 632 419 622 469 b 526 607 585 553 558 585 b 417 639 493 628 457 639 b 308 607 376 639 340 628 b 231 511 275 585 249 553 b 201 361 211 469 201 419 b 231 211 201 303 211 253 b 308 117 249 169 275 138 b 417 83 340 94 376 83 b 526 117 457 83 493 94 m 201 854 b 235 961 201 900 213 935 b 326 1000 257 988 288 1000 b 379 990 346 1000 364 997 b 439 957 394 983 415 972 b 472 939 450 950 461 944 b 500 931 482 933 492 931 b 531 949 513 931 522 936 b 542 993 538 960 542 975 l 632 993 b 599 886 632 947 621 913 b 507 847 576 860 546 847 b 454 858 488 847 469 851 b 394 890 439 865 418 875 b 363 908 383 897 372 903 b 333 917 351 914 342 917 b 303 900 321 917 310 911 b 292 854 296 889 292 874 l 201 854 "},"ö":{"ha":833,"x_min":0,"x_max":0,"o":"m 254 32 b 139 161 206 61 167 104 b 97 361 111 218 97 285 b 139 561 97 438 111 504 b 254 692 167 618 206 661 b 417 736 303 721 357 736 b 581 692 476 736 532 721 b 694 561 629 661 667 618 b 736 361 722 504 736 438 b 694 161 736 285 722 218 b 581 32 667 104 629 61 b 417 -14 532 1 476 -14 b 254 32 357 -14 303 1 m 526 117 b 604 211 558 138 585 169 b 632 361 622 253 632 303 b 604 511 632 419 622 469 b 526 607 585 553 558 585 b 417 639 493 628 457 639 b 308 607 376 639 340 628 b 231 511 275 585 249 553 b 201 361 211 469 201 419 b 231 211 201 303 211 253 b 308 117 249 169 275 138 b 417 83 340 94 376 83 b 526 117 457 83 493 94 m 244 876 b 222 926 229 890 222 907 b 244 979 222 947 229 964 b 296 1000 258 993 275 1000 b 347 979 317 1000 333 993 b 368 926 361 964 368 947 b 347 876 368 907 361 890 b 296 854 333 861 317 854 b 244 876 275 854 258 861 m 488 876 b 465 926 472 890 465 907 b 488 979 465 947 472 964 b 539 1000 501 993 518 1000 b 590 979 560 1000 576 993 b 611 926 604 964 611 947 b 590 876 611 907 604 890 b 539 854 576 861 560 854 b 488 876 518 854 501 861 "},"÷":{"ha":833,"x_min":0,"x_max":0,"o":"m 369 653 b 350 699 357 665 350 681 b 369 744 350 717 357 732 b 417 764 382 757 397 764 b 465 744 436 764 453 757 b 483 699 478 732 483 717 b 465 653 483 681 478 665 b 417 633 453 640 436 633 b 369 653 397 633 382 640 m 90 385 l 90 476 l 743 476 l 743 385 m 369 117 b 350 163 357 129 350 144 b 369 208 350 181 357 196 b 417 228 382 221 397 228 b 465 208 436 228 453 221 b 483 163 478 196 483 181 b 465 117 483 144 478 129 b 417 97 453 104 436 97 b 369 117 397 97 382 104 "},"ø":{"ha":833,"x_min":0,"x_max":0,"o":"m 646 635 b 713 515 675 601 697 561 b 736 361 728 469 736 418 b 694 161 736 285 722 218 b 581 32 667 104 629 61 b 417 -14 532 1 476 -14 b 256 29 358 -14 304 0 l 219 -28 l 114 -28 l 188 88 b 121 207 158 121 136 161 b 97 361 106 253 97 304 b 139 561 97 438 111 504 b 254 692 167 618 206 661 b 417 736 303 721 357 736 b 578 693 475 736 529 722 l 614 750 l 719 750 l 646 635 m 522 608 b 417 639 493 629 457 639 b 308 607 376 639 340 628 b 231 511 275 585 249 553 b 201 361 211 469 201 419 b 247 179 201 288 217 228 m 526 117 b 604 211 558 138 585 169 b 632 361 622 253 632 303 b 586 543 632 435 617 494 l 311 114 b 417 83 340 93 376 83 b 526 117 457 83 493 94 "},"ù":{"ha":833,"x_min":0,"x_max":0,"o":"m 264 22 b 172 124 225 46 194 79 b 139 278 150 167 139 218 l 139 722 l 243 722 l 243 278 b 289 135 243 217 258 169 b 410 83 319 100 360 83 b 503 110 444 83 475 92 b 567 182 529 128 551 151 b 590 278 582 211 590 243 l 590 722 l 694 722 l 694 0 l 611 0 l 597 97 l 590 97 b 506 13 567 58 539 31 b 396 -14 471 -6 435 -14 b 264 22 347 -14 303 -3 m 375 833 l 215 1028 l 347 1028 l 472 833 "},"ú":{"ha":833,"x_min":0,"x_max":0,"o":"m 264 22 b 172 124 225 46 194 79 b 139 278 150 167 139 218 l 139 722 l 243 722 l 243 278 b 289 135 243 217 258 169 b 410 83 319 100 360 83 b 503 110 444 83 475 92 b 567 182 529 128 551 151 b 590 278 582 211 590 243 l 590 722 l 694 722 l 694 0 l 611 0 l 597 97 l 590 97 b 506 13 567 58 539 31 b 396 -14 471 -6 435 -14 b 264 22 347 -14 303 -3 m 361 833 l 486 1028 l 618 1028 l 458 833 "},"û":{"ha":833,"x_min":0,"x_max":0,"o":"m 264 22 b 172 124 225 46 194 79 b 139 278 150 167 139 218 l 139 722 l 243 722 l 243 278 b 289 135 243 217 258 169 b 410 83 319 100 360 83 b 503 110 444 83 475 92 b 567 182 529 128 551 151 b 590 278 582 211 590 243 l 590 722 l 694 722 l 694 0 l 611 0 l 597 97 l 590 97 b 506 13 567 58 539 31 b 396 -14 471 -6 435 -14 b 264 22 347 -14 303 -3 m 190 833 l 371 1035 l 461 1035 l 642 833 l 531 833 l 419 958 l 413 958 l 301 833 "},"ü":{"ha":833,"x_min":0,"x_max":0,"o":"m 264 22 b 172 124 225 46 194 79 b 139 278 150 167 139 218 l 139 722 l 243 722 l 243 278 b 289 135 243 217 258 169 b 410 83 319 100 360 83 b 503 110 444 83 475 92 b 567 182 529 128 551 151 b 590 278 582 211 590 243 l 590 722 l 694 722 l 694 0 l 611 0 l 597 97 l 590 97 b 506 13 567 58 539 31 b 396 -14 471 -6 435 -14 b 264 22 347 -14 303 -3 m 244 876 b 222 926 229 890 222 907 b 244 979 222 947 229 964 b 296 1000 258 993 275 1000 b 347 979 317 1000 333 993 b 368 926 361 964 368 947 b 347 876 368 907 361 890 b 296 854 333 861 317 854 b 244 876 275 854 258 861 m 488 876 b 465 926 472 890 465 907 b 488 979 465 947 472 964 b 539 1000 501 993 518 1000 b 590 979 560 1000 576 993 b 611 926 604 964 611 947 b 590 876 611 907 604 890 b 539 854 576 861 560 854 b 488 876 518 854 501 861 "},"ý":{"ha":833,"x_min":0,"x_max":0,"o":"m 254 -278 l 365 0 l 74 722 l 186 722 l 417 139 l 424 139 l 651 722 l 761 722 l 365 -278 m 363 833 l 488 1028 l 619 1028 l 460 833 "},"þ":{"ha":833,"x_min":0,"x_max":0,"o":"m 139 972 l 243 972 l 243 632 l 250 632 b 451 736 303 701 369 736 b 599 694 506 736 556 722 b 700 568 642 665 675 624 b 736 361 724 511 736 443 b 700 156 736 279 724 211 b 599 29 675 99 642 57 b 451 -14 556 0 506 -14 b 250 90 369 -14 303 21 l 243 90 l 243 -278 l 139 -278 m 536 115 b 606 208 565 136 588 167 b 632 361 624 250 632 301 b 606 514 632 421 624 472 b 536 608 588 556 565 588 b 438 639 507 629 474 639 b 340 608 401 639 369 629 b 269 514 311 588 288 556 b 243 361 251 472 243 421 b 269 208 243 301 251 250 b 340 115 288 167 311 136 b 438 83 369 94 401 83 b 536 115 474 83 507 94 "},"ÿ":{"ha":833,"x_min":0,"x_max":0,"o":"m 254 -278 l 365 0 l 74 722 l 186 722 l 417 139 l 424 139 l 651 722 l 761 722 l 365 -278 m 246 876 b 224 926 231 890 224 907 b 246 979 224 947 231 964 b 297 1000 260 993 276 1000 b 349 979 318 1000 335 993 b 369 926 363 964 369 947 b 349 876 369 907 363 890 b 297 854 335 861 318 854 b 246 876 276 854 260 861 m 489 876 b 467 926 474 890 467 907 b 489 979 467 947 474 964 b 540 1000 503 993 519 1000 b 592 979 561 1000 578 993 b 613 926 606 964 613 947 b 592 876 613 907 606 890 b 540 854 578 861 561 854 b 489 876 519 854 503 861 "},"Ā":{"ha":833,"x_min":0,"x_max":0,"o":"m 671 0 l 594 243 l 239 243 l 163 0 l 42 0 l 354 972 l 479 972 l 792 0 m 272 347 l 561 347 l 446 715 l 424 854 l 410 854 l 388 715 m 222 1111 l 222 1201 l 611 1201 l 611 1111 "},"ā":{"ha":833,"x_min":0,"x_max":0,"o":"m 239 15 b 156 96 203 35 175 61 b 125 208 135 129 125 167 b 157 322 125 250 136 288 b 246 401 178 356 207 382 b 382 431 285 421 331 431 l 569 431 l 569 479 b 526 596 569 528 556 567 b 410 639 497 625 458 639 b 313 614 372 639 339 631 b 257 535 286 597 267 571 l 153 535 b 239 683 163 597 192 647 b 410 736 285 718 342 736 b 601 665 489 736 553 713 b 674 479 650 618 674 556 l 674 0 l 590 0 l 576 90 l 569 90 b 490 18 551 64 525 39 b 361 -14 454 -3 411 -14 b 239 15 315 -14 275 -4 m 514 140 b 569 285 551 178 569 226 l 569 333 l 382 333 b 268 300 331 333 293 322 b 229 208 242 278 229 247 b 267 117 229 169 242 139 b 375 83 292 94 328 83 b 514 140 431 83 476 103 m 222 875 l 222 965 l 611 965 l 611 875 "},"Ă":{"ha":833,"x_min":0,"x_max":0,"o":"m 671 0 l 594 243 l 239 243 l 163 0 l 42 0 l 354 972 l 479 972 l 792 0 m 272 347 l 561 347 l 446 715 l 424 854 l 410 854 l 388 715 m 272 1117 b 208 1250 236 1149 215 1193 l 306 1250 b 339 1179 308 1219 319 1196 b 417 1153 358 1161 385 1153 b 494 1179 449 1153 475 1161 b 528 1250 514 1196 525 1219 l 625 1250 b 561 1117 618 1193 597 1149 b 417 1069 525 1085 476 1069 b 272 1117 357 1069 308 1085 "},"ă":{"ha":833,"x_min":0,"x_max":0,"o":"m 239 15 b 156 96 203 35 175 61 b 125 208 135 129 125 167 b 157 322 125 250 136 288 b 246 401 178 356 207 382 b 382 431 285 421 331 431 l 569 431 l 569 479 b 526 596 569 528 556 567 b 410 639 497 625 458 639 b 313 614 372 639 339 631 b 257 535 286 597 267 571 l 153 535 b 239 683 163 597 192 647 b 410 736 285 718 342 736 b 601 665 489 736 553 713 b 674 479 650 618 674 556 l 674 0 l 590 0 l 576 90 l 569 90 b 490 18 551 64 525 39 b 361 -14 454 -3 411 -14 b 239 15 315 -14 275 -4 m 514 140 b 569 285 551 178 569 226 l 569 333 l 382 333 b 268 300 331 333 293 322 b 229 208 242 278 229 247 b 267 117 229 169 242 139 b 375 83 292 94 328 83 b 514 140 431 83 476 103 m 275 878 b 208 1014 238 907 215 951 l 306 1014 b 342 942 310 982 321 957 b 417 917 363 925 388 917 b 492 942 446 917 471 925 b 528 1014 513 957 524 982 l 625 1014 b 558 878 618 951 596 907 b 417 833 521 849 474 833 b 275 878 360 833 313 849 "},"Ą":{"ha":833,"x_min":0,"x_max":0,"o":"m 697 -190 b 754 -208 713 -203 731 -208 l 792 -208 l 792 -285 l 744 -285 b 631 -249 694 -285 657 -272 b 590 -150 604 -225 590 -192 b 688 0 590 -90 622 -40 l 671 0 l 594 243 l 239 243 l 163 0 l 42 0 l 354 972 l 479 972 l 792 0 b 699 -68 746 -25 715 -47 b 674 -139 682 -87 674 -111 b 697 -190 674 -160 682 -178 m 272 347 l 561 347 l 446 715 l 424 854 l 410 854 l 388 715 "},"ą":{"ha":833,"x_min":0,"x_max":0,"o":"m 674 0 b 581 -68 628 -25 597 -47 b 556 -139 564 -87 556 -111 b 579 -190 556 -160 564 -178 b 636 -208 594 -203 613 -208 l 674 -208 l 674 -285 l 626 -285 b 513 -249 576 -285 539 -272 b 472 -150 486 -225 472 -192 b 589 11 472 -83 511 -29 l 576 90 l 569 90 b 490 18 551 64 525 39 b 361 -14 454 -3 411 -14 b 239 15 315 -14 275 -4 b 156 96 203 35 175 61 b 125 208 135 129 125 167 b 157 322 125 250 136 288 b 246 401 178 356 207 382 b 382 431 285 421 331 431 l 569 431 l 569 479 b 526 596 569 528 556 567 b 410 639 497 625 458 639 b 313 614 372 639 339 631 b 257 535 286 597 267 571 l 153 535 b 239 683 163 597 192 647 b 410 736 285 718 342 736 b 601 665 489 736 553 713 b 674 479 650 618 674 556 l 674 0 m 382 333 b 268 300 331 333 293 322 b 229 208 242 278 229 247 b 267 117 229 169 242 139 b 375 83 292 94 328 83 b 514 140 431 83 476 103 b 569 285 551 178 569 226 l 569 333 "},"Ć":{"ha":833,"x_min":0,"x_max":0,"o":"m 240 40 b 115 207 188 76 146 132 b 69 486 85 281 69 374 b 115 767 69 599 85 692 b 240 932 146 840 188 896 b 424 986 293 968 354 986 b 631 917 506 986 575 963 b 751 715 686 871 726 803 l 633 715 b 553 839 615 769 588 810 b 424 882 518 868 475 882 b 253 788 353 882 296 850 b 188 486 210 725 188 624 b 253 185 188 349 210 247 b 424 90 296 122 353 90 b 564 143 478 90 525 108 b 646 306 601 178 629 232 l 764 306 b 640 65 740 197 699 117 b 424 -14 582 13 510 -14 b 240 40 354 -14 293 4 m 368 1069 l 493 1264 l 625 1264 l 465 1069 "},"ć":{"ha":833,"x_min":0,"x_max":0,"o":"m 275 32 b 160 161 226 61 188 104 b 118 361 132 218 118 285 b 160 561 118 438 132 504 b 275 692 188 618 226 661 b 438 736 324 721 378 736 b 615 679 507 736 567 717 b 715 535 664 642 697 593 l 611 535 b 544 610 599 565 576 590 b 438 639 511 629 475 639 b 329 607 397 639 361 628 b 251 511 296 585 269 553 b 222 361 232 469 222 419 b 251 211 222 303 232 253 b 329 117 269 169 296 138 b 438 83 361 94 397 83 b 543 113 475 83 511 93 b 611 188 575 132 599 157 l 715 188 b 615 43 697 129 664 81 b 438 -14 567 6 507 -14 b 275 32 378 -14 324 1 m 375 833 l 500 1028 l 632 1028 l 472 833 "},"Ĉ":{"ha":833,"x_min":0,"x_max":0,"o":"m 240 40 b 115 207 188 76 146 132 b 69 486 85 281 69 374 b 115 767 69 599 85 692 b 240 932 146 840 188 896 b 424 986 293 968 354 986 b 631 917 506 986 575 963 b 751 715 686 871 726 803 l 633 715 b 553 839 615 769 588 810 b 424 882 518 868 475 882 b 253 788 353 882 296 850 b 188 486 210 725 188 624 b 253 185 188 349 210 247 b 424 90 296 122 353 90 b 564 143 478 90 525 108 b 646 306 601 178 629 232 l 764 306 b 640 65 740 197 699 117 b 424 -14 582 13 510 -14 b 240 40 354 -14 293 4 m 197 1069 l 378 1271 l 468 1271 l 649 1069 l 538 1069 l 426 1194 l 419 1194 l 308 1069 "},"ĉ":{"ha":833,"x_min":0,"x_max":0,"o":"m 275 32 b 160 161 226 61 188 104 b 118 361 132 218 118 285 b 160 561 118 438 132 504 b 275 692 188 618 226 661 b 438 736 324 721 378 736 b 615 679 507 736 567 717 b 715 535 664 642 697 593 l 611 535 b 544 610 599 565 576 590 b 438 639 511 629 475 639 b 329 607 397 639 361 628 b 251 511 296 585 269 553 b 222 361 232 469 222 419 b 251 211 222 303 232 253 b 329 117 269 169 296 138 b 438 83 361 94 397 83 b 543 113 475 83 511 93 b 611 188 575 132 599 157 l 715 188 b 615 43 697 129 664 81 b 438 -14 567 6 507 -14 b 275 32 378 -14 324 1 m 204 833 l 385 1035 l 475 1035 l 656 833 l 544 833 l 433 958 l 426 958 l 315 833 "},"Ċ":{"ha":833,"x_min":0,"x_max":0,"o":"m 240 40 b 115 207 188 76 146 132 b 69 486 85 281 69 374 b 115 767 69 599 85 692 b 240 932 146 840 188 896 b 424 986 293 968 354 986 b 631 917 506 986 575 963 b 751 715 686 871 726 803 l 633 715 b 553 839 615 769 588 810 b 424 882 518 868 475 882 b 253 788 353 882 296 850 b 188 486 210 725 188 624 b 253 185 188 349 210 247 b 424 90 296 122 353 90 b 564 143 478 90 525 108 b 646 306 601 178 629 232 l 764 306 b 640 65 740 197 699 117 b 424 -14 582 13 510 -14 b 240 40 354 -14 293 4 m 372 1113 b 350 1163 357 1126 350 1143 b 372 1215 350 1183 357 1200 b 424 1236 386 1229 403 1236 b 475 1215 444 1236 461 1229 b 496 1163 489 1200 496 1183 b 475 1113 496 1143 489 1126 b 424 1090 461 1097 444 1090 b 372 1113 403 1090 386 1097 "},"ċ":{"ha":833,"x_min":0,"x_max":0,"o":"m 275 32 b 160 161 226 61 188 104 b 118 361 132 218 118 285 b 160 561 118 438 132 504 b 275 692 188 618 226 661 b 438 736 324 721 378 736 b 615 679 507 736 567 717 b 715 535 664 642 697 593 l 611 535 b 544 610 599 565 576 590 b 438 639 511 629 475 639 b 329 607 397 639 361 628 b 251 511 296 585 269 553 b 222 361 232 469 222 419 b 251 211 222 303 232 253 b 329 117 269 169 296 138 b 438 83 361 94 397 83 b 543 113 475 83 511 93 b 611 188 575 132 599 157 l 715 188 b 615 43 697 129 664 81 b 438 -14 567 6 507 -14 b 275 32 378 -14 324 1 m 379 876 b 357 926 364 890 357 907 b 379 979 357 947 364 964 b 431 1000 393 993 410 1000 b 482 979 451 1000 468 993 b 503 926 496 964 503 947 b 482 876 503 907 496 890 b 431 854 468 861 451 854 b 379 876 410 854 393 861 "},"Č":{"ha":833,"x_min":0,"x_max":0,"o":"m 240 40 b 115 207 188 76 146 132 b 69 486 85 281 69 374 b 115 767 69 599 85 692 b 240 932 146 840 188 896 b 424 986 293 968 354 986 b 631 917 506 986 575 963 b 751 715 686 871 726 803 l 633 715 b 553 839 615 769 588 810 b 424 882 518 868 475 882 b 253 788 353 882 296 850 b 188 486 210 725 188 624 b 253 185 188 349 210 247 b 424 90 296 122 353 90 b 564 143 478 90 525 108 b 646 306 601 178 629 232 l 764 306 b 640 65 740 197 699 117 b 424 -14 582 13 510 -14 b 240 40 354 -14 293 4 m 378 1069 l 197 1271 l 308 1271 l 419 1146 l 426 1146 l 538 1271 l 649 1271 l 468 1069 "},"č":{"ha":833,"x_min":0,"x_max":0,"o":"m 275 32 b 160 161 226 61 188 104 b 118 361 132 218 118 285 b 160 561 118 438 132 504 b 275 692 188 618 226 661 b 438 736 324 721 378 736 b 615 679 507 736 567 717 b 715 535 664 642 697 593 l 611 535 b 544 610 599 565 576 590 b 438 639 511 629 475 639 b 329 607 397 639 361 628 b 251 511 296 585 269 553 b 222 361 232 469 222 419 b 251 211 222 303 232 253 b 329 117 269 169 296 138 b 438 83 361 94 397 83 b 543 113 475 83 511 93 b 611 188 575 132 599 157 l 715 188 b 615 43 697 129 664 81 b 438 -14 567 6 507 -14 b 275 32 378 -14 324 1 m 385 833 l 204 1035 l 315 1035 l 426 910 l 433 910 l 544 1035 l 656 1035 l 475 833 "},"Ď":{"ha":833,"x_min":0,"x_max":0,"o":"m 118 972 l 333 972 b 564 915 421 972 499 953 b 717 750 629 878 681 822 b 771 486 753 676 771 589 b 717 224 771 383 753 296 b 564 57 681 150 629 94 b 333 0 499 19 421 0 l 118 0 m 333 104 b 500 149 396 104 451 119 b 613 278 549 178 586 221 b 653 486 639 335 653 404 b 613 694 653 568 639 638 b 500 825 586 751 549 796 b 333 868 451 854 396 868 l 236 868 l 236 104 l 333 104 m 385 1069 l 204 1271 l 315 1271 l 426 1146 l 433 1146 l 544 1271 l 656 1271 l 475 1069 "},"ď":{"ha":833,"x_min":0,"x_max":0,"o":"m 236 29 b 135 156 193 57 158 99 b 97 361 110 211 97 279 b 135 568 97 443 110 511 b 236 694 158 624 193 665 b 382 736 279 722 328 736 b 583 632 463 736 529 701 l 590 632 l 590 972 l 694 972 l 694 0 l 611 0 l 597 97 l 590 97 b 382 -14 539 24 469 -14 b 236 29 328 -14 279 0 m 494 115 b 564 208 524 136 546 167 b 590 361 582 250 590 301 b 564 514 590 421 582 472 b 494 608 546 556 524 588 b 396 639 465 629 432 639 b 299 608 360 639 328 629 b 228 514 269 588 246 556 b 201 361 210 472 201 421 b 228 208 201 301 210 250 b 299 115 246 167 269 136 b 396 83 328 94 360 83 b 494 115 432 83 465 94 m 743 750 l 806 972 l 917 972 l 819 750 "},"Đ":{"ha":833,"x_min":0,"x_max":0,"o":"m 333 972 b 564 915 421 972 499 953 b 717 750 629 878 681 822 b 771 486 753 676 771 589 b 717 224 771 383 753 296 b 564 57 681 150 629 94 b 333 0 499 19 421 0 l 118 0 l 118 438 l 21 438 l 21 542 l 118 542 l 118 972 l 333 972 m 333 104 b 500 149 396 104 451 119 b 613 278 549 178 586 221 b 653 486 639 335 653 404 b 613 694 653 568 639 638 b 500 825 586 751 549 796 b 333 868 451 854 396 868 l 236 868 l 236 542 l 417 542 l 417 438 l 236 438 l 236 104 l 333 104 "},"đ":{"ha":833,"x_min":0,"x_max":0,"o":"m 792 764 l 694 764 l 694 0 l 611 0 l 597 97 l 590 97 b 504 17 568 64 539 38 b 382 -14 469 -4 428 -14 b 236 26 328 -14 279 0 b 135 144 193 53 158 93 b 97 326 110 196 97 256 b 135 510 97 397 110 458 b 236 626 158 561 193 600 b 382 667 279 653 328 667 b 496 642 424 667 461 658 b 583 569 531 625 560 601 l 590 569 l 590 764 l 403 764 l 403 861 l 590 861 l 590 972 l 694 972 l 694 861 l 792 861 m 536 147 b 590 326 572 189 590 249 b 536 507 590 404 572 464 b 396 569 500 549 453 569 b 256 507 339 569 292 549 b 201 326 219 464 201 404 b 256 147 201 249 219 189 b 396 83 292 104 339 83 b 536 147 453 83 500 104 "},"Ē":{"ha":833,"x_min":0,"x_max":0,"o":"m 250 104 l 729 104 l 729 0 l 132 0 l 132 972 l 715 972 l 715 868 l 250 868 l 250 542 l 688 542 l 688 438 l 250 438 m 229 1111 l 229 1201 l 618 1201 l 618 1111 "},"ē":{"ha":833,"x_min":0,"x_max":0,"o":"m 203 333 b 268 149 207 254 228 192 b 417 83 307 106 357 83 b 518 111 454 83 488 93 b 594 188 549 129 574 156 l 706 188 b 593 40 682 125 644 76 b 417 -14 542 4 482 -14 b 251 32 354 -14 300 1 b 139 161 203 61 165 104 b 97 361 111 218 97 285 b 139 561 97 438 111 504 b 254 692 167 618 206 661 b 417 736 303 721 357 736 b 579 693 476 736 531 722 b 694 572 628 664 665 624 b 736 403 722 521 736 465 b 729 333 736 382 733 360 m 632 424 b 565 578 626 486 604 538 b 417 639 525 618 476 639 b 276 585 361 639 314 621 b 206 424 238 547 214 494 l 632 424 m 222 875 l 222 965 l 611 965 l 611 875 "},"Ĕ":{"ha":833,"x_min":0,"x_max":0,"o":"m 250 104 l 729 104 l 729 0 l 132 0 l 132 972 l 715 972 l 715 868 l 250 868 l 250 542 l 688 542 l 688 438 l 250 438 m 279 1117 b 215 1250 243 1149 222 1193 l 313 1250 b 346 1179 315 1219 326 1196 b 424 1153 365 1161 392 1153 b 501 1179 456 1153 482 1161 b 535 1250 521 1196 532 1219 l 632 1250 b 568 1117 625 1193 604 1149 b 424 1069 532 1085 483 1069 b 279 1117 364 1069 315 1085 "},"ĕ":{"ha":833,"x_min":0,"x_max":0,"o":"m 203 333 b 268 149 207 254 228 192 b 417 83 307 106 357 83 b 518 111 454 83 488 93 b 594 188 549 129 574 156 l 706 188 b 593 40 682 125 644 76 b 417 -14 542 4 482 -14 b 251 32 354 -14 300 1 b 139 161 203 61 165 104 b 97 361 111 218 97 285 b 139 561 97 438 111 504 b 254 692 167 618 206 661 b 417 736 303 721 357 736 b 579 693 476 736 531 722 b 694 572 628 664 665 624 b 736 403 722 521 736 465 b 729 333 736 382 733 360 m 632 424 b 565 578 626 486 604 538 b 417 639 525 618 476 639 b 276 585 361 639 314 621 b 206 424 238 547 214 494 l 632 424 m 275 878 b 208 1014 238 907 215 951 l 306 1014 b 342 942 310 982 321 957 b 417 917 363 925 388 917 b 492 942 446 917 471 925 b 528 1014 513 957 524 982 l 625 1014 b 558 878 618 951 596 907 b 417 833 521 849 474 833 b 275 878 360 833 313 849 "},"Ė":{"ha":833,"x_min":0,"x_max":0,"o":"m 250 104 l 729 104 l 729 0 l 132 0 l 132 972 l 715 972 l 715 868 l 250 868 l 250 542 l 688 542 l 688 438 l 250 438 m 372 1113 b 350 1163 357 1126 350 1143 b 372 1215 350 1183 357 1200 b 424 1236 386 1229 403 1236 b 475 1215 444 1236 461 1229 b 496 1163 489 1200 496 1183 b 475 1113 496 1143 489 1126 b 424 1090 461 1097 444 1090 b 372 1113 403 1090 386 1097 "},"ė":{"ha":833,"x_min":0,"x_max":0,"o":"m 203 333 b 268 149 207 254 228 192 b 417 83 307 106 357 83 b 518 111 454 83 488 93 b 594 188 549 129 574 156 l 706 188 b 593 40 682 125 644 76 b 417 -14 542 4 482 -14 b 251 32 354 -14 300 1 b 139 161 203 61 165 104 b 97 361 111 218 97 285 b 139 561 97 438 111 504 b 254 692 167 618 206 661 b 417 736 303 721 357 736 b 579 693 476 736 531 722 b 694 572 628 664 665 624 b 736 403 722 521 736 465 b 729 333 736 382 733 360 m 632 424 b 565 578 626 486 604 538 b 417 639 525 618 476 639 b 276 585 361 639 314 621 b 206 424 238 547 214 494 l 632 424 m 365 876 b 343 926 350 890 343 907 b 365 979 343 947 350 964 b 417 1000 379 993 396 1000 b 468 979 438 1000 454 993 b 489 926 482 964 489 947 b 468 876 489 907 482 890 b 417 854 454 861 438 854 b 365 876 396 854 379 861 "},"Ę":{"ha":833,"x_min":0,"x_max":0,"o":"m 729 0 b 636 -68 683 -25 653 -47 b 611 -139 619 -87 611 -111 b 635 -190 611 -160 619 -178 b 692 -208 650 -203 668 -208 l 729 -208 l 729 -285 l 682 -285 b 568 -249 632 -285 594 -272 b 528 -150 542 -225 528 -192 b 625 0 528 -90 560 -40 l 132 0 l 132 972 l 715 972 l 715 868 l 250 868 l 250 542 l 688 542 l 688 438 l 250 438 l 250 104 l 729 104 l 729 0 "},"ę":{"ha":833,"x_min":0,"x_max":0,"o":"m 203 333 b 268 149 207 254 228 192 b 417 83 307 106 357 83 b 518 111 454 83 488 93 b 594 188 549 129 574 156 l 706 188 b 665 107 693 157 681 131 b 610 33 650 83 631 60 b 551 -51 583 0 564 -28 b 532 -132 539 -74 532 -100 b 554 -189 532 -156 539 -175 b 613 -208 569 -201 589 -208 l 650 -208 l 650 -285 l 603 -285 b 489 -249 553 -285 515 -272 b 449 -146 463 -224 449 -189 b 465 -71 449 -118 454 -93 b 511 0 475 -47 490 -24 b 417 -14 485 -10 453 -14 b 251 32 354 -14 300 1 b 139 161 203 61 165 104 b 97 361 111 218 97 285 b 139 561 97 438 111 504 b 254 692 167 618 206 661 b 417 736 303 721 357 736 b 579 693 476 736 531 722 b 694 572 628 664 665 624 b 736 403 722 521 736 465 b 729 333 736 382 733 360 m 632 424 b 565 578 626 486 604 538 b 417 639 525 618 476 639 b 276 585 361 639 314 621 b 206 424 238 547 214 494 l 632 424 "},"Ě":{"ha":833,"x_min":0,"x_max":0,"o":"m 250 104 l 729 104 l 729 0 l 132 0 l 132 972 l 715 972 l 715 868 l 250 868 l 250 542 l 688 542 l 688 438 l 250 438 m 378 1069 l 197 1271 l 308 1271 l 419 1146 l 426 1146 l 538 1271 l 649 1271 l 468 1069 "},"ě":{"ha":833,"x_min":0,"x_max":0,"o":"m 203 333 b 268 149 207 254 228 192 b 417 83 307 106 357 83 b 518 111 454 83 488 93 b 594 188 549 129 574 156 l 706 188 b 593 40 682 125 644 76 b 417 -14 542 4 482 -14 b 251 32 354 -14 300 1 b 139 161 203 61 165 104 b 97 361 111 218 97 285 b 139 561 97 438 111 504 b 254 692 167 618 206 661 b 417 736 303 721 357 736 b 579 693 476 736 531 722 b 694 572 628 664 665 624 b 736 403 722 521 736 465 b 729 333 736 382 733 360 m 632 424 b 565 578 626 486 604 538 b 417 639 525 618 476 639 b 276 585 361 639 314 621 b 206 424 238 547 214 494 l 632 424 m 371 833 l 190 1035 l 301 1035 l 413 910 l 419 910 l 531 1035 l 642 1035 l 461 833 "},"Ĝ":{"ha":833,"x_min":0,"x_max":0,"o":"m 233 40 b 108 207 181 76 139 132 b 63 486 78 281 63 374 b 108 767 63 599 78 692 b 233 932 139 840 181 896 b 417 986 286 968 347 986 b 624 917 499 986 568 963 b 744 715 679 871 719 803 l 626 715 b 546 839 608 769 581 810 b 417 882 511 868 468 882 b 246 788 346 882 289 850 b 181 486 203 725 181 624 b 246 185 181 349 203 247 b 417 90 289 122 346 90 b 579 174 485 90 539 118 b 647 389 619 229 643 301 l 444 389 l 444 493 l 771 493 l 771 472 b 733 229 771 383 758 303 b 617 53 708 156 669 97 b 417 -14 563 8 496 -14 b 233 40 347 -14 286 4 m 190 1069 l 371 1271 l 461 1271 l 642 1069 l 531 1069 l 419 1194 l 413 1194 l 301 1069 "},"ĝ":{"ha":833,"x_min":0,"x_max":0,"o":"m 218 -222 b 111 -62 164 -185 128 -132 l 219 -62 b 292 -150 232 -100 257 -129 b 403 -181 326 -171 363 -181 b 540 -129 460 -181 506 -164 b 590 14 574 -94 590 -46 l 590 139 l 583 139 b 496 67 560 107 531 83 b 382 42 461 50 424 42 b 239 83 329 42 282 56 b 136 204 196 111 161 151 b 97 389 110 257 97 318 b 136 574 97 460 110 521 b 239 694 161 626 196 667 b 382 736 282 722 329 736 b 499 708 422 736 461 726 b 590 632 535 690 565 664 l 597 632 l 611 722 l 694 722 l 694 14 b 615 -199 694 -75 668 -146 b 403 -278 563 -251 492 -278 b 218 -222 333 -278 272 -260 m 493 169 b 564 256 522 189 546 218 b 590 389 582 293 590 338 b 564 524 590 440 582 486 b 493 610 546 561 522 589 b 396 639 464 629 431 639 b 257 574 340 639 294 617 b 201 389 219 529 201 468 b 257 206 201 310 219 249 b 396 139 294 161 340 139 b 493 169 431 139 464 149 m 183 833 l 364 1035 l 454 1035 l 635 833 l 524 833 l 413 958 l 406 958 l 294 833 "},"Ğ":{"ha":833,"x_min":0,"x_max":0,"o":"m 233 40 b 108 207 181 76 139 132 b 63 486 78 281 63 374 b 108 767 63 599 78 692 b 233 932 139 840 181 896 b 417 986 286 968 347 986 b 624 917 499 986 568 963 b 744 715 679 871 719 803 l 626 715 b 546 839 608 769 581 810 b 417 882 511 868 468 882 b 246 788 346 882 289 850 b 181 486 203 725 181 624 b 246 185 181 349 203 247 b 417 90 289 122 346 90 b 579 174 485 90 539 118 b 647 389 619 229 643 301 l 444 389 l 444 493 l 771 493 l 771 472 b 733 229 771 383 758 303 b 617 53 708 156 669 97 b 417 -14 563 8 496 -14 b 233 40 347 -14 286 4 m 272 1117 b 208 1250 236 1149 215 1193 l 306 1250 b 339 1179 308 1219 319 1196 b 417 1153 358 1161 385 1153 b 494 1179 449 1153 475 1161 b 528 1250 514 1196 525 1219 l 625 1250 b 561 1117 618 1193 597 1149 b 417 1069 525 1085 476 1069 b 272 1117 357 1069 308 1085 "},"ğ":{"ha":833,"x_min":0,"x_max":0,"o":"m 218 -222 b 111 -62 164 -185 128 -132 l 219 -62 b 292 -150 232 -100 257 -129 b 403 -181 326 -171 363 -181 b 540 -129 460 -181 506 -164 b 590 14 574 -94 590 -46 l 590 139 l 583 139 b 496 67 560 107 531 83 b 382 42 461 50 424 42 b 239 83 329 42 282 56 b 136 204 196 111 161 151 b 97 389 110 257 97 318 b 136 574 97 460 110 521 b 239 694 161 626 196 667 b 382 736 282 722 329 736 b 499 708 422 736 461 726 b 590 632 535 690 565 664 l 597 632 l 611 722 l 694 722 l 694 14 b 615 -199 694 -75 668 -146 b 403 -278 563 -251 492 -278 b 218 -222 333 -278 272 -260 m 493 169 b 564 256 522 189 546 218 b 590 389 582 293 590 338 b 564 524 590 440 582 486 b 493 610 546 561 522 589 b 396 639 464 629 431 639 b 257 574 340 639 294 617 b 201 389 219 529 201 468 b 257 206 201 310 219 249 b 396 139 294 161 340 139 b 493 169 431 139 464 149 m 268 878 b 201 1014 231 907 208 951 l 299 1014 b 335 942 303 982 314 957 b 410 917 356 925 381 917 b 485 942 439 917 464 925 b 521 1014 506 957 517 982 l 618 1014 b 551 878 611 951 589 907 b 410 833 514 849 467 833 b 268 878 353 833 306 849 "},"Ġ":{"ha":833,"x_min":0,"x_max":0,"o":"m 233 40 b 108 207 181 76 139 132 b 63 486 78 281 63 374 b 108 767 63 599 78 692 b 233 932 139 840 181 896 b 417 986 286 968 347 986 b 624 917 499 986 568 963 b 744 715 679 871 719 803 l 626 715 b 546 839 608 769 581 810 b 417 882 511 868 468 882 b 246 788 346 882 289 850 b 181 486 203 725 181 624 b 246 185 181 349 203 247 b 417 90 289 122 346 90 b 579 174 485 90 539 118 b 647 389 619 229 643 301 l 444 389 l 444 493 l 771 493 l 771 472 b 733 229 771 383 758 303 b 617 53 708 156 669 97 b 417 -14 563 8 496 -14 b 233 40 347 -14 286 4 m 365 1113 b 343 1163 350 1126 343 1143 b 365 1215 343 1183 350 1200 b 417 1236 379 1229 396 1236 b 468 1215 438 1236 454 1229 b 489 1163 482 1200 489 1183 b 468 1113 489 1143 482 1126 b 417 1090 454 1097 438 1090 b 365 1113 396 1090 379 1097 "},"ġ":{"ha":833,"x_min":0,"x_max":0,"o":"m 218 -222 b 111 -62 164 -185 128 -132 l 219 -62 b 292 -150 232 -100 257 -129 b 403 -181 326 -171 363 -181 b 540 -129 460 -181 506 -164 b 590 14 574 -94 590 -46 l 590 139 l 583 139 b 496 67 560 107 531 83 b 382 42 461 50 424 42 b 239 83 329 42 282 56 b 136 204 196 111 161 151 b 97 389 110 257 97 318 b 136 574 97 460 110 521 b 239 694 161 626 196 667 b 382 736 282 722 329 736 b 499 708 422 736 461 726 b 590 632 535 690 565 664 l 597 632 l 611 722 l 694 722 l 694 14 b 615 -199 694 -75 668 -146 b 403 -278 563 -251 492 -278 b 218 -222 333 -278 272 -260 m 493 169 b 564 256 522 189 546 218 b 590 389 582 293 590 338 b 564 524 590 440 582 486 b 493 610 546 561 522 589 b 396 639 464 629 431 639 b 257 574 340 639 294 617 b 201 389 219 529 201 468 b 257 206 201 310 219 249 b 396 139 294 161 340 139 b 493 169 431 139 464 149 m 358 876 b 336 926 343 890 336 907 b 358 979 336 947 343 964 b 410 1000 372 993 389 1000 b 461 979 431 1000 447 993 b 482 926 475 964 482 947 b 461 876 482 907 475 890 b 410 854 447 861 431 854 b 358 876 389 854 372 861 "},"Ģ":{"ha":833,"x_min":0,"x_max":0,"o":"m 233 40 b 108 207 181 76 139 132 b 63 486 78 281 63 374 b 108 767 63 599 78 692 b 233 932 139 840 181 896 b 417 986 286 968 347 986 b 624 917 499 986 568 963 b 744 715 679 871 719 803 l 626 715 b 546 839 608 769 581 810 b 417 882 511 868 468 882 b 246 788 346 882 289 850 b 181 486 203 725 181 624 b 246 185 181 349 203 247 b 417 90 289 122 346 90 b 579 174 485 90 539 118 b 647 389 619 229 643 301 l 444 389 l 444 493 l 771 493 l 771 472 b 733 229 771 383 758 303 b 617 53 708 156 669 97 b 417 -14 563 8 496 -14 b 233 40 347 -14 286 4 m 300 -340 l 363 -118 l 481 -118 l 383 -340 "},"ģ":{"ha":833,"x_min":0,"x_max":0,"o":"m 218 -222 b 111 -62 164 -185 128 -132 l 219 -62 b 292 -150 232 -100 257 -129 b 403 -181 326 -171 363 -181 b 540 -129 460 -181 506 -164 b 590 14 574 -94 590 -46 l 590 139 l 583 139 b 496 67 560 107 531 83 b 382 42 461 50 424 42 b 239 83 329 42 282 56 b 136 204 196 111 161 151 b 97 389 110 257 97 318 b 136 574 97 460 110 521 b 239 694 161 626 196 667 b 382 736 282 722 329 736 b 499 708 422 736 461 726 b 590 632 535 690 565 664 l 597 632 l 611 722 l 694 722 l 694 14 b 615 -199 694 -75 668 -146 b 403 -278 563 -251 492 -278 b 218 -222 333 -278 272 -260 m 493 169 b 564 256 522 189 546 218 b 590 389 582 293 590 338 b 564 524 590 440 582 486 b 493 610 546 561 522 589 b 396 639 464 629 431 639 b 257 574 340 639 294 617 b 201 389 219 529 201 468 b 257 206 201 310 219 249 b 396 139 294 161 340 139 b 493 169 431 139 464 149 m 347 833 l 444 1056 l 521 1056 l 458 833 "},"Ĥ":{"ha":833,"x_min":0,"x_max":0,"o":"m 597 972 l 715 972 l 715 0 l 597 0 l 597 438 l 236 438 l 236 0 l 118 0 l 118 972 l 236 972 l 236 542 l 597 542 m 190 1069 l 371 1271 l 461 1271 l 642 1069 l 531 1069 l 419 1194 l 413 1194 l 301 1069 "},"ĥ":{"ha":833,"x_min":0,"x_max":0,"o":"m 139 972 l 243 972 l 243 625 l 250 625 b 329 710 269 664 296 692 b 438 736 363 728 399 736 b 569 701 486 736 531 725 b 661 600 608 678 639 643 b 694 444 683 556 694 504 l 694 0 l 590 0 l 590 444 b 544 588 590 506 575 553 b 424 639 514 622 474 639 b 332 613 389 639 358 631 b 267 542 304 594 282 571 b 243 444 251 511 243 479 l 243 0 l 139 0 m 190 1069 l 371 1271 l 461 1271 l 642 1069 l 531 1069 l 419 1194 l 413 1194 l 301 1069 "},"Ħ":{"ha":833,"x_min":0,"x_max":0,"o":"m 813 813 l 813 708 l 715 708 l 715 0 l 597 0 l 597 438 l 236 438 l 236 0 l 118 0 l 118 708 l 21 708 l 21 813 l 118 813 l 118 972 l 236 972 l 236 813 l 597 813 l 597 972 l 715 972 l 715 813 m 597 542 l 597 708 l 236 708 l 236 542 "},"ħ":{"ha":833,"x_min":0,"x_max":0,"o":"m 583 604 b 675 503 622 581 653 546 b 708 347 697 458 708 407 l 708 0 l 604 0 l 604 347 b 558 490 604 408 589 456 b 438 542 528 525 488 542 b 346 515 403 542 372 533 b 281 444 318 497 296 474 b 257 347 265 414 257 382 l 257 0 l 153 0 l 153 764 l 56 764 l 56 861 l 153 861 l 153 972 l 257 972 l 257 861 l 444 861 l 444 764 l 257 764 l 257 528 l 264 528 b 343 613 283 567 310 594 b 451 639 376 631 413 639 b 583 604 500 639 544 628 "},"Ĩ":{"ha":833,"x_min":0,"x_max":0,"o":"m 146 0 l 146 104 l 358 104 l 358 868 l 146 868 l 146 972 l 688 972 l 688 868 l 476 868 l 476 104 l 688 104 l 688 0 m 201 1090 b 235 1197 201 1136 213 1171 b 326 1236 257 1224 288 1236 b 379 1226 346 1236 364 1233 b 439 1193 394 1219 415 1208 b 472 1175 450 1186 461 1181 b 500 1167 482 1169 492 1167 b 531 1185 513 1167 522 1172 b 542 1229 538 1196 542 1211 l 632 1229 b 599 1122 632 1183 621 1149 b 507 1083 576 1096 546 1083 b 454 1094 488 1083 469 1088 b 394 1126 439 1101 418 1111 b 363 1144 383 1133 372 1139 b 333 1153 351 1150 342 1153 b 303 1136 321 1153 310 1147 b 292 1090 296 1125 292 1110 l 201 1090 "},"ĩ":{"ha":833,"x_min":0,"x_max":0,"o":"m 160 0 l 160 97 l 375 97 l 375 625 l 215 625 l 215 722 l 479 722 l 479 97 l 681 97 l 681 0 m 213 854 b 246 961 213 900 224 935 b 338 1000 268 988 299 1000 b 390 990 357 1000 375 997 b 450 957 406 983 426 972 b 483 939 461 950 472 944 b 511 931 493 933 503 931 b 542 949 524 931 533 936 b 553 993 549 960 553 975 l 643 993 b 610 886 643 947 632 913 b 518 847 588 860 557 847 b 465 858 499 847 481 851 b 406 890 450 865 429 875 b 374 908 394 897 383 903 b 344 917 363 914 353 917 b 314 900 332 917 321 911 b 303 854 307 889 303 874 l 213 854 "},"Ī":{"ha":833,"x_min":0,"x_max":0,"o":"m 146 0 l 146 104 l 358 104 l 358 868 l 146 868 l 146 972 l 688 972 l 688 868 l 476 868 l 476 104 l 688 104 l 688 0 m 222 1111 l 222 1201 l 611 1201 l 611 1111 "},"ī":{"ha":833,"x_min":0,"x_max":0,"o":"m 160 0 l 160 97 l 375 97 l 375 625 l 215 625 l 215 722 l 479 722 l 479 97 l 681 97 l 681 0 m 233 875 l 233 965 l 622 965 l 622 875 "},"Ĭ":{"ha":833,"x_min":0,"x_max":0,"o":"m 146 0 l 146 104 l 358 104 l 358 868 l 146 868 l 146 972 l 688 972 l 688 868 l 476 868 l 476 104 l 688 104 l 688 0 m 272 1117 b 208 1250 236 1149 215 1193 l 306 1250 b 339 1179 308 1219 319 1196 b 417 1153 358 1161 385 1153 b 494 1179 449 1153 475 1161 b 528 1250 514 1196 525 1219 l 625 1250 b 561 1117 618 1193 597 1149 b 417 1069 525 1085 476 1069 b 272 1117 357 1069 308 1085 "},"ĭ":{"ha":833,"x_min":0,"x_max":0,"o":"m 160 0 l 160 97 l 375 97 l 375 625 l 215 625 l 215 722 l 479 722 l 479 97 l 681 97 l 681 0 m 286 878 b 219 1014 249 907 226 951 l 317 1014 b 353 942 321 982 332 957 b 428 917 374 925 399 917 b 503 942 457 917 482 925 b 539 1014 524 957 535 982 l 636 1014 b 569 878 629 951 607 907 b 428 833 532 849 485 833 b 286 878 371 833 324 849 "},"Į":{"ha":833,"x_min":0,"x_max":0,"o":"m 476 868 l 476 104 l 688 104 l 688 0 l 476 0 b 383 -68 431 -25 400 -47 b 358 -139 367 -87 358 -111 b 382 -190 358 -160 367 -178 b 439 -208 397 -203 415 -208 l 476 -208 l 476 -285 l 429 -285 b 315 -249 379 -285 342 -272 b 275 -150 289 -225 275 -192 b 372 0 275 -90 307 -40 l 146 0 l 146 104 l 358 104 l 358 868 l 146 868 l 146 972 l 688 972 l 688 868 "},"į":{"ha":833,"x_min":0,"x_max":0,"o":"m 376 876 b 354 926 361 890 354 907 b 376 979 354 947 361 964 b 428 1000 390 993 407 1000 b 479 979 449 1000 465 993 b 500 926 493 964 500 947 b 479 876 500 907 493 890 b 428 854 465 861 449 854 b 376 876 407 854 390 861 m 681 97 l 681 0 l 471 0 b 378 -68 425 -25 394 -47 b 353 -139 361 -87 353 -111 b 376 -190 353 -160 361 -178 b 433 -208 392 -203 410 -208 l 471 -208 l 471 -285 l 424 -285 b 310 -249 374 -285 336 -272 b 269 -150 283 -225 269 -192 b 367 0 269 -90 301 -40 l 160 0 l 160 97 l 375 97 l 375 625 l 215 625 l 215 722 l 479 722 l 479 97 "},"İ":{"ha":833,"x_min":0,"x_max":0,"o":"m 146 0 l 146 104 l 358 104 l 358 868 l 146 868 l 146 972 l 688 972 l 688 868 l 476 868 l 476 104 l 688 104 l 688 0 m 365 1113 b 343 1163 350 1126 343 1143 b 365 1215 343 1183 350 1200 b 417 1236 379 1229 396 1236 b 468 1215 438 1236 454 1229 b 489 1163 482 1200 489 1183 b 468 1113 489 1143 482 1126 b 417 1090 454 1097 438 1090 b 365 1113 396 1090 379 1097 "},"ı":{"ha":833,"x_min":0,"x_max":0,"o":"m 160 0 l 160 97 l 375 97 l 375 625 l 215 625 l 215 722 l 479 722 l 479 97 l 681 97 l 681 0 "},"Ĳ":{"ha":833,"x_min":0,"x_max":0,"o":"m 208 58 b 111 271 154 107 121 178 l 229 271 b 289 138 235 214 254 169 b 417 90 324 106 365 90 b 556 151 476 90 522 111 b 604 333 588 192 604 251 l 604 868 l 292 868 l 292 972 l 722 972 l 722 333 b 642 75 722 221 696 135 b 417 -14 588 15 513 -14 b 208 58 332 -14 263 10 m 111 347 l 111 972 l 229 972 l 229 347 "},"ĳ":{"ha":833,"x_min":0,"x_max":0,"o":"m 189 876 b 167 926 174 890 167 907 b 189 979 167 947 174 964 b 240 1000 203 993 219 1000 b 292 979 261 1000 278 993 b 313 926 306 964 313 947 b 292 876 313 907 306 890 b 240 854 278 861 261 854 b 189 876 219 854 203 861 m 543 876 b 521 926 528 890 521 907 b 543 979 521 947 528 964 b 594 1000 557 993 574 1000 b 646 979 615 1000 632 993 b 667 926 660 964 667 947 b 646 876 667 907 660 890 b 594 854 632 861 615 854 b 543 876 574 854 557 861 m 254 -219 b 188 -69 214 -181 192 -131 l 292 -69 b 329 -150 296 -101 308 -129 b 417 -181 350 -171 379 -181 b 508 -147 454 -181 485 -169 b 542 -56 531 -124 542 -93 l 542 625 l 351 625 l 351 722 l 646 722 l 646 -56 b 583 -217 646 -122 625 -176 b 417 -278 542 -257 486 -278 b 254 -219 349 -278 294 -258 m 188 14 l 188 722 l 292 722 l 292 14 "},"Ĵ":{"ha":833,"x_min":0,"x_max":0,"o":"m 158 58 b 63 271 104 106 72 176 l 181 271 b 242 138 188 214 207 169 b 368 90 276 106 318 90 b 511 154 429 90 476 111 b 563 333 546 196 563 256 l 563 868 l 215 868 l 215 972 l 681 972 l 681 333 b 596 76 681 222 653 136 b 368 -14 539 17 464 -14 b 158 58 282 -14 213 10 m 222 1069 l 403 1271 l 493 1271 l 674 1069 l 563 1069 l 451 1194 l 444 1194 l 333 1069 "},"ĵ":{"ha":833,"x_min":0,"x_max":0,"o":"m 164 -219 b 97 -69 124 -181 101 -131 l 201 -69 b 239 -150 206 -101 218 -129 b 326 -181 260 -171 289 -181 b 418 -147 364 -181 394 -169 b 451 -56 440 -124 451 -93 l 451 625 l 233 625 l 233 722 l 556 722 l 556 -56 b 493 -217 556 -122 535 -176 b 326 -278 451 -257 396 -278 b 164 -219 258 -278 204 -258 m 278 833 l 458 1035 l 549 1035 l 729 833 l 618 833 l 507 958 l 500 958 l 389 833 "},"Ķ":{"ha":833,"x_min":0,"x_max":0,"o":"m 799 0 l 656 0 l 250 481 l 250 0 l 132 0 l 132 972 l 250 972 l 250 507 l 639 972 l 778 972 l 376 494 m 338 -340 l 400 -118 l 518 -118 l 421 -340 "},"ķ":{"ha":833,"x_min":0,"x_max":0,"o":"m 764 0 l 632 0 l 271 354 l 271 0 l 167 0 l 167 972 l 271 972 l 271 382 l 611 722 l 743 722 l 388 368 m 338 -340 l 400 -118 l 518 -118 l 421 -340 "},"Ĺ":{"ha":833,"x_min":0,"x_max":0,"o":"m 153 0 l 153 972 l 271 972 l 271 104 l 757 104 l 757 0 m 157 1069 l 282 1264 l 414 1264 l 254 1069 "},"ĺ":{"ha":833,"x_min":0,"x_max":0,"o":"m 160 0 l 160 97 l 375 97 l 375 875 l 222 875 l 222 972 l 479 972 l 479 97 l 681 97 l 681 0 m 372 1069 l 497 1264 l 629 1264 l 469 1069 "},"Ļ":{"ha":833,"x_min":0,"x_max":0,"o":"m 153 0 l 153 972 l 271 972 l 271 104 l 757 104 l 757 0 m 335 -340 l 397 -118 l 515 -118 l 418 -340 "},"ļ":{"ha":833,"x_min":0,"x_max":0,"o":"m 160 0 l 160 97 l 375 97 l 375 875 l 222 875 l 222 972 l 479 972 l 479 97 l 681 97 l 681 0 m 300 -340 l 363 -118 l 481 -118 l 383 -340 "},"Ľ":{"ha":833,"x_min":0,"x_max":0,"o":"m 153 0 l 153 972 l 271 972 l 271 104 l 757 104 l 757 0 m 361 750 l 424 972 l 535 972 l 438 750 "},"ľ":{"ha":833,"x_min":0,"x_max":0,"o":"m 160 0 l 160 97 l 375 97 l 375 875 l 222 875 l 222 972 l 479 972 l 479 97 l 681 97 l 681 0 m 528 750 l 590 972 l 701 972 l 604 750 "},"Ŀ":{"ha":833,"x_min":0,"x_max":0,"o":"m 153 0 l 153 972 l 271 972 l 271 104 l 757 104 l 757 0 m 576 489 b 553 542 561 504 553 521 b 576 596 553 563 561 581 b 629 618 592 611 608 618 b 683 596 650 618 668 611 b 706 542 699 581 706 563 b 683 489 706 521 699 504 b 629 465 668 474 650 465 b 576 489 608 465 592 474 "},"ŀ":{"ha":833,"x_min":0,"x_max":0,"o":"m 160 0 l 160 97 l 375 97 l 375 875 l 222 875 l 222 972 l 479 972 l 479 97 l 681 97 l 681 0 m 790 454 b 767 507 775 469 767 486 b 790 561 767 528 775 546 b 843 583 806 576 822 583 b 897 561 864 583 882 576 b 919 507 913 546 919 528 b 897 454 919 486 913 469 b 843 431 882 439 864 431 b 790 454 822 431 806 439 "},"Ł":{"ha":833,"x_min":0,"x_max":0,"o":"m 285 104 l 771 104 l 771 0 l 167 0 l 167 418 l 49 375 l 49 486 l 167 529 l 167 972 l 285 972 l 285 574 l 493 650 l 493 539 l 285 463 "},"ł":{"ha":833,"x_min":0,"x_max":0,"o":"m 479 97 l 681 97 l 681 0 l 160 0 l 160 97 l 375 97 l 375 424 l 243 365 l 243 472 l 375 531 l 375 875 l 222 875 l 222 972 l 479 972 l 479 578 l 611 636 l 611 529 l 479 471 "},"Ń":{"ha":833,"x_min":0,"x_max":0,"o":"m 118 0 l 118 972 l 286 972 l 618 125 l 632 125 l 597 361 l 597 972 l 715 972 l 715 0 l 547 0 l 215 847 l 201 847 l 236 611 l 236 0 m 361 1069 l 486 1264 l 618 1264 l 458 1069 "},"ń":{"ha":833,"x_min":0,"x_max":0,"o":"m 139 722 l 222 722 l 236 625 l 243 625 b 329 710 267 664 294 692 b 438 736 364 728 400 736 b 569 701 486 736 531 725 b 661 600 608 678 639 643 b 694 444 683 556 694 504 l 694 0 l 590 0 l 590 444 b 544 588 590 506 575 553 b 424 639 514 622 474 639 b 332 613 389 639 358 631 b 267 542 304 594 282 571 b 243 444 251 511 243 479 l 243 0 l 139 0 m 361 833 l 486 1028 l 618 1028 l 458 833 "},"Ņ":{"ha":833,"x_min":0,"x_max":0,"o":"m 118 0 l 118 972 l 286 972 l 618 125 l 632 125 l 597 361 l 597 972 l 715 972 l 715 0 l 547 0 l 215 847 l 201 847 l 236 611 l 236 0 m 296 -340 l 358 -118 l 476 -118 l 379 -340 "},"ņ":{"ha":833,"x_min":0,"x_max":0,"o":"m 139 722 l 222 722 l 236 625 l 243 625 b 329 710 267 664 294 692 b 438 736 364 728 400 736 b 569 701 486 736 531 725 b 661 600 608 678 639 643 b 694 444 683 556 694 504 l 694 0 l 590 0 l 590 444 b 544 588 590 506 575 553 b 424 639 514 622 474 639 b 332 613 389 639 358 631 b 267 542 304 594 282 571 b 243 444 251 511 243 479 l 243 0 l 139 0 m 296 -340 l 358 -118 l 476 -118 l 379 -340 "},"Ň":{"ha":833,"x_min":0,"x_max":0,"o":"m 118 0 l 118 972 l 286 972 l 618 125 l 632 125 l 597 361 l 597 972 l 715 972 l 715 0 l 547 0 l 215 847 l 201 847 l 236 611 l 236 0 m 371 1069 l 190 1271 l 301 1271 l 413 1146 l 419 1146 l 531 1271 l 642 1271 l 461 1069 "},"ň":{"ha":833,"x_min":0,"x_max":0,"o":"m 139 722 l 222 722 l 236 625 l 243 625 b 329 710 267 664 294 692 b 438 736 364 728 400 736 b 569 701 486 736 531 725 b 661 600 608 678 639 643 b 694 444 683 556 694 504 l 694 0 l 590 0 l 590 444 b 544 588 590 506 575 553 b 424 639 514 622 474 639 b 332 613 389 639 358 631 b 267 542 304 594 282 571 b 243 444 251 511 243 479 l 243 0 l 139 0 m 371 833 l 190 1035 l 301 1035 l 413 910 l 419 910 l 531 1035 l 642 1035 l 461 833 "},"ŉ":{"ha":833,"x_min":0,"x_max":0,"o":"m 139 722 l 222 722 l 236 625 l 243 625 b 329 710 267 664 294 692 b 438 736 364 728 400 736 b 569 701 486 736 531 725 b 661 600 608 678 639 643 b 694 444 683 556 694 504 l 694 0 l 590 0 l 590 444 b 544 588 590 506 575 553 b 424 639 514 622 474 639 b 332 613 389 639 358 631 b 267 542 304 594 282 571 b 243 444 251 511 243 479 l 243 0 l 139 0 m -35 694 l 21 972 l 132 972 l 49 694 "},"Ŋ":{"ha":833,"x_min":0,"x_max":0,"o":"m 424 -174 l 444 -174 b 561 -135 497 -174 536 -161 b 597 -7 585 -108 597 -65 l 597 0 l 547 0 l 215 847 l 201 847 l 236 611 l 236 0 l 118 0 l 118 972 l 286 972 l 618 125 l 632 125 l 597 361 l 597 972 l 715 972 l 715 0 b 649 -204 715 -87 693 -156 b 458 -278 603 -253 540 -278 l 424 -278 "},"ŋ":{"ha":833,"x_min":0,"x_max":0,"o":"m 417 -181 l 479 -181 b 564 -154 517 -181 546 -172 b 590 -72 582 -136 590 -110 l 590 444 b 544 588 590 506 575 553 b 424 639 514 622 474 639 b 332 613 389 639 358 631 b 267 542 304 594 282 571 b 243 444 251 511 243 479 l 243 0 l 139 0 l 139 722 l 222 722 l 236 625 l 243 625 b 329 710 267 664 294 692 b 438 736 364 728 400 736 b 569 701 486 736 531 725 b 661 600 608 678 639 643 b 694 444 683 556 694 504 l 694 -72 b 640 -224 694 -137 676 -187 b 486 -278 603 -260 551 -278 l 417 -278 "},"Ō":{"ha":833,"x_min":0,"x_max":0,"o":"m 233 40 b 108 207 181 76 139 132 b 63 486 78 281 63 374 b 108 767 63 599 78 692 b 233 932 139 840 181 896 b 417 986 286 968 347 986 b 600 932 486 986 547 968 b 725 767 653 896 694 840 b 771 486 756 692 771 599 b 725 207 771 374 756 281 b 600 40 694 132 653 76 b 417 -14 547 4 486 -14 b 233 40 347 -14 286 4 m 593 192 b 653 486 633 260 653 357 b 593 781 653 615 633 713 b 417 882 553 849 493 882 b 242 781 340 882 282 849 b 181 486 201 713 181 615 b 242 192 181 357 201 260 b 417 90 282 124 340 90 b 593 192 493 90 553 124 m 222 1111 l 222 1201 l 611 1201 l 611 1111 "},"ō":{"ha":833,"x_min":0,"x_max":0,"o":"m 254 32 b 139 161 206 61 167 104 b 97 361 111 218 97 285 b 139 561 97 438 111 504 b 254 692 167 618 206 661 b 417 736 303 721 357 736 b 581 692 476 736 532 721 b 694 561 629 661 667 618 b 736 361 722 504 736 438 b 694 161 736 285 722 218 b 581 32 667 104 629 61 b 417 -14 532 1 476 -14 b 254 32 357 -14 303 1 m 526 117 b 604 211 558 138 585 169 b 632 361 622 253 632 303 b 604 511 632 419 622 469 b 526 607 585 553 558 585 b 417 639 493 628 457 639 b 308 607 376 639 340 628 b 231 511 275 585 249 553 b 201 361 211 469 201 419 b 231 211 201 303 211 253 b 308 117 249 169 275 138 b 417 83 340 94 376 83 b 526 117 457 83 493 94 m 222 875 l 222 965 l 611 965 l 611 875 "},"Ŏ":{"ha":833,"x_min":0,"x_max":0,"o":"m 233 40 b 108 207 181 76 139 132 b 63 486 78 281 63 374 b 108 767 63 599 78 692 b 233 932 139 840 181 896 b 417 986 286 968 347 986 b 600 932 486 986 547 968 b 725 767 653 896 694 840 b 771 486 756 692 771 599 b 725 207 771 374 756 281 b 600 40 694 132 653 76 b 417 -14 547 4 486 -14 b 233 40 347 -14 286 4 m 593 192 b 653 486 633 260 653 357 b 593 781 653 615 633 713 b 417 882 553 849 493 882 b 242 781 340 882 282 849 b 181 486 201 713 181 615 b 242 192 181 357 201 260 b 417 90 282 124 340 90 b 593 192 493 90 553 124 m 272 1117 b 208 1250 236 1149 215 1193 l 306 1250 b 339 1179 308 1219 319 1196 b 417 1153 358 1161 385 1153 b 494 1179 449 1153 475 1161 b 528 1250 514 1196 525 1219 l 625 1250 b 561 1117 618 1193 597 1149 b 417 1069 525 1085 476 1069 b 272 1117 357 1069 308 1085 "},"ŏ":{"ha":833,"x_min":0,"x_max":0,"o":"m 254 32 b 139 161 206 61 167 104 b 97 361 111 218 97 285 b 139 561 97 438 111 504 b 254 692 167 618 206 661 b 417 736 303 721 357 736 b 581 692 476 736 532 721 b 694 561 629 661 667 618 b 736 361 722 504 736 438 b 694 161 736 285 722 218 b 581 32 667 104 629 61 b 417 -14 532 1 476 -14 b 254 32 357 -14 303 1 m 526 117 b 604 211 558 138 585 169 b 632 361 622 253 632 303 b 604 511 632 419 622 469 b 526 607 585 553 558 585 b 417 639 493 628 457 639 b 308 607 376 639 340 628 b 231 511 275 585 249 553 b 201 361 211 469 201 419 b 231 211 201 303 211 253 b 308 117 249 169 275 138 b 417 83 340 94 376 83 b 526 117 457 83 493 94 m 275 878 b 208 1014 238 907 215 951 l 306 1014 b 342 942 310 982 321 957 b 417 917 363 925 388 917 b 492 942 446 917 471 925 b 528 1014 513 957 524 982 l 625 1014 b 558 878 618 951 596 907 b 417 833 521 849 474 833 b 275 878 360 833 313 849 "},"Ő":{"ha":833,"x_min":0,"x_max":0,"o":"m 233 40 b 108 207 181 76 139 132 b 63 486 78 281 63 374 b 108 767 63 599 78 692 b 233 932 139 840 181 896 b 417 986 286 968 347 986 b 600 932 486 986 547 968 b 725 767 653 896 694 840 b 771 486 756 692 771 599 b 725 207 771 374 756 281 b 600 40 694 132 653 76 b 417 -14 547 4 486 -14 b 233 40 347 -14 286 4 m 593 192 b 653 486 633 260 653 357 b 593 781 653 615 633 713 b 417 882 553 849 493 882 b 242 781 340 882 282 849 b 181 486 201 713 181 615 b 242 192 181 357 201 260 b 417 90 282 124 340 90 b 593 192 493 90 553 124 m 253 1069 l 378 1264 l 510 1264 l 350 1069 m 475 1069 l 600 1264 l 732 1264 l 572 1069 "},"ő":{"ha":833,"x_min":0,"x_max":0,"o":"m 254 32 b 139 161 206 61 167 104 b 97 361 111 218 97 285 b 139 561 97 438 111 504 b 254 692 167 618 206 661 b 417 736 303 721 357 736 b 581 692 476 736 532 721 b 694 561 629 661 667 618 b 736 361 722 504 736 438 b 694 161 736 285 722 218 b 581 32 667 104 629 61 b 417 -14 532 1 476 -14 b 254 32 357 -14 303 1 m 526 117 b 604 211 558 138 585 169 b 632 361 622 253 632 303 b 604 511 632 419 622 469 b 526 607 585 553 558 585 b 417 639 493 628 457 639 b 308 607 376 639 340 628 b 231 511 275 585 249 553 b 201 361 211 469 201 419 b 231 211 201 303 211 253 b 308 117 249 169 275 138 b 417 83 340 94 376 83 b 526 117 457 83 493 94 m 253 833 l 378 1028 l 510 1028 l 350 833 m 475 833 l 600 1028 l 732 1028 l 572 833 "},"Œ":{"ha":833,"x_min":0,"x_max":0,"o":"m 799 104 l 799 0 l 396 0 b 129 128 281 0 192 43 b 35 486 67 213 35 332 b 129 846 35 640 67 761 b 396 972 192 931 281 972 l 785 972 l 785 868 l 507 868 l 507 542 l 757 542 l 757 438 l 507 438 l 507 104 m 389 868 b 214 771 313 868 254 836 b 153 486 174 706 153 610 b 214 203 153 363 174 268 b 389 104 254 138 313 104 l 389 868 "},"œ":{"ha":833,"x_min":0,"x_max":0,"o":"m 465 333 b 499 140 468 243 479 178 b 583 83 518 103 546 83 b 674 188 629 83 660 118 l 785 188 b 714 35 772 118 749 67 b 590 -14 679 3 639 -14 b 481 18 544 -14 507 -3 b 417 111 453 39 432 71 b 349 17 400 68 378 36 b 250 -14 319 -4 288 -14 b 90 79 185 -14 132 17 b 28 361 49 140 28 235 b 90 644 28 488 49 582 b 250 736 132 706 185 736 b 349 707 288 736 319 726 b 417 611 378 686 400 654 b 488 704 433 651 457 683 b 590 736 517 725 551 736 b 747 656 656 736 708 710 b 806 403 786 601 806 517 b 799 333 806 382 803 360 m 333 149 b 368 361 357 192 368 263 b 333 574 368 460 357 531 b 250 639 310 617 282 639 b 167 574 218 639 190 617 b 132 361 143 531 132 460 b 167 149 132 263 143 192 b 250 83 190 106 218 83 b 333 149 282 83 310 106 m 701 424 b 668 589 697 500 686 554 b 583 639 649 622 621 639 b 499 588 546 639 517 622 b 467 424 481 553 469 499 l 701 424 "},"Ŕ":{"ha":833,"x_min":0,"x_max":0,"o":"m 639 0 l 369 389 l 236 389 l 236 0 l 118 0 l 118 972 l 458 972 b 621 936 521 972 575 960 b 726 833 667 911 701 876 b 764 681 751 789 764 738 b 694 483 764 601 740 535 b 504 392 649 432 585 401 l 778 0 m 236 493 l 451 493 b 596 543 514 493 561 510 b 646 681 629 575 646 621 b 596 819 646 740 629 786 b 451 868 561 851 514 868 l 236 868 m 375 1069 l 500 1264 l 632 1264 l 472 1069 "},"ŕ":{"ha":833,"x_min":0,"x_max":0,"o":"m 132 97 l 306 97 l 306 625 l 160 625 l 160 722 l 389 722 l 403 625 l 410 625 b 488 700 431 660 456 685 b 604 722 519 715 558 722 l 708 722 l 708 625 l 604 625 b 467 575 550 625 504 608 b 410 443 429 540 410 497 l 410 97 l 632 97 l 632 0 l 132 0 m 396 833 l 521 1028 l 653 1028 l 493 833 "},"Ŗ":{"ha":833,"x_min":0,"x_max":0,"o":"m 639 0 l 369 389 l 236 389 l 236 0 l 118 0 l 118 972 l 458 972 b 621 936 521 972 575 960 b 726 833 667 911 701 876 b 764 681 751 789 764 738 b 694 483 764 601 740 535 b 504 392 649 432 585 401 l 778 0 m 236 493 l 451 493 b 596 543 514 493 561 510 b 646 681 629 575 646 621 b 596 819 646 740 629 786 b 451 868 561 851 514 868 l 236 868 m 321 -340 l 383 -118 l 501 -118 l 404 -340 "},"ŗ":{"ha":833,"x_min":0,"x_max":0,"o":"m 132 97 l 306 97 l 306 625 l 160 625 l 160 722 l 389 722 l 403 625 l 410 625 b 488 700 431 660 456 685 b 604 722 519 715 558 722 l 708 722 l 708 625 l 604 625 b 467 575 550 625 504 608 b 410 443 429 540 410 497 l 410 97 l 632 97 l 632 0 l 132 0 m 261 -340 l 324 -118 l 442 -118 l 344 -340 "},"Ř":{"ha":833,"x_min":0,"x_max":0,"o":"m 639 0 l 369 389 l 236 389 l 236 0 l 118 0 l 118 972 l 458 972 b 621 936 521 972 575 960 b 726 833 667 911 701 876 b 764 681 751 789 764 738 b 694 483 764 601 740 535 b 504 392 649 432 585 401 l 778 0 m 236 493 l 451 493 b 596 543 514 493 561 510 b 646 681 629 575 646 621 b 596 819 646 740 629 786 b 451 868 561 851 514 868 l 236 868 m 385 1069 l 204 1271 l 315 1271 l 426 1146 l 433 1146 l 544 1271 l 656 1271 l 475 1069 "},"ř":{"ha":833,"x_min":0,"x_max":0,"o":"m 132 97 l 306 97 l 306 625 l 160 625 l 160 722 l 389 722 l 403 625 l 410 625 b 488 700 431 660 456 685 b 604 722 519 715 558 722 l 708 722 l 708 625 l 604 625 b 467 575 550 625 504 608 b 410 443 429 540 410 497 l 410 97 l 632 97 l 632 0 l 132 0 m 406 833 l 225 1035 l 336 1035 l 447 910 l 454 910 l 565 1035 l 676 1035 l 496 833 "},"Ś":{"ha":833,"x_min":0,"x_max":0,"o":"m 190 60 b 83 264 128 108 93 176 l 201 264 b 276 136 211 208 236 165 b 431 90 317 106 368 90 b 579 136 494 90 544 106 b 632 264 614 165 632 208 b 603 349 632 299 622 328 b 532 399 583 369 560 386 b 411 436 503 410 463 422 b 256 488 347 453 296 469 b 154 571 215 506 182 533 b 111 722 125 608 111 658 b 150 860 111 774 124 819 b 257 953 175 900 211 931 b 417 986 303 975 357 986 b 632 921 504 986 576 964 b 729 736 688 876 719 815 l 611 736 b 549 843 604 781 583 817 b 417 882 514 869 469 882 b 281 839 360 882 314 868 b 229 722 246 810 229 771 b 260 631 229 685 239 654 b 335 578 281 607 306 590 b 460 538 364 565 406 553 b 611 488 522 521 572 504 b 710 408 650 469 683 443 b 750 264 736 372 750 324 b 711 119 750 210 738 161 b 599 21 685 76 647 44 b 431 -14 550 -3 493 -14 b 190 60 332 -14 251 11 m 368 1069 l 493 1264 l 625 1264 l 465 1069 "},"ś":{"ha":833,"x_min":0,"x_max":0,"o":"m 218 44 b 125 208 163 83 132 138 l 229 208 b 293 117 236 168 257 138 b 424 83 329 94 372 83 b 561 114 486 83 532 93 b 604 194 590 135 604 161 b 579 254 604 219 596 239 b 517 289 563 269 542 281 b 415 314 492 296 458 304 b 276 351 358 326 311 339 b 185 415 240 364 210 386 b 146 535 158 444 146 483 b 176 635 146 571 156 604 b 267 708 197 665 226 690 b 410 736 307 726 354 736 b 599 686 483 736 547 719 b 688 535 650 653 679 603 l 583 535 b 528 611 576 567 557 592 b 410 639 497 629 458 639 b 292 611 358 639 319 629 b 250 535 264 592 250 567 b 276 471 250 508 258 486 b 340 435 293 456 314 443 b 446 406 365 425 400 415 b 583 368 503 393 549 381 b 672 307 618 356 647 335 b 708 194 696 279 708 242 b 635 44 708 133 683 83 b 424 -14 585 6 514 -14 b 218 44 342 -14 272 6 m 361 833 l 486 1028 l 618 1028 l 458 833 "},"Ŝ":{"ha":833,"x_min":0,"x_max":0,"o":"m 190 60 b 83 264 128 108 93 176 l 201 264 b 276 136 211 208 236 165 b 431 90 317 106 368 90 b 579 136 494 90 544 106 b 632 264 614 165 632 208 b 603 349 632 299 622 328 b 532 399 583 369 560 386 b 411 436 503 410 463 422 b 256 488 347 453 296 469 b 154 571 215 506 182 533 b 111 722 125 608 111 658 b 150 860 111 774 124 819 b 257 953 175 900 211 931 b 417 986 303 975 357 986 b 632 921 504 986 576 964 b 729 736 688 876 719 815 l 611 736 b 549 843 604 781 583 817 b 417 882 514 869 469 882 b 281 839 360 882 314 868 b 229 722 246 810 229 771 b 260 631 229 685 239 654 b 335 578 281 607 306 590 b 460 538 364 565 406 553 b 611 488 522 521 572 504 b 710 408 650 469 683 443 b 750 264 736 372 750 324 b 711 119 750 210 738 161 b 599 21 685 76 647 44 b 431 -14 550 -3 493 -14 b 190 60 332 -14 251 11 m 197 1069 l 378 1271 l 468 1271 l 649 1069 l 538 1069 l 426 1194 l 419 1194 l 308 1069 "},"ŝ":{"ha":833,"x_min":0,"x_max":0,"o":"m 218 44 b 125 208 163 83 132 138 l 229 208 b 293 117 236 168 257 138 b 424 83 329 94 372 83 b 561 114 486 83 532 93 b 604 194 590 135 604 161 b 579 254 604 219 596 239 b 517 289 563 269 542 281 b 415 314 492 296 458 304 b 276 351 358 326 311 339 b 185 415 240 364 210 386 b 146 535 158 444 146 483 b 176 635 146 571 156 604 b 267 708 197 665 226 690 b 410 736 307 726 354 736 b 599 686 483 736 547 719 b 688 535 650 653 679 603 l 583 535 b 528 611 576 567 557 592 b 410 639 497 629 458 639 b 292 611 358 639 319 629 b 250 535 264 592 250 567 b 276 471 250 508 258 486 b 340 435 293 456 314 443 b 446 406 365 425 400 415 b 583 368 503 393 549 381 b 672 307 618 356 647 335 b 708 194 696 279 708 242 b 635 44 708 133 683 83 b 424 -14 585 6 514 -14 b 218 44 342 -14 272 6 m 190 833 l 371 1035 l 461 1035 l 642 833 l 531 833 l 419 958 l 413 958 l 301 833 "},"Ş":{"ha":833,"x_min":0,"x_max":0,"o":"m 671 71 b 460 -12 618 19 547 -8 l 443 -50 b 521 -86 476 -54 503 -65 b 549 -160 539 -106 549 -131 b 513 -250 549 -197 536 -226 b 424 -285 489 -274 458 -285 l 340 -285 l 340 -215 l 410 -215 b 451 -201 428 -215 442 -211 b 465 -160 461 -192 465 -178 b 450 -125 465 -146 460 -135 b 410 -111 440 -115 426 -111 l 354 -111 l 354 -62 l 376 -11 b 175 74 293 -3 226 25 b 83 264 124 122 93 185 l 201 264 b 276 136 211 208 236 165 b 431 90 317 106 368 90 b 579 136 494 90 544 106 b 632 264 614 165 632 208 b 603 349 632 299 622 328 b 532 399 583 369 560 386 b 411 436 503 410 463 422 b 256 488 347 453 296 469 b 154 571 215 506 182 533 b 111 722 125 608 111 658 b 150 860 111 774 124 819 b 257 953 175 900 211 931 b 417 986 303 975 357 986 b 632 921 504 986 576 964 b 729 736 688 876 719 815 l 611 736 b 549 843 604 781 583 817 b 417 882 514 869 469 882 b 281 839 360 882 314 868 b 229 722 246 810 229 771 b 260 631 229 685 239 654 b 335 578 281 607 306 590 b 460 538 364 565 406 553 b 611 488 522 521 572 504 b 710 408 650 469 683 443 b 750 264 736 372 750 324 b 671 71 750 185 724 121 "},"ş":{"ha":833,"x_min":0,"x_max":0,"o":"m 644 53 b 460 -12 601 15 539 -7 l 443 -50 b 521 -86 476 -54 503 -65 b 549 -160 539 -106 549 -131 b 513 -250 549 -197 536 -226 b 424 -285 489 -274 458 -285 l 340 -285 l 340 -215 l 410 -215 b 451 -201 428 -215 442 -211 b 465 -160 461 -192 465 -178 b 450 -125 465 -146 460 -135 b 410 -111 440 -115 426 -111 l 354 -111 l 354 -62 l 376 -11 b 203 57 306 -4 249 19 b 125 208 157 94 132 146 l 229 208 b 293 117 236 168 257 138 b 424 83 329 94 372 83 b 561 114 486 83 532 93 b 604 194 590 135 604 161 b 579 254 604 219 596 239 b 517 289 563 269 542 281 b 415 314 492 296 458 304 b 276 351 358 326 311 339 b 185 415 240 364 210 386 b 146 535 158 444 146 483 b 176 635 146 571 156 604 b 267 708 197 665 226 690 b 410 736 307 726 354 736 b 599 686 483 736 547 719 b 688 535 650 653 679 603 l 583 535 b 528 611 576 567 557 592 b 410 639 497 629 458 639 b 292 611 358 639 319 629 b 250 535 264 592 250 567 b 276 471 250 508 258 486 b 340 435 293 456 314 443 b 446 406 365 425 400 415 b 583 368 503 393 549 381 b 672 307 618 356 647 335 b 708 194 696 279 708 242 b 644 53 708 138 688 90 "},"Š":{"ha":833,"x_min":0,"x_max":0,"o":"m 190 60 b 83 264 128 108 93 176 l 201 264 b 276 136 211 208 236 165 b 431 90 317 106 368 90 b 579 136 494 90 544 106 b 632 264 614 165 632 208 b 603 349 632 299 622 328 b 532 399 583 369 560 386 b 411 436 503 410 463 422 b 256 488 347 453 296 469 b 154 571 215 506 182 533 b 111 722 125 608 111 658 b 150 860 111 774 124 819 b 257 953 175 900 211 931 b 417 986 303 975 357 986 b 632 921 504 986 576 964 b 729 736 688 876 719 815 l 611 736 b 549 843 604 781 583 817 b 417 882 514 869 469 882 b 281 839 360 882 314 868 b 229 722 246 810 229 771 b 260 631 229 685 239 654 b 335 578 281 607 306 590 b 460 538 364 565 406 553 b 611 488 522 521 572 504 b 710 408 650 469 683 443 b 750 264 736 372 750 324 b 711 119 750 210 738 161 b 599 21 685 76 647 44 b 431 -14 550 -3 493 -14 b 190 60 332 -14 251 11 m 378 1069 l 197 1271 l 308 1271 l 419 1146 l 426 1146 l 538 1271 l 649 1271 l 468 1069 "},"š":{"ha":833,"x_min":0,"x_max":0,"o":"m 218 44 b 125 208 163 83 132 138 l 229 208 b 293 117 236 168 257 138 b 424 83 329 94 372 83 b 561 114 486 83 532 93 b 604 194 590 135 604 161 b 579 254 604 219 596 239 b 517 289 563 269 542 281 b 415 314 492 296 458 304 b 276 351 358 326 311 339 b 185 415 240 364 210 386 b 146 535 158 444 146 483 b 176 635 146 571 156 604 b 267 708 197 665 226 690 b 410 736 307 726 354 736 b 599 686 483 736 547 719 b 688 535 650 653 679 603 l 583 535 b 528 611 576 567 557 592 b 410 639 497 629 458 639 b 292 611 358 639 319 629 b 250 535 264 592 250 567 b 276 471 250 508 258 486 b 340 435 293 456 314 443 b 446 406 365 425 400 415 b 583 368 503 393 549 381 b 672 307 618 356 647 335 b 708 194 696 279 708 242 b 635 44 708 133 683 83 b 424 -14 585 6 514 -14 b 218 44 342 -14 272 6 m 371 833 l 190 1035 l 301 1035 l 413 910 l 419 910 l 531 1035 l 642 1035 l 461 833 "},"Ţ":{"ha":833,"x_min":0,"x_max":0,"o":"m 771 972 l 771 701 l 667 701 l 667 868 l 476 868 l 476 0 l 458 0 l 436 -50 b 514 -86 469 -54 496 -65 b 542 -160 532 -106 542 -131 b 506 -250 542 -197 529 -226 b 417 -285 482 -274 451 -285 l 333 -285 l 333 -215 l 403 -215 b 444 -201 421 -215 435 -211 b 458 -160 454 -192 458 -178 b 443 -125 458 -146 453 -135 b 403 -111 433 -115 419 -111 l 347 -111 l 347 -62 l 375 0 l 358 0 l 358 868 l 167 868 l 167 701 l 63 701 l 63 972 "},"ţ":{"ha":833,"x_min":0,"x_max":0,"o":"m 729 181 b 668 49 725 129 706 85 b 522 -12 631 11 582 -8 l 506 -50 b 583 -86 539 -54 565 -65 b 611 -160 601 -106 611 -131 b 575 -250 611 -197 599 -226 b 486 -285 551 -274 521 -285 l 403 -285 l 403 -215 l 472 -215 b 514 -201 490 -215 504 -211 b 528 -160 524 -192 528 -178 b 513 -125 528 -146 522 -135 b 472 -111 503 -115 489 -111 l 417 -111 l 417 -62 l 440 -8 b 317 65 389 3 347 28 b 271 201 286 103 271 149 l 271 625 l 90 625 l 90 722 l 271 722 l 285 917 l 375 917 l 375 722 l 646 722 l 646 625 l 375 625 l 375 208 b 410 118 375 171 386 140 b 500 83 432 94 463 83 b 588 113 536 83 565 93 b 625 181 608 131 621 154 l 729 181 "},"Ť":{"ha":833,"x_min":0,"x_max":0,"o":"m 358 0 l 358 868 l 167 868 l 167 701 l 63 701 l 63 972 l 771 972 l 771 701 l 667 701 l 667 868 l 476 868 l 476 0 m 371 1069 l 190 1271 l 301 1271 l 413 1146 l 419 1146 l 531 1271 l 642 1271 l 461 1069 "},"ť":{"ha":833,"x_min":0,"x_max":0,"o":"m 335 47 b 271 201 292 88 271 139 l 271 625 l 90 625 l 90 722 l 271 722 l 285 917 l 375 917 l 375 722 l 646 722 l 646 625 l 375 625 l 375 208 b 410 118 375 171 386 140 b 500 83 432 94 463 83 b 588 113 536 83 565 93 b 625 181 608 131 621 154 l 729 181 b 663 43 725 126 703 81 b 500 -14 621 6 567 -14 b 335 47 432 -14 376 7 m 438 771 l 494 972 l 606 972 l 518 771 "},"Ŧ":{"ha":833,"x_min":0,"x_max":0,"o":"m 63 972 l 771 972 l 771 701 l 667 701 l 667 868 l 476 868 l 476 551 l 650 551 l 650 447 l 476 447 l 476 0 l 358 0 l 358 447 l 185 447 l 185 551 l 358 551 l 358 868 l 167 868 l 167 701 l 63 701 "},"ŧ":{"ha":833,"x_min":0,"x_max":0,"o":"m 729 181 b 663 43 725 126 703 81 b 500 -14 621 6 567 -14 b 335 47 432 -14 376 7 b 271 201 292 88 271 139 l 271 382 l 90 382 l 90 479 l 271 479 l 271 625 l 90 625 l 90 722 l 271 722 l 285 917 l 375 917 l 375 722 l 646 722 l 646 625 l 375 625 l 375 479 l 646 479 l 646 382 l 375 382 l 375 208 b 410 118 375 171 386 140 b 500 83 432 94 463 83 b 588 113 536 83 565 93 b 625 181 608 131 621 154 l 729 181 "},"Ũ":{"ha":833,"x_min":0,"x_max":0,"o":"m 186 79 b 104 361 132 142 104 235 l 104 972 l 222 972 l 222 361 b 417 90 222 181 288 90 b 611 361 546 90 611 181 l 611 972 l 729 972 l 729 361 b 649 79 729 235 703 142 b 417 -14 594 17 517 -14 b 186 79 317 -14 240 17 m 201 1090 b 235 1197 201 1136 213 1171 b 326 1236 257 1224 288 1236 b 379 1226 346 1236 364 1233 b 439 1193 394 1219 415 1208 b 472 1175 450 1186 461 1181 b 500 1167 482 1169 492 1167 b 531 1185 513 1167 522 1172 b 542 1229 538 1196 542 1211 l 632 1229 b 599 1122 632 1183 621 1149 b 507 1083 576 1096 546 1083 b 454 1094 488 1083 469 1088 b 394 1126 439 1101 418 1111 b 363 1144 383 1133 372 1139 b 333 1153 351 1150 342 1153 b 303 1136 321 1153 310 1147 b 292 1090 296 1125 292 1110 l 201 1090 "},"ũ":{"ha":833,"x_min":0,"x_max":0,"o":"m 264 22 b 172 124 225 46 194 79 b 139 278 150 167 139 218 l 139 722 l 243 722 l 243 278 b 289 135 243 217 258 169 b 410 83 319 100 360 83 b 503 110 444 83 475 92 b 567 182 529 128 551 151 b 590 278 582 211 590 243 l 590 722 l 694 722 l 694 0 l 611 0 l 597 97 l 590 97 b 506 13 567 58 539 31 b 396 -14 471 -6 435 -14 b 264 22 347 -14 303 -3 m 201 854 b 235 961 201 900 213 935 b 326 1000 257 988 288 1000 b 379 990 346 1000 364 997 b 439 957 394 983 415 972 b 472 939 450 950 461 944 b 500 931 482 933 492 931 b 531 949 513 931 522 936 b 542 993 538 960 542 975 l 632 993 b 599 886 632 947 621 913 b 507 847 576 860 546 847 b 454 858 488 847 469 851 b 394 890 439 865 418 875 b 363 908 383 897 372 903 b 333 917 351 914 342 917 b 303 900 321 917 310 911 b 292 854 296 889 292 874 l 201 854 "},"Ū":{"ha":833,"x_min":0,"x_max":0,"o":"m 186 79 b 104 361 132 142 104 235 l 104 972 l 222 972 l 222 361 b 417 90 222 181 288 90 b 611 361 546 90 611 181 l 611 972 l 729 972 l 729 361 b 649 79 729 235 703 142 b 417 -14 594 17 517 -14 b 186 79 317 -14 240 17 m 222 1111 l 222 1201 l 611 1201 l 611 1111 "},"ū":{"ha":833,"x_min":0,"x_max":0,"o":"m 264 22 b 172 124 225 46 194 79 b 139 278 150 167 139 218 l 139 722 l 243 722 l 243 278 b 289 135 243 217 258 169 b 410 83 319 100 360 83 b 503 110 444 83 475 92 b 567 182 529 128 551 151 b 590 278 582 211 590 243 l 590 722 l 694 722 l 694 0 l 611 0 l 597 97 l 590 97 b 506 13 567 58 539 31 b 396 -14 471 -6 435 -14 b 264 22 347 -14 303 -3 m 222 875 l 222 965 l 611 965 l 611 875 "},"Ŭ":{"ha":833,"x_min":0,"x_max":0,"o":"m 186 79 b 104 361 132 142 104 235 l 104 972 l 222 972 l 222 361 b 417 90 222 181 288 90 b 611 361 546 90 611 181 l 611 972 l 729 972 l 729 361 b 649 79 729 235 703 142 b 417 -14 594 17 517 -14 b 186 79 317 -14 240 17 m 272 1117 b 208 1250 236 1149 215 1193 l 306 1250 b 339 1179 308 1219 319 1196 b 417 1153 358 1161 385 1153 b 494 1179 449 1153 475 1161 b 528 1250 514 1196 525 1219 l 625 1250 b 561 1117 618 1193 597 1149 b 417 1069 525 1085 476 1069 b 272 1117 357 1069 308 1085 "},"ŭ":{"ha":833,"x_min":0,"x_max":0,"o":"m 264 22 b 172 124 225 46 194 79 b 139 278 150 167 139 218 l 139 722 l 243 722 l 243 278 b 289 135 243 217 258 169 b 410 83 319 100 360 83 b 503 110 444 83 475 92 b 567 182 529 128 551 151 b 590 278 582 211 590 243 l 590 722 l 694 722 l 694 0 l 611 0 l 597 97 l 590 97 b 506 13 567 58 539 31 b 396 -14 471 -6 435 -14 b 264 22 347 -14 303 -3 m 275 878 b 208 1014 238 907 215 951 l 306 1014 b 342 942 310 982 321 957 b 417 917 363 925 388 917 b 492 942 446 917 471 925 b 528 1014 513 957 524 982 l 625 1014 b 558 878 618 951 596 907 b 417 833 521 849 474 833 b 275 878 360 833 313 849 "},"Ů":{"ha":833,"x_min":0,"x_max":0,"o":"m 186 79 b 104 361 132 142 104 235 l 104 972 l 222 972 l 222 361 b 417 90 222 181 288 90 b 611 361 546 90 611 181 l 611 972 l 729 972 l 729 361 b 649 79 729 235 703 142 b 417 -14 594 17 517 -14 b 186 79 317 -14 240 17 m 319 1072 b 282 1169 294 1097 282 1129 b 319 1268 282 1210 294 1242 b 417 1306 344 1293 376 1306 b 515 1268 457 1306 489 1293 b 553 1169 540 1243 553 1210 b 515 1072 553 1129 540 1097 b 417 1035 489 1047 457 1035 b 319 1072 376 1035 344 1047 m 467 1122 b 483 1169 478 1133 483 1149 b 467 1219 483 1190 478 1207 b 417 1236 454 1231 438 1236 b 369 1219 396 1236 381 1231 b 351 1169 357 1207 351 1190 b 369 1122 351 1149 357 1133 b 417 1104 381 1110 396 1104 b 467 1122 438 1104 454 1110 "},"ů":{"ha":833,"x_min":0,"x_max":0,"o":"m 264 22 b 172 124 225 46 194 79 b 139 278 150 167 139 218 l 139 722 l 243 722 l 243 278 b 289 135 243 217 258 169 b 410 83 319 100 360 83 b 503 110 444 83 475 92 b 567 182 529 128 551 151 b 590 278 582 211 590 243 l 590 722 l 694 722 l 694 0 l 611 0 l 597 97 l 590 97 b 506 13 567 58 539 31 b 396 -14 471 -6 435 -14 b 264 22 347 -14 303 -3 m 319 836 b 282 933 294 861 282 893 b 319 1032 282 974 294 1006 b 417 1069 344 1057 376 1069 b 515 1032 457 1069 489 1057 b 553 933 540 1007 553 974 b 515 836 553 893 540 861 b 417 799 489 811 457 799 b 319 836 376 799 344 811 m 467 886 b 483 933 478 899 483 914 b 467 982 483 954 478 969 b 417 1000 456 994 439 1000 b 368 982 396 1000 379 994 b 351 933 357 969 351 954 b 368 886 351 914 357 899 b 417 868 379 874 396 868 b 467 886 439 868 456 874 "},"Ű":{"ha":833,"x_min":0,"x_max":0,"o":"m 186 79 b 104 361 132 142 104 235 l 104 972 l 222 972 l 222 361 b 417 90 222 181 288 90 b 611 361 546 90 611 181 l 611 972 l 729 972 l 729 361 b 649 79 729 235 703 142 b 417 -14 594 17 517 -14 b 186 79 317 -14 240 17 m 253 1069 l 378 1264 l 510 1264 l 350 1069 m 475 1069 l 600 1264 l 732 1264 l 572 1069 "},"ű":{"ha":833,"x_min":0,"x_max":0,"o":"m 264 22 b 172 124 225 46 194 79 b 139 278 150 167 139 218 l 139 722 l 243 722 l 243 278 b 289 135 243 217 258 169 b 410 83 319 100 360 83 b 503 110 444 83 475 92 b 567 182 529 128 551 151 b 590 278 582 211 590 243 l 590 722 l 694 722 l 694 0 l 611 0 l 597 97 l 590 97 b 506 13 567 58 539 31 b 396 -14 471 -6 435 -14 b 264 22 347 -14 303 -3 m 253 833 l 378 1028 l 510 1028 l 350 833 m 475 833 l 600 1028 l 732 1028 l 572 833 "},"Ų":{"ha":833,"x_min":0,"x_max":0,"o":"m 729 972 l 729 361 b 601 38 729 206 686 97 b 493 -139 529 -14 493 -74 b 515 -190 493 -160 500 -178 b 574 -208 531 -203 550 -208 l 611 -208 l 611 -285 l 564 -285 b 450 -249 514 -285 476 -272 b 410 -150 424 -225 410 -192 b 431 -71 410 -119 417 -93 b 489 -8 443 -49 463 -28 b 417 -14 460 -12 435 -14 b 186 79 317 -14 240 17 b 104 361 132 142 104 235 l 104 972 l 222 972 l 222 361 b 417 90 222 181 288 90 b 611 361 546 90 611 181 l 611 972 "},"ų":{"ha":833,"x_min":0,"x_max":0,"o":"m 694 0 b 601 -68 649 -25 618 -47 b 576 -139 585 -87 576 -111 b 600 -190 576 -160 585 -178 b 657 -208 615 -203 633 -208 l 694 -208 l 694 -285 l 647 -285 b 533 -249 597 -285 560 -272 b 493 -150 507 -225 493 -192 b 610 11 493 -83 532 -29 l 597 97 l 590 97 b 506 13 567 58 539 31 b 396 -14 471 -6 435 -14 b 264 22 347 -14 303 -3 b 172 124 225 46 194 79 b 139 278 150 167 139 218 l 139 722 l 243 722 l 243 278 b 289 135 243 217 258 169 b 410 83 319 100 360 83 b 503 110 444 83 475 92 b 567 182 529 128 551 151 b 590 278 582 211 590 243 l 590 722 l 694 722 l 694 0 "},"Ŵ":{"ha":833,"x_min":0,"x_max":0,"o":"m 163 0 l 49 972 l 161 972 l 217 444 l 225 160 l 239 160 l 339 722 l 494 722 l 594 160 l 608 160 l 617 444 l 672 972 l 785 972 l 671 0 l 525 0 l 421 604 l 414 604 l 308 0 m 190 1069 l 371 1271 l 461 1271 l 642 1069 l 531 1069 l 419 1194 l 413 1194 l 301 1069 "},"ŵ":{"ha":833,"x_min":0,"x_max":0,"o":"m 160 0 l 35 722 l 135 722 l 218 222 l 215 111 l 229 111 l 357 569 l 476 569 l 604 111 l 618 111 l 615 222 l 699 722 l 799 722 l 674 0 l 544 0 l 424 438 l 410 438 l 289 0 m 190 833 l 371 1035 l 461 1035 l 642 833 l 531 833 l 419 958 l 413 958 l 301 833 "},"Ŷ":{"ha":833,"x_min":0,"x_max":0,"o":"m 358 0 l 358 375 l 60 972 l 185 972 l 375 569 l 411 458 l 425 458 l 461 569 l 650 972 l 775 972 l 476 375 l 476 0 m 192 1069 l 372 1271 l 463 1271 l 643 1069 l 532 1069 l 421 1194 l 414 1194 l 303 1069 "},"ŷ":{"ha":833,"x_min":0,"x_max":0,"o":"m 254 -278 l 365 0 l 74 722 l 186 722 l 417 139 l 424 139 l 651 722 l 761 722 l 365 -278 m 192 833 l 372 1035 l 463 1035 l 643 833 l 532 833 l 421 958 l 414 958 l 303 833 "},"Ÿ":{"ha":833,"x_min":0,"x_max":0,"o":"m 358 0 l 358 375 l 60 972 l 185 972 l 375 569 l 411 458 l 425 458 l 461 569 l 650 972 l 775 972 l 476 375 l 476 0 m 246 1113 b 224 1163 231 1126 224 1143 b 246 1215 224 1183 231 1200 b 297 1236 260 1229 276 1236 b 349 1215 318 1236 335 1229 b 369 1163 363 1200 369 1183 b 349 1113 369 1143 363 1126 b 297 1090 335 1097 318 1090 b 246 1113 276 1090 260 1097 m 489 1113 b 467 1163 474 1126 467 1143 b 489 1215 467 1183 474 1200 b 540 1236 503 1229 519 1236 b 592 1215 561 1236 578 1229 b 613 1163 606 1200 613 1183 b 592 1113 613 1143 606 1126 b 540 1090 578 1097 561 1090 b 489 1113 519 1090 503 1097 "},"Ź":{"ha":833,"x_min":0,"x_max":0,"o":"m 83 0 l 83 83 l 597 868 l 97 868 l 97 972 l 743 972 l 743 889 l 229 104 l 750 104 l 750 0 m 365 1069 l 490 1264 l 622 1264 l 463 1069 "},"ź":{"ha":833,"x_min":0,"x_max":0,"o":"m 139 0 l 139 83 l 556 625 l 153 625 l 153 722 l 688 722 l 688 639 l 271 97 l 694 97 l 694 0 m 365 833 l 490 1028 l 622 1028 l 463 833 "},"Ż":{"ha":833,"x_min":0,"x_max":0,"o":"m 83 0 l 83 83 l 597 868 l 97 868 l 97 972 l 743 972 l 743 889 l 229 104 l 750 104 l 750 0 m 369 1113 b 347 1163 354 1126 347 1143 b 369 1215 347 1183 354 1200 b 421 1236 383 1229 400 1236 b 472 1215 442 1236 458 1229 b 493 1163 486 1200 493 1183 b 472 1113 493 1143 486 1126 b 421 1090 458 1097 442 1090 b 369 1113 400 1090 383 1097 "},"ż":{"ha":833,"x_min":0,"x_max":0,"o":"m 139 0 l 139 83 l 556 625 l 153 625 l 153 722 l 688 722 l 688 639 l 271 97 l 694 97 l 694 0 m 369 876 b 347 926 354 890 347 907 b 369 979 347 947 354 964 b 421 1000 383 993 400 1000 b 472 979 442 1000 458 993 b 493 926 486 964 493 947 b 472 876 493 907 486 890 b 421 854 458 861 442 854 b 369 876 400 854 383 861 "},"Ž":{"ha":833,"x_min":0,"x_max":0,"o":"m 83 0 l 83 83 l 597 868 l 97 868 l 97 972 l 743 972 l 743 889 l 229 104 l 750 104 l 750 0 m 375 1069 l 194 1271 l 306 1271 l 417 1146 l 424 1146 l 535 1271 l 646 1271 l 465 1069 "},"ž":{"ha":833,"x_min":0,"x_max":0,"o":"m 139 0 l 139 83 l 556 625 l 153 625 l 153 722 l 688 722 l 688 639 l 271 97 l 694 97 l 694 0 m 375 833 l 194 1035 l 306 1035 l 417 910 l 424 910 l 535 1035 l 646 1035 l 465 833 "},"Ə":{"ha":833,"x_min":0,"x_max":0,"o":"m 600 932 b 725 767 653 896 694 840 b 771 486 756 692 771 599 b 725 207 771 374 756 281 b 600 40 694 132 653 76 b 417 -14 547 4 486 -14 b 233 40 347 -14 286 4 b 108 207 181 76 139 132 b 63 486 78 281 63 374 l 63 528 l 651 528 b 582 797 647 651 625 740 b 417 882 539 854 485 882 b 219 736 326 882 261 833 l 97 736 b 221 925 124 821 165 883 b 417 986 275 965 340 986 b 600 932 486 986 547 968 m 579 171 b 651 424 621 224 644 308 l 182 424 b 253 172 186 310 210 226 b 417 90 296 118 350 90 b 579 171 482 90 536 117 "},"ƒ":{"ha":833,"x_min":0,"x_max":0,"o":"m 624 875 b 572 858 603 875 585 869 b 542 801 558 846 549 828 l 496 604 l 646 604 l 625 507 l 472 507 l 332 -96 b 267 -214 319 -150 297 -190 b 146 -250 236 -237 196 -250 l 42 -250 l 63 -153 l 147 -153 b 200 -136 168 -153 186 -147 b 229 -79 213 -124 222 -106 l 367 507 l 215 507 l 236 604 l 389 604 l 439 818 b 504 936 451 872 474 913 b 625 972 535 960 575 972 l 722 972 l 701 875 l 624 875 "},"Ǵ":{"ha":833,"x_min":0,"x_max":0,"o":"m 233 40 b 108 207 181 76 139 132 b 63 486 78 281 63 374 b 108 767 63 599 78 692 b 233 932 139 840 181 896 b 417 986 286 968 347 986 b 624 917 499 986 568 963 b 744 715 679 871 719 803 l 626 715 b 546 839 608 769 581 810 b 417 882 511 868 468 882 b 246 788 346 882 289 850 b 181 486 203 725 181 624 b 246 185 181 349 203 247 b 417 90 289 122 346 90 b 579 174 485 90 539 118 b 647 389 619 229 643 301 l 444 389 l 444 493 l 771 493 l 771 472 b 733 229 771 383 758 303 b 617 53 708 156 669 97 b 417 -14 563 8 496 -14 b 233 40 347 -14 286 4 m 361 1069 l 486 1264 l 618 1264 l 458 1069 "},"ǵ":{"ha":833,"x_min":0,"x_max":0,"o":"m 218 -222 b 111 -62 164 -185 128 -132 l 219 -62 b 292 -150 232 -100 257 -129 b 403 -181 326 -171 363 -181 b 540 -129 460 -181 506 -164 b 590 14 574 -94 590 -46 l 590 139 l 583 139 b 496 67 560 107 531 83 b 382 42 461 50 424 42 b 239 83 329 42 282 56 b 136 204 196 111 161 151 b 97 389 110 257 97 318 b 136 574 97 460 110 521 b 239 694 161 626 196 667 b 382 736 282 722 329 736 b 499 708 422 736 461 726 b 590 632 535 690 565 664 l 597 632 l 611 722 l 694 722 l 694 14 b 615 -199 694 -75 668 -146 b 403 -278 563 -251 492 -278 b 218 -222 333 -278 272 -260 m 493 169 b 564 256 522 189 546 218 b 590 389 582 293 590 338 b 564 524 590 440 582 486 b 493 610 546 561 522 589 b 396 639 464 629 431 639 b 257 574 340 639 294 617 b 201 389 219 529 201 468 b 257 206 201 310 219 249 b 396 139 294 161 340 139 b 493 169 431 139 464 149 m 354 833 l 479 1028 l 611 1028 l 451 833 "},"Ǻ":{"ha":833,"x_min":0,"x_max":0,"o":"m 671 0 l 594 243 l 239 243 l 163 0 l 42 0 l 354 972 l 479 972 l 792 0 m 272 347 l 561 347 l 446 715 l 424 854 l 410 854 l 388 715 m 482 1278 b 535 1231 504 1268 522 1251 b 554 1156 547 1208 554 1183 b 517 1058 554 1115 542 1083 b 418 1021 490 1033 458 1021 b 321 1058 378 1021 346 1033 b 283 1156 296 1083 283 1115 b 317 1249 283 1193 294 1224 b 403 1292 339 1274 368 1288 l 433 1368 l 544 1368 l 482 1278 m 468 1108 b 485 1156 479 1119 485 1135 b 468 1206 485 1176 479 1193 b 418 1222 456 1217 439 1222 b 371 1206 397 1222 382 1217 b 353 1156 358 1193 353 1176 b 371 1108 353 1135 358 1119 b 418 1090 382 1096 397 1090 b 468 1108 439 1090 456 1096 "},"ǻ":{"ha":833,"x_min":0,"x_max":0,"o":"m 239 15 b 156 96 203 35 175 61 b 125 208 135 129 125 167 b 157 322 125 250 136 288 b 246 401 178 356 207 382 b 382 431 285 421 331 431 l 569 431 l 569 479 b 526 596 569 528 556 567 b 410 639 497 625 458 639 b 313 614 372 639 339 631 b 257 535 286 597 267 571 l 153 535 b 239 683 163 597 192 647 b 410 736 285 718 342 736 b 601 665 489 736 553 713 b 674 479 650 618 674 556 l 674 0 l 590 0 l 576 90 l 569 90 b 490 18 551 64 525 39 b 361 -14 454 -3 411 -14 b 239 15 315 -14 275 -4 m 514 140 b 569 285 551 178 569 226 l 569 333 l 382 333 b 268 300 331 333 293 322 b 229 208 242 278 229 247 b 267 117 229 169 242 139 b 375 83 292 94 328 83 b 514 140 431 83 476 103 m 481 1042 b 533 994 503 1032 521 1015 b 553 919 546 972 553 947 b 515 822 553 879 540 847 b 417 785 489 797 457 785 b 319 822 376 785 344 797 b 282 919 294 847 282 879 b 315 1013 282 957 293 988 b 401 1056 338 1038 367 1051 l 432 1132 l 543 1132 l 481 1042 m 467 872 b 483 919 478 883 483 899 b 467 969 483 940 478 957 b 417 986 454 981 438 986 b 369 969 396 986 381 981 b 351 919 357 957 351 940 b 369 872 351 899 357 883 b 417 854 381 860 396 854 b 467 872 438 854 454 860 "},"Ǽ":{"ha":833,"x_min":0,"x_max":0,"o":"m 479 104 l 778 104 l 778 0 l 361 0 l 361 222 l 175 222 l 118 0 l 0 0 l 257 972 l 764 972 l 764 868 l 479 868 l 479 542 l 736 542 l 736 438 l 479 438 m 201 326 l 361 326 l 361 868 l 340 868 m 365 1069 l 490 1264 l 622 1264 l 463 1069 "},"ǽ":{"ha":833,"x_min":0,"x_max":0,"o":"m 465 333 b 499 140 468 243 479 178 b 583 83 518 103 546 83 b 674 188 629 83 660 118 l 785 188 b 714 35 772 118 749 67 b 590 -14 679 3 639 -14 b 481 18 544 -14 507 -3 b 417 111 453 39 432 71 b 343 18 399 71 374 39 b 222 -14 313 -3 272 -14 b 76 46 163 -14 114 6 b 21 208 39 86 21 140 b 82 365 21 274 42 325 b 243 424 122 404 175 424 l 354 424 l 354 479 b 250 639 354 586 319 639 b 182 610 221 639 197 629 b 153 535 167 590 157 565 l 49 535 b 117 688 58 603 82 654 b 250 736 151 719 196 736 b 351 708 288 736 321 726 b 417 625 382 689 404 661 b 481 704 428 656 449 682 b 590 736 511 725 547 736 b 747 656 656 736 708 710 b 806 403 786 601 806 517 b 799 333 806 382 803 360 m 701 424 b 668 589 697 500 686 554 b 583 639 649 622 621 639 b 499 588 546 639 517 622 b 467 424 481 553 469 499 l 701 424 m 243 333 b 157 300 207 333 178 322 b 125 208 136 278 125 247 b 153 115 125 168 135 136 b 229 83 171 94 197 83 b 319 132 267 83 296 100 b 354 285 343 164 354 215 l 354 333 m 354 833 l 479 1028 l 611 1028 l 451 833 "},"Ǿ":{"ha":833,"x_min":0,"x_max":0,"o":"m 681 850 b 771 486 740 763 771 642 b 725 207 771 374 756 281 b 600 40 694 132 653 76 b 417 -14 547 4 486 -14 b 221 49 342 -14 276 7 l 174 -35 l 63 -35 l 153 122 b 63 486 93 210 63 331 b 108 767 63 599 78 692 b 233 932 139 840 181 896 b 417 986 286 968 347 986 b 613 924 492 986 557 965 l 660 1007 l 771 1007 m 557 826 b 417 882 518 864 471 882 b 242 781 340 882 282 849 b 181 486 201 713 181 615 b 219 238 181 383 193 300 m 276 146 b 417 90 315 108 363 90 b 593 192 493 90 553 124 b 653 486 633 260 653 357 b 614 735 653 589 640 672 m 361 1069 l 486 1264 l 618 1264 l 458 1069 "},"ǿ":{"ha":833,"x_min":0,"x_max":0,"o":"m 646 635 b 713 515 675 601 697 561 b 736 361 728 469 736 418 b 694 161 736 285 722 218 b 581 32 667 104 629 61 b 417 -14 532 1 476 -14 b 256 29 358 -14 304 0 l 219 -28 l 114 -28 l 188 88 b 121 207 158 121 136 161 b 97 361 106 253 97 304 b 139 561 97 438 111 504 b 254 692 167 618 206 661 b 417 736 303 721 357 736 b 578 693 475 736 529 722 l 614 750 l 719 750 l 646 635 m 522 608 b 417 639 493 629 457 639 b 308 607 376 639 340 628 b 231 511 275 585 249 553 b 201 361 211 469 201 419 b 247 179 201 288 217 228 m 526 117 b 604 211 558 138 585 169 b 632 361 622 253 632 303 b 586 543 632 435 617 494 l 311 114 b 417 83 340 93 376 83 b 526 117 457 83 493 94 m 361 833 l 486 1028 l 618 1028 l 458 833 "},"Ș":{"ha":833,"x_min":0,"x_max":0,"o":"m 190 60 b 83 264 128 108 93 176 l 201 264 b 276 136 211 208 236 165 b 431 90 317 106 368 90 b 579 136 494 90 544 106 b 632 264 614 165 632 208 b 603 349 632 299 622 328 b 532 399 583 369 560 386 b 411 436 503 410 463 422 b 256 488 347 453 296 469 b 154 571 215 506 182 533 b 111 722 125 608 111 658 b 150 860 111 774 124 819 b 257 953 175 900 211 931 b 417 986 303 975 357 986 b 632 921 504 986 576 964 b 729 736 688 876 719 815 l 611 736 b 549 843 604 781 583 817 b 417 882 514 869 469 882 b 281 839 360 882 314 868 b 229 722 246 810 229 771 b 260 631 229 685 239 654 b 335 578 281 607 306 590 b 460 538 364 565 406 553 b 611 488 522 521 572 504 b 710 408 650 469 683 443 b 750 264 736 372 750 324 b 711 119 750 210 738 161 b 599 21 685 76 647 44 b 431 -14 550 -3 493 -14 b 190 60 332 -14 251 11 m 303 -340 l 365 -118 l 483 -118 l 386 -340 "},"ș":{"ha":833,"x_min":0,"x_max":0,"o":"m 218 44 b 125 208 163 83 132 138 l 229 208 b 293 117 236 168 257 138 b 424 83 329 94 372 83 b 561 114 486 83 532 93 b 604 194 590 135 604 161 b 579 254 604 219 596 239 b 517 289 563 269 542 281 b 415 314 492 296 458 304 b 276 351 358 326 311 339 b 185 415 240 364 210 386 b 146 535 158 444 146 483 b 176 635 146 571 156 604 b 267 708 197 665 226 690 b 410 736 307 726 354 736 b 599 686 483 736 547 719 b 688 535 650 653 679 603 l 583 535 b 528 611 576 567 557 592 b 410 639 497 629 458 639 b 292 611 358 639 319 629 b 250 535 264 592 250 567 b 276 471 250 508 258 486 b 340 435 293 456 314 443 b 446 406 365 425 400 415 b 583 368 503 393 549 381 b 672 307 618 356 647 335 b 708 194 696 279 708 242 b 635 44 708 133 683 83 b 424 -14 585 6 514 -14 b 218 44 342 -14 272 6 m 303 -340 l 365 -118 l 483 -118 l 386 -340 "},"Ț":{"ha":833,"x_min":0,"x_max":0,"o":"m 358 0 l 358 868 l 167 868 l 167 701 l 63 701 l 63 972 l 771 972 l 771 701 l 667 701 l 667 868 l 476 868 l 476 0 m 296 -340 l 358 -118 l 476 -118 l 379 -340 "},"ț":{"ha":833,"x_min":0,"x_max":0,"o":"m 335 47 b 271 201 292 88 271 139 l 271 625 l 90 625 l 90 722 l 271 722 l 285 917 l 375 917 l 375 722 l 646 722 l 646 625 l 375 625 l 375 208 b 410 118 375 171 386 140 b 500 83 432 94 463 83 b 588 113 536 83 565 93 b 625 181 608 131 621 154 l 729 181 b 663 43 725 126 703 81 b 500 -14 621 6 567 -14 b 335 47 432 -14 376 7 m 365 -340 l 428 -118 l 546 -118 l 449 -340 "},"Ȳ":{"ha":833,"x_min":0,"x_max":0,"o":"m 358 0 l 358 375 l 60 972 l 185 972 l 375 569 l 411 458 l 425 458 l 461 569 l 650 972 l 775 972 l 476 375 l 476 0 m 224 1111 l 224 1201 l 613 1201 l 613 1111 "},"ȳ":{"ha":833,"x_min":0,"x_max":0,"o":"m 254 -278 l 365 0 l 74 722 l 186 722 l 417 139 l 424 139 l 651 722 l 761 722 l 365 -278 m 224 875 l 224 965 l 613 965 l 613 875 "},"ȷ":{"ha":833,"x_min":0,"x_max":0,"o":"m 164 -219 b 97 -69 124 -181 101 -131 l 201 -69 b 239 -150 206 -101 218 -129 b 326 -181 260 -171 289 -181 b 418 -147 364 -181 394 -169 b 451 -56 440 -124 451 -93 l 451 625 l 233 625 l 233 722 l 556 722 l 556 -56 b 493 -217 556 -122 535 -176 b 326 -278 451 -257 396 -278 b 164 -219 258 -278 204 -258 "},"Ʉ":{"ha":833,"x_min":0,"x_max":0,"o":"m 826 576 l 729 576 l 729 361 b 649 79 729 235 703 142 b 417 -14 594 17 517 -14 b 186 79 317 -14 240 17 b 104 361 132 142 104 235 l 104 576 l 7 576 l 7 681 l 104 681 l 104 972 l 222 972 l 222 681 l 611 681 l 611 972 l 729 972 l 729 681 l 826 681 m 222 576 l 222 361 b 417 90 222 181 288 90 b 611 361 546 90 611 181 l 611 576 "},"ə":{"ha":833,"x_min":0,"x_max":0,"o":"m 582 692 b 696 561 631 661 668 618 b 736 361 722 504 736 438 b 694 161 736 285 722 218 b 581 32 667 104 629 61 b 417 -14 532 1 476 -14 b 256 31 357 -14 304 1 b 140 150 207 60 168 99 b 97 319 111 201 97 257 b 104 389 97 340 100 363 l 631 389 b 567 574 626 468 606 531 b 417 639 526 617 476 639 b 315 611 379 639 346 629 b 239 535 285 593 260 567 l 128 535 b 240 682 151 597 189 646 b 417 736 292 718 351 736 b 582 692 479 736 533 721 m 558 139 b 628 299 596 175 619 228 l 201 299 b 269 144 207 236 229 185 b 417 83 308 104 357 83 b 558 139 472 83 519 101 "},"ʉ":{"ha":833,"x_min":0,"x_max":0,"o":"m 792 410 l 694 410 l 694 0 l 611 0 l 597 97 l 590 97 b 506 13 567 58 539 31 b 396 -14 471 -6 435 -14 b 264 22 347 -14 303 -3 b 172 124 225 46 194 79 b 139 278 150 167 139 218 l 139 410 l 42 410 l 42 507 l 139 507 l 139 722 l 243 722 l 243 507 l 590 507 l 590 722 l 694 722 l 694 507 l 792 507 m 243 410 l 243 278 b 289 135 243 217 258 169 b 410 83 319 100 360 83 b 503 110 444 83 475 92 b 567 182 529 128 551 151 b 590 278 582 211 590 243 l 590 410 "},"ʹ":{"ha":833,"x_min":0,"x_max":0,"o":"m 319 667 l 403 972 l 535 972 l 410 667 "},"ʺ":{"ha":833,"x_min":0,"x_max":0,"o":"m 222 667 l 306 972 l 438 972 l 313 667 m 424 667 l 507 972 l 639 972 l 514 667 "},"ʼ":{"ha":833,"x_min":0,"x_max":0,"o":"m 333 694 l 389 972 l 500 972 l 417 694 "},"ˆ":{"ha":833,"x_min":0,"x_max":0,"o":"m 190 833 l 371 1035 l 461 1035 l 642 833 l 531 833 l 419 958 l 413 958 l 301 833 "},"ˇ":{"ha":833,"x_min":0,"x_max":0,"o":"m 371 833 l 190 1035 l 301 1035 l 413 910 l 419 910 l 531 1035 l 642 1035 l 461 833 "},"˘":{"ha":833,"x_min":0,"x_max":0,"o":"m 275 878 b 208 1014 238 907 215 951 l 306 1014 b 342 942 310 982 321 957 b 417 917 363 925 388 917 b 492 942 446 917 471 925 b 528 1014 513 957 524 982 l 625 1014 b 558 878 618 951 596 907 b 417 833 521 849 474 833 b 275 878 360 833 313 849 "},"˙":{"ha":833,"x_min":0,"x_max":0,"o":"m 365 876 b 343 926 350 890 343 907 b 365 979 343 947 350 964 b 417 1000 379 993 396 1000 b 468 979 438 1000 454 993 b 489 926 482 964 489 947 b 468 876 489 907 482 890 b 417 854 454 861 438 854 b 365 876 396 854 379 861 "},"˚":{"ha":833,"x_min":0,"x_max":0,"o":"m 318 836 b 281 933 293 861 281 893 b 318 1032 281 974 293 1006 b 415 1069 343 1057 375 1069 b 514 1032 456 1069 488 1057 b 551 933 539 1007 551 974 b 514 836 551 893 539 861 b 415 799 488 811 456 799 b 318 836 375 799 343 811 m 465 886 b 482 933 476 899 482 914 b 465 982 482 954 476 969 b 415 1000 454 994 438 1000 b 367 982 394 1000 378 994 b 350 933 356 969 350 954 b 367 886 350 914 356 899 b 415 868 378 874 394 868 b 465 886 438 868 454 874 "},"˛":{"ha":833,"x_min":0,"x_max":0,"o":"m 467 -285 b 353 -249 417 -285 379 -272 b 313 -150 326 -225 313 -192 b 429 11 313 -83 351 -29 l 514 0 b 421 -68 468 -25 438 -47 b 396 -139 404 -87 396 -111 b 419 -190 396 -160 404 -178 b 476 -208 435 -203 453 -208 l 514 -208 l 514 -285 l 467 -285 "},"˜":{"ha":833,"x_min":0,"x_max":0,"o":"m 201 854 b 235 961 201 900 213 935 b 326 1000 257 988 288 1000 b 379 990 346 1000 364 997 b 439 957 394 983 415 972 b 472 939 450 950 461 944 b 500 931 482 933 492 931 b 531 949 513 931 522 936 b 542 993 538 960 542 975 l 632 993 b 599 886 632 947 621 913 b 507 847 576 860 546 847 b 454 858 488 847 469 851 b 394 890 439 865 418 875 b 363 908 383 897 372 903 b 333 917 351 914 342 917 b 303 900 321 917 310 911 b 292 854 296 889 292 874 l 201 854 "},"˝":{"ha":833,"x_min":0,"x_max":0,"o":"m 176 833 l 301 1028 l 433 1028 l 274 833 m 399 833 l 524 1028 l 656 1028 l 496 833 "},"̀":{"ha":0,"x_min":0,"x_max":0,"o":"m -386 833 l -546 1028 l -414 1028 l -289 833 "},"́":{"ha":0,"x_min":0,"x_max":0,"o":"m -546 833 l -421 1028 l -289 1028 l -449 833 "},"̂":{"ha":0,"x_min":0,"x_max":0,"o":"m -643 833 l -462 1035 l -372 1035 l -192 833 l -303 833 l -414 958 l -421 958 l -532 833 "},"̃":{"ha":0,"x_min":0,"x_max":0,"o":"m -632 854 b -599 961 -632 900 -621 935 b -507 1000 -576 988 -546 1000 b -454 990 -487 1000 -469 997 b -394 957 -439 983 -418 972 b -362 939 -383 950 -372 944 b -333 931 -351 933 -342 931 b -304 949 -321 931 -311 936 b -292 993 -296 960 -292 975 l -201 993 b -235 886 -201 947 -212 913 b -326 847 -257 860 -287 847 b -379 858 -346 847 -364 851 b -439 890 -394 865 -415 875 b -472 908 -450 897 -461 903 b -500 917 -482 914 -492 917 b -531 900 -512 917 -524 911 b -542 854 -537 889 -542 874 l -632 854 "},"̄":{"ha":0,"x_min":0,"x_max":0,"o":"m -611 875 l -611 965 l -222 965 l -222 875 "},"̆":{"ha":0,"x_min":0,"x_max":0,"o":"m -558 878 b -625 1014 -596 907 -618 951 l -528 1014 b -492 942 -524 982 -512 957 b -417 917 -471 925 -446 917 b -342 942 -387 917 -362 925 b -306 1014 -321 957 -310 982 l -208 1014 b -275 878 -215 951 -237 907 b -417 833 -312 849 -360 833 b -558 878 -474 833 -521 849 "},"̇":{"ha":0,"x_min":0,"x_max":0,"o":"m -469 876 b -490 926 -483 890 -490 907 b -469 979 -490 947 -483 964 b -417 1000 -454 993 -437 1000 b -365 979 -396 1000 -379 993 b -344 926 -351 964 -344 947 b -365 876 -344 907 -351 890 b -417 854 -379 861 -396 854 b -469 876 -437 854 -454 861 "},"̈":{"ha":0,"x_min":0,"x_max":0,"o":"m -590 876 b -611 926 -604 890 -611 907 b -590 979 -611 947 -604 964 b -537 1000 -575 993 -558 1000 b -486 979 -517 1000 -500 993 b -465 926 -472 964 -465 947 b -486 876 -465 907 -472 890 b -537 854 -500 861 -517 854 b -590 876 -558 854 -575 861 m -347 876 b -368 926 -361 890 -368 907 b -347 979 -368 947 -361 964 b -294 1000 -332 993 -315 1000 b -243 979 -274 1000 -257 993 b -222 926 -229 964 -222 947 b -243 876 -222 907 -229 890 b -294 854 -257 861 -274 854 b -347 876 -315 854 -332 861 "},"̊":{"ha":0,"x_min":0,"x_max":0,"o":"m -515 836 b -553 933 -540 861 -553 893 b -515 1032 -553 974 -540 1006 b -418 1069 -490 1057 -458 1069 b -321 1032 -378 1069 -346 1057 b -282 933 -294 1007 -282 974 b -321 836 -282 893 -294 861 b -418 799 -346 811 -378 799 b -515 836 -458 799 -490 811 m -368 886 b -351 933 -357 899 -351 914 b -368 982 -351 954 -357 969 b -418 1000 -379 994 -396 1000 b -467 982 -439 1000 -456 994 b -483 933 -478 969 -483 954 b -467 886 -483 914 -478 899 b -418 868 -456 874 -439 868 b -368 886 -396 868 -379 874 "},"̋":{"ha":0,"x_min":0,"x_max":0,"o":"m -657 833 l -532 1028 l -400 1028 l -560 833 m -435 833 l -310 1028 l -178 1028 l -337 833 "},"̌":{"ha":0,"x_min":0,"x_max":0,"o":"m -462 833 l -643 1035 l -532 1035 l -421 910 l -414 910 l -303 1035 l -192 1035 l -372 833 "},"̒":{"ha":0,"x_min":0,"x_max":0,"o":"m -504 833 l -407 1056 l -331 1056 l -393 833 "},"̦":{"ha":0,"x_min":0,"x_max":0,"o":"m -507 -340 l -444 -118 l -326 -118 l -424 -340 "},"̧":{"ha":0,"x_min":0,"x_max":0,"o":"m -418 -50 b -340 -86 -385 -54 -358 -65 b -312 -160 -322 -106 -312 -131 b -349 -250 -312 -197 -325 -226 b -437 -285 -372 -274 -403 -285 l -521 -285 l -521 -215 l -451 -215 b -411 -201 -433 -215 -421 -211 b -396 -160 -401 -192 -396 -178 b -411 -125 -396 -146 -401 -135 b -451 -111 -421 -115 -435 -111 l -507 -111 l -507 -62 l -462 38 l -396 0 l -418 -50 "},"̨":{"ha":0,"x_min":0,"x_max":0,"o":"m -367 -285 b -482 -249 -417 -285 -456 -272 b -521 -150 -508 -225 -521 -192 b -404 11 -521 -83 -482 -29 l -319 0 b -412 -68 -365 -25 -396 -47 b -437 -139 -429 -87 -437 -111 b -415 -190 -437 -160 -431 -178 b -357 -208 -400 -203 -381 -208 l -319 -208 l -319 -285 l -367 -285 "},"Ω":{"ha":833,"x_min":0,"x_max":0,"o":"m 76 90 l 221 90 b 86 276 164 138 119 200 b 35 514 51 353 35 432 b 83 761 35 607 51 690 b 217 928 115 832 160 888 b 417 986 274 967 340 986 b 617 928 493 986 560 967 b 751 761 674 888 719 832 b 799 514 783 690 799 607 b 749 275 799 432 782 351 b 613 90 714 197 669 136 l 757 90 l 757 0 l 493 0 l 493 90 b 642 264 556 133 606 192 b 694 500 676 336 694 415 b 661 707 694 579 683 647 b 564 842 638 765 606 810 b 417 889 522 874 474 889 b 269 842 360 889 311 874 b 174 707 228 810 196 765 b 139 500 150 647 139 579 b 193 264 139 415 157 336 b 340 90 228 192 278 133 l 340 0 l 76 0 "},"Ѐ":{"ha":833,"x_min":0,"x_max":0,"o":"m 250 104 l 729 104 l 729 0 l 132 0 l 132 972 l 715 972 l 715 868 l 250 868 l 250 542 l 688 542 l 688 438 l 250 438 m 382 1069 l 222 1264 l 354 1264 l 479 1069 "},"Ё":{"ha":833,"x_min":0,"x_max":0,"o":"m 250 104 l 729 104 l 729 0 l 132 0 l 132 972 l 715 972 l 715 868 l 250 868 l 250 542 l 688 542 l 688 438 l 250 438 m 251 1113 b 229 1163 236 1126 229 1143 b 251 1215 229 1183 236 1200 b 303 1236 265 1229 282 1236 b 354 1215 324 1236 340 1229 b 375 1163 368 1200 375 1183 b 354 1113 375 1143 368 1126 b 303 1090 340 1097 324 1090 b 251 1113 282 1090 265 1097 m 494 1113 b 472 1163 479 1126 472 1143 b 494 1215 472 1183 479 1200 b 546 1236 508 1229 525 1236 b 597 1215 567 1236 583 1229 b 618 1163 611 1200 618 1183 b 597 1113 618 1143 611 1126 b 546 1090 583 1097 567 1090 b 494 1113 525 1090 508 1097 "},"Ђ":{"ha":833,"x_min":0,"x_max":0,"o":"m 438 21 b 544 53 475 21 511 32 b 624 144 576 74 603 104 b 653 292 643 185 653 235 b 606 458 653 365 638 421 b 472 514 574 496 529 514 b 299 464 410 514 353 497 l 299 0 l 181 0 l 181 868 l -7 868 l -7 972 l 528 972 l 528 868 l 299 868 l 299 571 b 479 618 358 603 418 618 b 692 532 567 618 638 589 b 771 292 744 475 771 394 b 729 94 771 217 757 151 b 611 -37 700 38 661 -7 b 438 -83 560 -68 503 -83 l 438 21 "},"Ѓ":{"ha":833,"x_min":0,"x_max":0,"o":"m 146 0 l 146 972 l 757 972 l 757 743 l 653 743 l 653 868 l 264 868 l 264 0 m 396 1069 l 521 1264 l 653 1264 l 493 1069 "},"Є":{"ha":833,"x_min":0,"x_max":0,"o":"m 764 306 b 640 65 740 197 699 117 b 424 -14 582 13 510 -14 b 240 40 354 -14 293 4 b 115 207 188 76 146 132 b 69 486 85 281 69 374 b 115 767 69 599 85 692 b 240 932 146 840 188 896 b 424 986 293 968 354 986 b 631 917 506 986 575 963 b 751 715 686 871 726 803 l 633 715 b 553 839 615 769 588 810 b 424 882 518 868 475 882 b 261 801 357 882 303 856 b 189 542 218 747 194 660 l 521 542 l 521 438 l 189 438 b 260 174 194 317 218 229 b 424 90 301 118 356 90 b 564 143 478 90 525 108 b 646 306 601 178 629 232 l 764 306 "},"Ѕ":{"ha":833,"x_min":0,"x_max":0,"o":"m 190 60 b 83 264 128 108 93 176 l 201 264 b 276 136 211 208 236 165 b 431 90 317 106 368 90 b 579 136 494 90 544 106 b 632 264 614 165 632 208 b 603 349 632 299 622 328 b 532 399 583 369 560 386 b 411 436 503 410 463 422 b 256 488 347 453 296 469 b 154 571 215 506 182 533 b 111 722 125 608 111 658 b 150 860 111 774 124 819 b 257 953 175 900 211 931 b 417 986 303 975 357 986 b 632 921 504 986 576 964 b 729 736 688 876 719 815 l 611 736 b 549 843 604 781 583 817 b 417 882 514 869 469 882 b 281 839 360 882 314 868 b 229 722 246 810 229 771 b 260 631 229 685 239 654 b 335 578 281 607 306 590 b 460 538 364 565 406 553 b 611 488 522 521 572 504 b 710 408 650 469 683 443 b 750 264 736 372 750 324 b 711 119 750 210 738 161 b 599 21 685 76 647 44 b 431 -14 550 -3 493 -14 b 190 60 332 -14 251 11 "},"І":{"ha":833,"x_min":0,"x_max":0,"o":"m 146 0 l 146 104 l 358 104 l 358 868 l 146 868 l 146 972 l 688 972 l 688 868 l 476 868 l 476 104 l 688 104 l 688 0 "},"Ї":{"ha":833,"x_min":0,"x_max":0,"o":"m 146 0 l 146 104 l 358 104 l 358 868 l 146 868 l 146 972 l 688 972 l 688 868 l 476 868 l 476 104 l 688 104 l 688 0 m 244 1113 b 222 1163 229 1126 222 1143 b 244 1215 222 1183 229 1200 b 296 1236 258 1229 275 1236 b 347 1215 317 1236 333 1229 b 368 1163 361 1200 368 1183 b 347 1113 368 1143 361 1126 b 296 1090 333 1097 317 1090 b 244 1113 275 1090 258 1097 m 488 1113 b 465 1163 472 1126 465 1143 b 488 1215 465 1183 472 1200 b 539 1236 501 1229 518 1236 b 590 1215 560 1236 576 1229 b 611 1163 604 1200 611 1183 b 590 1113 611 1143 604 1126 b 539 1090 576 1097 560 1090 b 488 1113 518 1090 501 1097 "},"Ј":{"ha":833,"x_min":0,"x_max":0,"o":"m 158 58 b 63 271 104 106 72 176 l 181 271 b 242 138 188 214 207 169 b 368 90 276 106 318 90 b 511 154 429 90 476 111 b 563 333 546 196 563 256 l 563 868 l 215 868 l 215 972 l 681 972 l 681 333 b 596 76 681 222 653 136 b 368 -14 539 17 464 -14 b 158 58 282 -14 213 10 "},"Љ":{"ha":833,"x_min":0,"x_max":0,"o":"m 542 569 b 740 494 626 569 692 544 b 813 285 789 444 813 375 b 740 75 813 194 789 125 b 542 0 692 25 626 0 l 396 0 l 396 868 l 271 868 l 271 569 b 250 238 271 431 264 319 b 176 54 236 156 211 94 b 28 -7 142 14 92 -7 l 14 -7 l 14 104 l 28 104 b 99 149 57 104 81 119 b 139 293 117 178 129 225 b 153 569 149 361 153 453 l 153 972 l 514 972 l 514 569 l 542 569 m 535 104 b 694 285 642 104 694 164 b 535 465 694 406 642 465 l 514 465 l 514 104 l 535 104 "},"Њ":{"ha":833,"x_min":0,"x_max":0,"o":"m 542 569 b 740 494 626 569 692 544 b 813 285 789 444 813 375 b 740 75 813 194 789 125 b 542 0 692 25 626 0 l 396 0 l 396 465 l 215 465 l 215 0 l 97 0 l 97 972 l 215 972 l 215 569 l 396 569 l 396 972 l 514 972 l 514 569 l 542 569 m 535 104 b 694 285 642 104 694 164 b 535 465 694 406 642 465 l 514 465 l 514 104 l 535 104 "},"Ћ":{"ha":833,"x_min":0,"x_max":0,"o":"m 181 868 l -7 868 l -7 972 l 528 972 l 528 868 l 299 868 l 299 571 b 385 606 325 586 354 597 b 475 618 415 614 446 618 b 690 535 565 618 636 590 b 771 306 744 479 771 403 l 771 0 l 653 0 l 653 306 b 606 461 653 374 638 426 b 475 514 574 496 529 514 b 299 465 413 514 353 497 l 299 0 l 181 0 "},"Ќ":{"ha":833,"x_min":0,"x_max":0,"o":"m 799 0 l 656 0 l 250 481 l 250 0 l 132 0 l 132 972 l 250 972 l 250 507 l 639 972 l 778 972 l 376 494 m 382 1069 l 507 1264 l 639 1264 l 479 1069 "},"Ѝ":{"ha":833,"x_min":0,"x_max":0,"o":"m 118 0 l 118 972 l 236 972 l 236 361 l 201 125 l 215 125 l 549 972 l 715 972 l 715 0 l 597 0 l 597 611 l 632 847 l 618 847 l 285 0 m 375 1069 l 215 1264 l 347 1264 l 472 1069 "},"Ў":{"ha":833,"x_min":0,"x_max":0,"o":"m 233 0 l 365 285 l 32 972 l 158 972 l 378 506 l 421 382 l 428 382 l 469 507 l 679 972 l 803 972 l 357 0 m 275 1117 b 211 1250 239 1149 218 1193 l 308 1250 b 342 1179 311 1219 322 1196 b 419 1153 361 1161 388 1153 b 497 1179 451 1153 478 1161 b 531 1250 517 1196 528 1219 l 628 1250 b 564 1117 621 1193 600 1149 b 419 1069 528 1085 479 1069 b 275 1117 360 1069 311 1085 "},"Џ":{"ha":833,"x_min":0,"x_max":0,"o":"m 364 -201 l 364 0 l 118 0 l 118 972 l 236 972 l 236 104 l 597 104 l 597 972 l 715 972 l 715 0 l 468 0 l 468 -201 "},"А":{"ha":833,"x_min":0,"x_max":0,"o":"m 671 0 l 594 243 l 239 243 l 163 0 l 42 0 l 354 972 l 479 972 l 792 0 m 272 347 l 561 347 l 446 715 l 424 854 l 410 854 l 388 715 "},"Б":{"ha":833,"x_min":0,"x_max":0,"o":"m 118 972 l 694 972 l 694 868 l 236 868 l 236 583 l 458 583 b 619 547 519 583 574 571 b 726 444 665 522 701 488 b 764 292 751 400 764 349 b 726 140 764 235 751 183 b 619 38 701 96 665 61 b 458 0 574 13 519 0 l 118 0 m 451 104 b 594 156 511 104 560 121 b 646 292 629 189 646 235 b 594 429 646 349 629 394 b 451 479 560 463 511 479 l 236 479 l 236 104 l 451 104 "},"В":{"ha":833,"x_min":0,"x_max":0,"o":"m 718 407 b 757 271 744 365 757 319 b 681 75 757 189 732 124 b 472 0 629 25 560 0 l 118 0 l 118 972 l 458 972 b 610 939 515 972 567 961 b 708 843 653 915 685 883 b 743 701 732 801 743 754 b 710 579 743 658 732 617 b 619 494 686 540 657 513 b 718 407 658 478 692 449 m 236 535 l 451 535 b 578 581 504 535 546 550 b 625 701 610 611 625 651 b 578 822 625 751 610 792 b 451 868 546 853 504 868 l 236 868 m 465 104 b 592 150 518 104 560 119 b 639 271 624 181 639 221 b 592 392 639 321 624 361 b 465 438 560 422 518 438 l 236 438 l 236 104 l 465 104 "},"Г":{"ha":833,"x_min":0,"x_max":0,"o":"m 146 0 l 146 972 l 757 972 l 757 743 l 653 743 l 653 868 l 264 868 l 264 0 "},"Д":{"ha":833,"x_min":0,"x_max":0,"o":"m 778 104 l 778 -201 l 674 -201 l 674 0 l 125 0 l 125 -201 l 21 -201 l 21 104 l 85 104 b 154 300 117 160 140 225 b 174 569 167 375 174 465 l 174 972 l 701 972 l 701 104 m 583 868 l 292 868 l 292 569 b 272 300 292 465 285 375 b 203 104 258 225 235 160 l 583 104 "},"Е":{"ha":833,"x_min":0,"x_max":0,"o":"m 250 104 l 729 104 l 729 0 l 132 0 l 132 972 l 715 972 l 715 868 l 250 868 l 250 542 l 688 542 l 688 438 l 250 438 "},"Ж":{"ha":833,"x_min":0,"x_max":0,"o":"m 600 496 l 819 0 l 697 0 l 500 472 l 460 472 l 472 389 l 472 0 l 361 0 l 361 389 l 374 472 l 333 472 l 136 0 l 14 0 l 233 496 l 35 972 l 154 972 l 335 514 l 374 514 l 361 597 l 361 972 l 472 972 l 472 597 l 460 514 l 499 514 l 679 972 l 799 972 "},"З":{"ha":833,"x_min":0,"x_max":0,"o":"m 183 58 b 76 257 122 107 86 172 l 194 257 b 264 138 201 208 224 169 b 403 90 304 106 350 90 b 564 138 474 90 528 106 b 618 264 600 168 618 210 b 568 393 618 319 601 363 b 403 438 533 422 479 438 l 361 438 l 361 535 l 403 535 b 553 582 468 535 518 550 b 604 708 588 613 604 654 b 553 836 604 763 588 804 b 403 882 518 867 468 882 b 271 840 349 882 306 868 b 208 715 236 811 215 769 l 90 715 b 192 917 100 803 135 869 b 403 986 249 963 319 986 b 639 911 504 986 583 961 b 722 708 694 861 722 793 b 683 569 722 651 710 606 b 578 493 657 533 621 508 b 692 410 624 479 661 451 b 736 264 721 367 736 318 b 697 121 736 210 724 163 b 583 22 671 78 633 46 b 403 -14 533 -3 474 -14 b 183 58 317 -14 243 10 "},"И":{"ha":833,"x_min":0,"x_max":0,"o":"m 118 0 l 118 972 l 236 972 l 236 361 l 201 125 l 215 125 l 549 972 l 715 972 l 715 0 l 597 0 l 597 611 l 632 847 l 618 847 l 285 0 "},"Й":{"ha":833,"x_min":0,"x_max":0,"o":"m 118 0 l 118 972 l 236 972 l 236 361 l 201 125 l 215 125 l 549 972 l 715 972 l 715 0 l 597 0 l 597 611 l 632 847 l 618 847 l 285 0 m 272 1117 b 208 1250 236 1149 215 1193 l 306 1250 b 339 1179 308 1219 319 1196 b 417 1153 358 1161 385 1153 b 494 1179 449 1153 475 1161 b 528 1250 514 1196 525 1219 l 625 1250 b 561 1117 618 1193 597 1149 b 417 1069 525 1085 476 1069 b 272 1117 357 1069 308 1085 "},"К":{"ha":833,"x_min":0,"x_max":0,"o":"m 799 0 l 656 0 l 250 481 l 250 0 l 132 0 l 132 972 l 250 972 l 250 507 l 639 972 l 778 972 l 376 494 "},"Л":{"ha":833,"x_min":0,"x_max":0,"o":"m 35 104 l 69 104 b 140 149 99 104 122 119 b 181 293 158 178 171 225 b 194 569 190 361 194 453 l 194 972 l 715 972 l 715 0 l 597 0 l 597 868 l 313 868 l 313 569 b 292 238 313 431 306 319 b 218 54 278 156 253 94 b 69 -7 183 14 133 -7 l 35 -7 "},"М":{"ha":833,"x_min":0,"x_max":0,"o":"m 90 0 l 90 972 l 247 972 l 414 514 l 421 514 l 586 972 l 743 972 l 743 0 l 625 0 l 625 583 l 653 826 l 639 826 l 460 333 l 374 333 l 194 826 l 181 826 l 208 583 l 208 0 "},"Н":{"ha":833,"x_min":0,"x_max":0,"o":"m 597 972 l 715 972 l 715 0 l 597 0 l 597 438 l 236 438 l 236 0 l 118 0 l 118 972 l 236 972 l 236 542 l 597 542 "},"О":{"ha":833,"x_min":0,"x_max":0,"o":"m 233 40 b 108 207 181 76 139 132 b 63 486 78 281 63 374 b 108 767 63 599 78 692 b 233 932 139 840 181 896 b 417 986 286 968 347 986 b 600 932 486 986 547 968 b 725 767 653 896 694 840 b 771 486 756 692 771 599 b 725 207 771 374 756 281 b 600 40 694 132 653 76 b 417 -14 547 4 486 -14 b 233 40 347 -14 286 4 m 593 192 b 653 486 633 260 653 357 b 593 781 653 615 633 713 b 417 882 553 849 493 882 b 242 781 340 882 282 849 b 181 486 201 713 181 615 b 242 192 181 357 201 260 b 417 90 282 124 340 90 b 593 192 493 90 553 124 "},"П":{"ha":833,"x_min":0,"x_max":0,"o":"m 118 0 l 118 972 l 715 972 l 715 0 l 597 0 l 597 868 l 236 868 l 236 0 "},"Р":{"ha":833,"x_min":0,"x_max":0,"o":"m 125 972 l 451 972 b 617 933 514 972 569 960 b 726 824 664 907 700 869 b 764 667 751 778 764 725 b 726 510 764 608 751 556 b 617 401 700 464 664 428 b 451 361 569 375 514 361 l 243 361 l 243 0 l 125 0 m 444 465 b 593 519 507 465 557 483 b 646 667 628 556 646 604 b 593 815 646 729 628 779 b 444 868 557 850 507 868 l 243 868 l 243 465 l 444 465 "},"С":{"ha":833,"x_min":0,"x_max":0,"o":"m 240 40 b 115 207 188 76 146 132 b 69 486 85 281 69 374 b 115 767 69 599 85 692 b 240 932 146 840 188 896 b 424 986 293 968 354 986 b 631 917 506 986 575 963 b 751 715 686 871 726 803 l 633 715 b 553 839 615 769 588 810 b 424 882 518 868 475 882 b 253 788 353 882 296 850 b 188 486 210 725 188 624 b 253 185 188 349 210 247 b 424 90 296 122 353 90 b 564 143 478 90 525 108 b 646 306 601 178 629 232 l 764 306 b 640 65 740 197 699 117 b 424 -14 582 13 510 -14 b 240 40 354 -14 293 4 "},"Т":{"ha":833,"x_min":0,"x_max":0,"o":"m 358 0 l 358 868 l 167 868 l 167 701 l 63 701 l 63 972 l 771 972 l 771 701 l 667 701 l 667 868 l 476 868 l 476 0 "},"У":{"ha":833,"x_min":0,"x_max":0,"o":"m 233 0 l 365 285 l 32 972 l 158 972 l 378 506 l 421 382 l 428 382 l 469 507 l 679 972 l 803 972 l 357 0 "},"Ф":{"ha":833,"x_min":0,"x_max":0,"o":"m 479 875 b 628 831 531 875 581 860 b 742 700 674 801 713 757 b 785 493 771 642 785 572 b 742 288 785 414 771 344 b 628 156 713 229 674 185 b 479 111 581 126 531 111 l 472 111 l 472 -14 l 361 -14 l 361 111 l 354 111 b 207 156 303 111 253 126 b 93 288 160 185 122 229 b 49 493 64 344 49 414 b 93 700 49 572 64 642 b 207 831 122 757 160 801 b 354 875 253 860 303 875 l 361 875 l 361 986 l 472 986 l 472 875 l 479 875 m 361 771 l 354 771 b 265 740 324 771 294 761 b 194 646 236 719 213 688 b 167 493 176 603 167 553 b 194 342 167 433 176 383 b 265 247 213 299 236 268 b 354 215 294 226 324 215 l 361 215 m 479 215 b 568 247 510 215 539 226 b 639 342 597 268 621 299 b 667 493 657 383 667 433 b 639 646 667 553 657 603 b 568 740 621 688 597 719 b 479 771 539 761 510 771 l 472 771 l 472 215 l 479 215 "},"Х":{"ha":833,"x_min":0,"x_max":0,"o":"m 42 0 l 347 500 l 56 972 l 188 972 l 368 674 l 410 576 l 424 576 l 465 674 l 646 972 l 778 972 l 486 500 l 792 0 l 660 0 l 465 326 l 424 424 l 410 424 l 368 326 l 174 0 "},"Ц":{"ha":833,"x_min":0,"x_max":0,"o":"m 681 -201 l 681 0 l 118 0 l 118 972 l 236 972 l 236 104 l 597 104 l 597 972 l 715 972 l 715 104 l 785 104 l 785 -201 "},"Ч":{"ha":833,"x_min":0,"x_max":0,"o":"m 597 347 b 403 299 546 315 481 299 b 242 340 343 299 289 313 b 131 458 194 368 157 407 b 90 632 104 508 90 567 l 90 972 l 208 972 l 208 632 b 263 464 208 561 226 504 b 403 403 299 424 346 403 b 597 451 474 403 539 419 l 597 972 l 715 972 l 715 0 l 597 0 l 597 347 "},"Ш":{"ha":833,"x_min":0,"x_max":0,"o":"m 76 0 l 76 972 l 188 972 l 188 104 l 361 104 l 361 972 l 472 972 l 472 104 l 646 104 l 646 972 l 757 972 l 757 0 "},"Щ":{"ha":833,"x_min":0,"x_max":0,"o":"m 722 -201 l 722 0 l 76 0 l 76 972 l 188 972 l 188 104 l 361 104 l 361 972 l 472 972 l 472 104 l 646 104 l 646 972 l 757 972 l 757 104 l 826 104 l 826 -201 "},"Ъ":{"ha":833,"x_min":0,"x_max":0,"o":"m 181 868 l 14 868 l 14 972 l 299 972 l 299 597 l 444 597 b 674 517 540 597 617 571 b 757 299 729 463 757 389 b 674 82 757 208 729 136 b 444 0 617 28 540 0 l 181 0 m 438 104 b 585 157 500 104 549 122 b 639 299 621 192 639 239 b 585 440 639 358 621 406 b 438 493 549 475 500 493 l 299 493 l 299 104 l 438 104 "},"Ы":{"ha":833,"x_min":0,"x_max":0,"o":"m 76 972 l 194 972 l 194 597 l 271 597 b 424 561 328 597 379 585 b 526 456 467 536 501 501 b 563 299 550 410 563 358 b 526 142 563 239 550 188 b 424 38 501 96 467 61 b 271 0 379 13 328 0 l 76 0 m 639 0 l 639 972 l 757 972 l 757 0 m 264 104 b 394 158 317 104 360 122 b 444 299 428 193 444 240 b 394 440 444 357 428 404 b 264 493 360 475 317 493 l 194 493 l 194 104 l 264 104 "},"Ь":{"ha":833,"x_min":0,"x_max":0,"o":"m 118 972 l 236 972 l 236 597 l 438 597 b 667 517 533 597 610 571 b 750 299 722 463 750 389 b 667 82 750 208 722 136 b 438 0 610 28 533 0 l 118 0 m 431 104 b 578 157 493 104 542 122 b 632 299 614 192 632 239 b 578 440 632 358 614 406 b 431 493 542 475 493 493 l 236 493 l 236 104 l 431 104 "},"Э":{"ha":833,"x_min":0,"x_max":0,"o":"m 593 932 b 718 767 646 896 688 840 b 764 486 749 692 764 599 b 718 207 764 374 749 281 b 593 40 688 132 646 76 b 410 -14 540 4 479 -14 b 193 65 324 -14 251 13 b 69 306 135 117 93 197 l 188 306 b 271 143 204 232 232 178 b 410 90 308 108 356 90 b 574 174 478 90 532 118 b 644 438 615 229 639 317 l 313 438 l 313 542 l 644 542 b 574 801 639 660 615 747 b 410 882 531 856 476 882 b 281 839 358 882 315 868 b 200 715 246 810 218 769 l 82 715 b 203 917 107 803 147 871 b 410 986 258 963 328 986 b 593 932 479 986 540 968 "},"Ю":{"ha":833,"x_min":0,"x_max":0,"o":"m 714 858 b 778 486 757 772 778 649 b 713 117 778 326 756 204 b 528 -14 669 29 607 -14 b 354 103 454 -14 396 25 b 285 438 311 179 289 292 l 201 438 l 201 0 l 90 0 l 90 972 l 201 972 l 201 542 l 286 542 b 354 872 290 685 313 796 b 528 986 396 949 454 986 b 714 858 608 986 671 943 m 626 192 b 660 486 649 260 660 357 b 626 781 660 615 649 713 b 528 882 603 849 571 882 b 431 781 485 882 453 849 b 396 486 407 713 396 615 b 431 192 396 357 407 260 b 528 90 453 124 485 90 b 626 192 571 90 603 124 "},"Я":{"ha":833,"x_min":0,"x_max":0,"o":"m 715 0 l 597 0 l 597 389 l 450 389 l 190 0 l 56 0 l 321 393 b 138 486 243 403 182 433 b 69 681 92 538 69 603 b 107 833 69 738 82 789 b 214 936 132 876 168 911 b 375 972 260 960 313 972 l 715 972 m 597 868 l 382 868 b 239 819 319 868 272 851 b 188 681 204 786 188 740 b 239 543 188 621 204 575 b 382 493 272 510 319 493 l 597 493 "},"а":{"ha":833,"x_min":0,"x_max":0,"o":"m 239 15 b 156 96 203 35 175 61 b 125 208 135 129 125 167 b 157 322 125 250 136 288 b 246 401 178 356 207 382 b 382 431 285 421 331 431 l 569 431 l 569 479 b 526 596 569 528 556 567 b 410 639 497 625 458 639 b 313 614 372 639 339 631 b 257 535 286 597 267 571 l 153 535 b 239 683 163 597 192 647 b 410 736 285 718 342 736 b 601 665 489 736 553 713 b 674 479 650 618 674 556 l 674 0 l 590 0 l 576 90 l 569 90 b 490 18 551 64 525 39 b 361 -14 454 -3 411 -14 b 239 15 315 -14 275 -4 m 514 140 b 569 285 551 178 569 226 l 569 333 l 382 333 b 268 300 331 333 293 322 b 229 208 242 278 229 247 b 267 117 229 169 242 139 b 375 83 292 94 328 83 b 514 140 431 83 476 103 "},"б":{"ha":833,"x_min":0,"x_max":0,"o":"m 182 89 b 90 389 121 157 90 257 b 179 817 90 585 119 726 b 451 951 238 907 328 951 b 599 965 506 951 554 956 b 708 1000 642 974 679 985 l 708 896 b 465 854 653 868 572 854 b 278 785 385 854 322 831 b 194 569 232 738 204 665 l 201 569 b 444 681 256 643 336 681 b 603 639 504 681 557 667 b 711 519 649 611 685 571 b 750 333 738 467 750 404 b 710 147 750 261 736 199 b 594 28 682 96 643 56 b 424 -14 544 0 488 -14 b 182 89 322 -14 242 21 m 586 149 b 646 333 626 192 646 254 b 588 519 646 414 626 476 b 424 583 547 563 493 583 b 263 518 356 583 303 561 b 201 333 222 474 201 413 b 263 150 201 254 222 193 b 424 83 303 106 356 83 b 586 149 492 83 546 106 "},"в":{"ha":833,"x_min":0,"x_max":0,"o":"m 686 308 b 715 208 706 276 715 243 b 656 57 715 146 696 94 b 493 0 615 19 561 0 l 139 0 l 139 722 l 493 722 b 644 667 556 722 606 704 b 701 521 682 629 701 581 b 678 433 701 486 693 457 b 611 375 663 408 640 389 b 686 308 642 361 667 339 m 243 417 l 493 417 b 575 446 528 417 554 426 b 604 521 594 464 604 489 b 575 597 604 553 594 578 b 493 625 554 615 528 625 l 243 625 m 493 97 b 581 126 531 97 560 107 b 611 208 601 146 611 174 b 581 296 611 246 601 275 b 493 326 560 317 531 326 l 243 326 l 243 97 l 493 97 "},"г":{"ha":833,"x_min":0,"x_max":0,"o":"m 167 0 l 167 722 l 708 722 l 708 514 l 611 514 l 611 625 l 271 625 l 271 0 "},"д":{"ha":833,"x_min":0,"x_max":0,"o":"m 743 97 l 743 -167 l 646 -167 l 646 0 l 174 0 l 174 -167 l 76 -167 l 76 97 l 125 97 b 174 232 147 135 164 181 b 188 431 183 283 188 350 l 188 722 l 674 722 l 674 97 m 569 625 l 292 625 l 292 431 b 278 232 292 350 288 283 b 229 97 268 181 251 135 l 569 97 "},"е":{"ha":833,"x_min":0,"x_max":0,"o":"m 203 333 b 268 149 207 254 228 192 b 417 83 307 106 357 83 b 518 111 454 83 488 93 b 594 188 549 129 574 156 l 706 188 b 593 40 682 125 644 76 b 417 -14 542 4 482 -14 b 251 32 354 -14 300 1 b 139 161 203 61 165 104 b 97 361 111 218 97 285 b 139 561 97 438 111 504 b 254 692 167 618 206 661 b 417 736 303 721 357 736 b 579 693 476 736 531 722 b 694 572 628 664 665 624 b 736 403 722 521 736 465 b 729 333 736 382 733 360 m 632 424 b 565 578 626 486 604 538 b 417 639 525 618 476 639 b 276 585 361 639 314 621 b 206 424 238 547 214 494 l 632 424 "},"ж":{"ha":833,"x_min":0,"x_max":0,"o":"m 568 369 l 806 0 l 688 0 l 467 354 l 451 354 l 465 264 l 465 0 l 368 0 l 368 264 l 382 354 l 367 354 l 146 0 l 28 0 l 265 369 l 49 722 l 163 722 l 367 382 l 382 382 l 368 472 l 368 722 l 465 722 l 465 472 l 451 382 l 467 382 l 671 722 l 785 722 "},"з":{"ha":833,"x_min":0,"x_max":0,"o":"m 206 39 b 111 188 153 74 121 122 l 215 188 b 278 110 222 153 243 128 b 410 83 313 92 356 83 b 551 115 474 83 521 94 b 597 194 582 136 597 163 b 551 281 597 231 582 260 b 410 313 521 301 474 313 l 361 313 l 361 410 l 410 410 b 540 443 467 410 511 421 b 583 528 569 464 583 493 b 540 607 583 560 569 586 b 410 639 511 628 467 639 b 229 535 303 639 243 604 l 125 535 b 213 685 135 600 164 650 b 410 736 261 719 326 736 b 615 678 499 736 567 717 b 688 528 664 638 688 588 b 653 425 688 490 676 457 b 569 361 629 393 601 372 b 664 300 607 350 638 329 b 701 194 689 269 701 235 b 628 44 701 132 676 82 b 410 -14 579 6 506 -14 b 206 39 325 -14 257 4 "},"и":{"ha":833,"x_min":0,"x_max":0,"o":"m 139 0 l 139 722 l 243 722 l 243 236 l 215 131 l 229 131 l 567 722 l 694 722 l 694 0 l 590 0 l 590 486 l 618 592 l 604 592 l 267 0 "},"й":{"ha":833,"x_min":0,"x_max":0,"o":"m 139 0 l 139 722 l 243 722 l 243 236 l 215 131 l 229 131 l 567 722 l 694 722 l 694 0 l 590 0 l 590 486 l 618 592 l 604 592 l 267 0 m 272 881 b 208 1014 236 913 215 957 l 306 1014 b 339 943 308 983 319 960 b 417 917 358 925 385 917 b 494 943 449 917 475 925 b 528 1014 514 960 525 983 l 625 1014 b 561 881 618 957 597 913 b 417 833 525 849 476 833 b 272 881 357 833 308 849 "},"к":{"ha":833,"x_min":0,"x_max":0,"o":"m 764 0 l 632 0 l 271 354 l 271 0 l 167 0 l 167 722 l 271 722 l 271 382 l 611 722 l 743 722 l 389 368 "},"л":{"ha":833,"x_min":0,"x_max":0,"o":"m 69 97 l 83 97 b 156 128 114 97 138 107 b 192 229 172 147 185 181 b 201 431 199 276 201 343 l 201 722 l 694 722 l 694 0 l 590 0 l 590 625 l 306 625 l 306 431 b 286 178 306 325 299 240 b 218 39 272 115 250 68 b 83 -7 186 8 140 -7 l 69 -7 "},"м":{"ha":833,"x_min":0,"x_max":0,"o":"m 97 0 l 97 722 l 231 722 l 410 326 l 424 326 l 603 722 l 736 722 l 736 0 l 632 0 l 632 431 l 667 597 l 653 597 l 456 160 l 378 160 l 181 597 l 167 597 l 201 431 l 201 0 "},"н":{"ha":833,"x_min":0,"x_max":0,"o":"m 590 722 l 694 722 l 694 0 l 590 0 l 590 313 l 243 313 l 243 0 l 139 0 l 139 722 l 243 722 l 243 410 l 590 410 "},"о":{"ha":833,"x_min":0,"x_max":0,"o":"m 254 32 b 139 161 206 61 167 104 b 97 361 111 218 97 285 b 139 561 97 438 111 504 b 254 692 167 618 206 661 b 417 736 303 721 357 736 b 581 692 476 736 532 721 b 694 561 629 661 667 618 b 736 361 722 504 736 438 b 694 161 736 285 722 218 b 581 32 667 104 629 61 b 417 -14 532 1 476 -14 b 254 32 357 -14 303 1 m 526 117 b 604 211 558 138 585 169 b 632 361 622 253 632 303 b 604 511 632 419 622 469 b 526 607 585 553 558 585 b 417 639 493 628 457 639 b 308 607 376 639 340 628 b 231 511 275 585 249 553 b 201 361 211 469 201 419 b 231 211 201 303 211 253 b 308 117 249 169 275 138 b 417 83 340 94 376 83 b 526 117 457 83 493 94 "},"п":{"ha":833,"x_min":0,"x_max":0,"o":"m 139 0 l 139 722 l 694 722 l 694 0 l 590 0 l 590 625 l 243 625 l 243 0 "},"р":{"ha":833,"x_min":0,"x_max":0,"o":"m 139 722 l 222 722 l 236 625 l 243 625 b 451 736 294 699 364 736 b 599 694 506 736 556 722 b 700 568 642 665 675 624 b 736 361 724 511 736 443 b 700 156 736 279 724 211 b 599 29 675 99 642 57 b 451 -14 556 0 506 -14 b 250 90 371 -14 304 21 l 243 90 l 243 -278 l 139 -278 m 536 115 b 606 208 565 136 588 167 b 632 361 624 250 632 301 b 606 514 632 421 624 472 b 536 608 588 556 565 588 b 438 639 507 629 474 639 b 340 608 401 639 369 629 b 269 514 311 588 288 556 b 243 361 251 472 243 421 b 269 208 243 301 251 250 b 340 115 288 167 311 136 b 438 83 369 94 401 83 b 536 115 474 83 507 94 "},"с":{"ha":833,"x_min":0,"x_max":0,"o":"m 275 32 b 160 161 226 61 188 104 b 118 361 132 218 118 285 b 160 561 118 438 132 504 b 275 692 188 618 226 661 b 438 736 324 721 378 736 b 615 679 507 736 567 717 b 715 535 664 642 697 593 l 611 535 b 544 610 599 565 576 590 b 438 639 511 629 475 639 b 329 607 397 639 361 628 b 251 511 296 585 269 553 b 222 361 232 469 222 419 b 251 211 222 303 232 253 b 329 117 269 169 296 138 b 438 83 361 94 397 83 b 543 113 475 83 511 93 b 611 188 575 132 599 157 l 715 188 b 615 43 697 129 664 81 b 438 -14 567 6 507 -14 b 275 32 378 -14 324 1 "},"т":{"ha":833,"x_min":0,"x_max":0,"o":"m 365 0 l 365 625 l 188 625 l 188 486 l 90 486 l 90 722 l 743 722 l 743 486 l 646 486 l 646 625 l 469 625 l 469 0 "},"у":{"ha":833,"x_min":0,"x_max":0,"o":"m 254 -278 l 365 0 l 74 722 l 186 722 l 417 139 l 424 139 l 651 722 l 761 722 l 365 -278 "},"ф":{"ha":833,"x_min":0,"x_max":0,"o":"m 472 722 b 608 678 518 722 563 707 b 721 551 654 649 692 606 b 764 361 750 496 764 432 b 721 172 764 290 750 226 b 608 44 692 117 654 74 b 472 0 563 15 518 0 l 465 0 l 465 -278 l 368 -278 l 368 0 l 361 0 b 225 44 315 0 271 15 b 114 172 179 74 143 117 b 69 361 85 226 69 290 b 114 551 69 432 85 496 b 225 678 143 606 179 649 b 361 722 271 707 315 722 l 368 722 l 368 972 l 465 972 l 465 722 l 472 722 m 368 625 l 361 625 b 275 594 332 625 304 615 b 203 504 246 574 222 544 b 174 361 183 464 174 417 b 203 218 174 306 183 258 b 275 128 222 178 246 149 b 361 97 304 107 332 97 l 368 97 m 472 97 b 558 128 501 97 529 107 b 631 218 588 149 611 178 b 660 361 650 258 660 306 b 631 504 660 417 650 464 b 558 594 611 544 588 574 b 472 625 529 615 501 625 l 465 625 l 465 97 l 472 97 "},"х":{"ha":833,"x_min":0,"x_max":0,"o":"m 97 0 l 354 375 l 111 722 l 233 722 l 382 500 l 414 438 l 421 438 l 451 500 l 600 722 l 722 722 l 479 375 l 736 0 l 614 0 l 461 229 l 421 314 l 414 314 l 372 229 l 219 0 "},"ц":{"ha":833,"x_min":0,"x_max":0,"o":"m 667 -167 l 667 0 l 139 0 l 139 722 l 243 722 l 243 97 l 590 97 l 590 722 l 694 722 l 694 97 l 764 97 l 764 -167 "},"ч":{"ha":833,"x_min":0,"x_max":0,"o":"m 590 250 b 403 208 525 222 463 208 b 194 278 314 208 244 232 b 118 458 143 324 118 385 l 118 722 l 222 722 l 222 458 b 271 347 222 413 239 375 b 403 306 303 319 346 306 b 590 347 472 306 535 319 l 590 722 l 694 722 l 694 0 l 590 0 l 590 250 "},"ш":{"ha":833,"x_min":0,"x_max":0,"o":"m 90 0 l 90 722 l 194 722 l 194 97 l 368 97 l 368 722 l 465 722 l 465 97 l 639 97 l 639 722 l 743 722 l 743 0 "},"щ":{"ha":833,"x_min":0,"x_max":0,"o":"m 715 -167 l 715 0 l 90 0 l 90 722 l 194 722 l 194 97 l 368 97 l 368 722 l 465 722 l 465 97 l 639 97 l 639 722 l 743 722 l 743 97 l 813 97 l 813 -167 "},"ъ":{"ha":833,"x_min":0,"x_max":0,"o":"m 208 625 l 42 625 l 42 722 l 313 722 l 313 458 l 500 458 b 622 429 546 458 586 449 b 707 347 658 408 686 382 b 736 229 726 313 736 272 b 707 113 736 186 726 147 b 622 31 686 78 658 50 b 500 0 586 10 546 0 l 208 0 m 493 97 b 594 135 535 97 568 110 b 632 229 619 158 632 190 b 594 325 632 268 619 300 b 493 361 568 349 535 361 l 313 361 l 313 97 l 493 97 "},"ы":{"ha":833,"x_min":0,"x_max":0,"o":"m 125 722 l 229 722 l 229 458 l 292 458 b 414 429 338 458 378 449 b 499 347 450 408 478 382 b 528 229 518 313 528 272 b 499 113 528 186 518 147 b 414 31 478 78 450 50 b 292 0 378 10 338 0 l 125 0 m 604 0 l 604 722 l 708 722 l 708 0 m 285 97 b 386 135 326 97 360 110 b 424 229 411 158 424 190 b 386 325 424 268 411 300 b 285 361 360 349 326 361 l 229 361 l 229 97 l 285 97 "},"ь":{"ha":833,"x_min":0,"x_max":0,"o":"m 153 722 l 257 722 l 257 458 l 486 458 b 608 429 532 458 572 449 b 693 347 644 408 672 382 b 722 229 713 313 722 272 b 693 113 722 186 713 147 b 608 31 672 78 644 50 b 486 0 572 10 532 0 l 153 0 m 479 97 b 581 135 521 97 554 110 b 618 229 606 158 618 190 b 581 325 618 268 606 300 b 479 361 554 349 521 361 l 257 361 l 257 97 l 479 97 "},"э":{"ha":833,"x_min":0,"x_max":0,"o":"m 560 692 b 674 561 608 661 646 618 b 715 361 701 504 715 438 b 674 161 715 285 701 218 b 560 32 646 104 608 61 b 396 -14 511 1 456 -14 b 219 43 326 -14 268 6 b 118 188 171 81 136 129 l 222 188 b 288 115 235 160 256 136 b 396 83 318 94 354 83 b 539 144 451 83 499 104 b 608 313 578 185 601 240 l 361 313 l 361 410 l 608 410 b 539 579 601 482 578 539 b 396 639 499 619 451 639 b 288 608 354 639 318 629 b 222 535 256 588 235 563 l 118 535 b 219 679 136 593 171 642 b 396 736 268 717 326 736 b 560 692 456 736 511 721 "},"ю":{"ha":833,"x_min":0,"x_max":0,"o":"m 683 646 b 743 361 724 586 743 490 b 683 76 743 232 724 136 b 521 -14 643 17 589 -14 b 374 67 461 -14 413 13 b 307 313 335 119 313 201 l 229 313 l 229 0 l 125 0 l 125 722 l 229 722 l 229 410 l 307 410 b 374 657 313 521 335 603 b 521 736 413 710 461 736 b 683 646 589 736 643 706 m 639 361 b 521 639 639 546 600 639 b 403 361 442 639 403 546 b 521 83 403 176 442 83 b 639 361 600 83 639 176 "},"я":{"ha":833,"x_min":0,"x_max":0,"o":"m 674 0 l 569 0 l 569 278 l 415 278 l 224 0 l 104 0 l 303 282 b 169 358 247 293 203 318 b 118 500 135 399 118 446 b 149 614 118 542 128 579 b 232 693 168 647 196 674 b 354 722 268 713 308 722 l 674 722 m 569 625 l 361 625 b 261 589 321 625 288 613 b 222 500 235 565 222 535 b 261 411 222 465 235 435 b 361 375 288 388 321 375 l 569 375 "},"ѐ":{"ha":833,"x_min":0,"x_max":0,"o":"m 203 333 b 268 149 207 254 228 192 b 417 83 307 106 357 83 b 518 111 454 83 488 93 b 594 188 549 129 574 156 l 706 188 b 593 40 682 125 644 76 b 417 -14 542 4 482 -14 b 251 32 354 -14 300 1 b 139 161 203 61 165 104 b 97 361 111 218 97 285 b 139 561 97 438 111 504 b 254 692 167 618 206 661 b 417 736 303 721 357 736 b 579 693 476 736 531 722 b 694 572 628 664 665 624 b 736 403 722 521 736 465 b 729 333 736 382 733 360 m 632 424 b 565 578 626 486 604 538 b 417 639 525 618 476 639 b 276 585 361 639 314 621 b 206 424 238 547 214 494 l 632 424 m 375 833 l 215 1028 l 347 1028 l 472 833 "}}}
